<svg width="1559" height="1230" viewBox="0 0 1559 1230" fill="none" xmlns="http://www.w3.org/2000/svg">
<path d="M1516.15 1087.65C1461.19 1023.06 1387.58 1049.69 1309.39 1004.37C1231.2 959.038 1213.02 939.774 1119.58 731.835C1056.08 616.25 850.504 666.11 793.228 618.516C735.952 570.923 715.039 457.038 685.526 378.848C616.156 195.068 427.726 293.859 346.704 136.914C265.681 -20.0324 0.00012207 0.93183 0.00012207 0.93183V1224.77H1557.51C1557.51 1224.77 1571.11 1152.25 1516.15 1087.65Z" fill="#7E89C7" fill-opacity="0.34"/>
<rect width="46.4605" height="46.4605" rx="23.2303" transform="matrix(-1 0 0 1 1407.15 958.673)" fill="#D3D7EC"/>
<path d="M926.208 530.355C913.367 513.121 904.856 500.798 885.624 489.644C859.996 474.782 839.616 473.429 817.077 470.805C809.66 469.942 801.338 471.055 793.436 472.974C773.412 477.838 762.591 498.538 767.929 518.44C769.399 523.921 771.157 529.543 773.241 534.856C782.598 558.714 782.58 568.642 811.066 584.586C825.441 592.633 857.672 596.971 873.268 601.725C878.445 603.304 884.322 604.715 890.321 605.955C914.656 610.985 938.343 594.344 937.444 569.512C936.939 555.554 934.101 540.949 926.208 530.355Z" fill="#D3D7EC"/>
<path d="M491.09 160.288C486.645 153.867 483.711 149.267 476.837 145.273C467.677 139.951 460.239 139.732 452.029 139.058C451.264 138.996 450.47 138.995 449.658 139.045C437.833 139.777 431.218 153.055 435.041 164.27C438.114 173.282 437.961 177.089 448.151 182.784C453.293 185.658 465.025 186.847 470.662 188.44C482.989 191.925 495.894 182.578 494.334 169.864C493.898 166.313 492.924 162.937 491.09 160.288Z" fill="#D3D7EC"/>
<path d="M1341.18 925.779C1346.85 868.789 1267.01 817.82 1224.36 856.052C1211.39 867.687 1229.57 894.991 1239.14 912.319C1256.5 943.775 1282.15 969.854 1320.77 957.229C1338.74 951.356 1339.45 943.123 1341.18 925.779Z" fill="#D3D7EC"/>
<rect width="46.4605" height="46.4605" rx="23.2303" transform="matrix(-1 0 0 1 998.075 565.458)" fill="#D3D7EC"/>
<g clip-path="url(#clip0_629_295)">
<path d="M606.834 1131.48L600.868 1160.42C600.868 1160.42 563.448 1170.25 571.854 1201.11H658.083L662.421 1131.75H606.834V1131.48Z" fill="#06262D"/>
<path d="M641.271 1193.46V1200.83H571.854C563.448 1169.98 600.868 1160.15 600.868 1160.15C626.9 1162.61 641.271 1177.35 641.271 1193.46Z" fill="#CAD9DB"/>
<path d="M658.625 1194.01L658.083 1201.11H571.854C571.312 1198.65 570.77 1196.19 570.77 1194.01H658.625Z" fill="#9FAAAA"/>
<path d="M658.896 1186.36C658.896 1186.36 643.711 1157.69 601.139 1157.69L605.749 1131.75H662.421L658.896 1186.36Z" fill="black"/>
<path d="M787.697 1131.48L793.662 1160.42C793.662 1160.42 831.082 1170.25 822.676 1201.11H736.448L732.109 1131.75H787.697V1131.48Z" fill="#06262D"/>
<path d="M753.26 1193.46V1200.83H822.676C831.082 1169.98 793.662 1160.15 793.662 1160.15C767.631 1162.61 753.26 1177.35 753.26 1193.46Z" fill="#CAD9DB"/>
<path d="M735.906 1194.01L736.448 1201.11H822.677C823.219 1198.65 823.761 1196.19 823.761 1194.01H735.906Z" fill="#9FAAAA"/>
<path d="M793.663 1160.42C793.663 1160.42 766.547 1154.96 734.821 1179.26L731.838 1131.48L788.511 1128.75L793.663 1160.42Z" fill="black"/>
<path d="M796.917 620.324L793.391 1146.22C793.391 1146.22 768.987 1175.44 717.196 1149.5L705.536 711.25L671.099 1146.77C671.099 1146.77 625.273 1175.99 598.428 1149.23L619.579 620.051H796.917V620.324Z" fill="#5B93BC"/>
<path d="M767.089 699.782L760.31 733.914C760.31 733.914 773.055 747.293 796.103 743.471L796.917 620.324H619.579L615.24 730.637C615.24 730.637 628.798 753.574 654.829 753.574L644.796 679.85C684.386 694.321 734.55 707.701 767.089 699.782Z" fill="black"/>
<path d="M731.838 719.715L685.47 706.062" stroke="black" stroke-miterlimit="10" stroke-linecap="round" stroke-linejoin="round"/>
<path d="M670.828 1146.77L705.536 711.25L712.586 976.657" stroke="black" stroke-miterlimit="10" stroke-linecap="round" stroke-linejoin="round"/>
<path d="M644.796 679.849L610.63 1157.69" stroke="black" stroke-miterlimit="10" stroke-linecap="round" stroke-linejoin="round"/>
<path d="M655.643 768.318L641.813 851.326C641.813 851.326 625.544 863.887 606.021 856.787L613.342 771.049L655.643 768.318Z" fill="#5B93BC"/>
<path d="M648.592 810.369L641.813 851.326C641.813 851.326 626.357 864.16 606.02 856.787" stroke="black" stroke-miterlimit="10" stroke-linecap="round" stroke-linejoin="round"/>
<path d="M770.343 665.105L777.122 1156.87" stroke="black" stroke-miterlimit="10" stroke-linecap="round" stroke-linejoin="round"/>
<path d="M795.832 771.049L802.339 869.621C802.339 869.621 782.002 878.085 764.377 863.887L749.463 765.588L795.832 771.049Z" fill="#5B93BC"/>
<path d="M798.543 810.368C798.543 810.368 767.903 811.188 751.362 765.315L795.832 770.776L798.543 810.368Z" fill="black"/>
<path d="M795.832 771.049L810.474 801.085C810.474 801.085 759.767 804.361 749.735 765.588L795.832 771.049Z" fill="#5B93BC"/>
<path d="M810.474 801.085L795.832 771.049L749.735 765.588" stroke="black" stroke-miterlimit="10" stroke-linecap="round" stroke-linejoin="round"/>
<path d="M751.904 780.879L764.377 863.887C779.833 878.905 802.339 869.621 802.339 869.621" stroke="black" stroke-miterlimit="10" stroke-linecap="round" stroke-linejoin="round"/>
<path d="M799.357 822.929L802.339 868.256" stroke="black" stroke-miterlimit="10" stroke-linecap="round" stroke-linejoin="round"/>
<path d="M611.173 797.262C611.173 797.262 632.865 807.092 652.389 786.34L654.558 771.049L611.173 797.262Z" fill="black"/>
<path d="M613.342 771.049L606.021 804.088C606.021 804.088 643.44 806.546 655.643 768.318L613.342 771.049Z" fill="#5B93BC"/>
<path d="M655.643 768.318C655.643 768.318 642.898 808.73 606.021 804.088" stroke="black" stroke-miterlimit="10" stroke-linecap="round" stroke-linejoin="round"/>
<path d="M790.951 789.616C791.765 792.62 794.205 794.531 796.103 793.985C798.001 793.439 798.815 790.436 797.73 787.432C796.917 784.428 794.476 782.517 792.578 783.063C790.68 783.609 789.866 786.613 790.951 789.616Z" fill="black"/>
<path d="M612.8 786.613C611.444 789.344 611.986 792.347 613.884 793.166C615.782 793.985 617.952 792.347 619.307 789.344C620.663 786.613 620.121 783.609 618.223 782.79C616.325 781.971 613.884 783.609 612.8 786.613Z" fill="black"/>
<path d="M774.952 813.645L777.122 855.149" stroke="black" stroke-miterlimit="10" stroke-linecap="round" stroke-linejoin="round"/>
<path d="M635.848 807.638L632.865 828.117" stroke="black" stroke-miterlimit="10" stroke-linecap="round" stroke-linejoin="round"/>
<path d="M793.391 1146.22C793.391 1146.22 771.156 1174.89 717.195 1149.5" stroke="black" stroke-miterlimit="10" stroke-linecap="round" stroke-linejoin="round"/>
<path d="M784.443 1121.65C784.443 1121.65 774.139 1133.94 736.177 1126.29" stroke="black" stroke-miterlimit="10" stroke-linecap="round" stroke-linejoin="round"/>
<path d="M655.643 1121.65C655.643 1121.65 624.73 1131.48 606.021 1121.65" stroke="black" stroke-miterlimit="10" stroke-linecap="round" stroke-linejoin="round"/>
<path d="M755.158 1171.62C775.223 1157.42 793.662 1160.42 793.662 1160.42C793.662 1160.42 773.054 1156.6 755.158 1163.97" stroke="#CFD9DB" stroke-width="0.5" stroke-miterlimit="10" stroke-linecap="round" stroke-linejoin="round"/>
<path d="M784.443 1160.42C784.443 1160.42 818.338 1142.95 807.491 1131.48C796.103 1119.74 784.443 1160.42 784.443 1160.42Z" stroke="#CFD9DB" stroke-width="0.5" stroke-miterlimit="10" stroke-linecap="round" stroke-linejoin="round"/>
<path d="M784.443 1160.42C784.443 1160.42 772.241 1136.39 755.429 1134.48C738.346 1132.02 766.275 1156.87 784.443 1160.42Z" stroke="#CFD9DB" stroke-width="0.5" stroke-miterlimit="10" stroke-linecap="round" stroke-linejoin="round"/>
<path d="M636.933 1171.62C627.713 1162.33 600.597 1160.42 600.597 1160.42C600.597 1160.42 619.036 1157.69 638.56 1164.24" stroke="#CFD9DB" stroke-width="0.5" stroke-miterlimit="10" stroke-linecap="round" stroke-linejoin="round"/>
<path d="M605.749 1160.42C605.749 1160.42 619.579 1135.57 631.781 1142.13C644.254 1148.13 605.749 1160.42 605.749 1160.42Z" stroke="#CFD9DB" stroke-width="0.5" stroke-miterlimit="10" stroke-linecap="round" stroke-linejoin="round"/>
<path d="M605.749 1160.42C605.749 1160.42 596.259 1133.66 609.274 1128.47C622.019 1123.29 605.749 1160.42 605.749 1160.42Z" stroke="#CFD9DB" stroke-width="0.5" stroke-miterlimit="10" stroke-linecap="round" stroke-linejoin="round"/>
<path d="M803.966 420.996L838.403 679.303C838.403 679.303 846.538 736.098 774.681 715.619L803.966 420.996Z" fill="#FF8A69"/>
<path d="M831.896 630.427L838.403 679.303C838.403 679.303 850.063 738.01 774.681 715.619" stroke="black" stroke-miterlimit="10" stroke-linecap="round" stroke-linejoin="round"/>
<path d="M790.408 558.887C802.339 564.075 814.813 566.26 823.49 567.079L814.813 502.911C808.034 504.004 801.526 505.096 795.289 506.461L790.408 558.887Z" fill="black"/>
<path d="M803.966 420.996L843.827 526.667C843.827 526.667 824.032 576.09 767.089 543.323L803.966 420.996Z" fill="#8FC3FF"/>
<path d="M816.711 454.581L843.827 526.667C843.827 526.667 843.013 531.582 837.861 537.316" stroke="black" stroke-miterlimit="10" stroke-linecap="round" stroke-linejoin="round"/>
<path d="M428.683 519.022C447.935 504.55 467.458 525.575 467.458 525.575L570.499 561.345L631.78 416.354L649.406 609.948L632.052 621.962C607.105 639.165 574.566 640.257 548.806 624.693L448.477 571.994C416.752 579.639 398.855 561.072 398.855 561.072L392.347 522.844C391.534 517.929 395.872 513.561 400.753 514.38L428.683 519.022Z" fill="#FF8A69"/>
<path d="M585.412 526.121C585.954 528.305 597.885 571.721 646.423 576.09L632.051 416.354L585.412 526.121Z" fill="black"/>
<path d="M657.812 535.951C593.005 579.639 576.735 504.823 576.735 504.823L631.78 416.354L657.812 535.951Z" fill="#8FC3FF"/>
<path d="M582.972 570.356L570.498 561.345L576.735 579.639" stroke="black" stroke-miterlimit="10" stroke-linecap="round" stroke-linejoin="round"/>
<path d="M623.103 430.28L576.735 504.823" stroke="black" stroke-miterlimit="10" stroke-linecap="round" stroke-linejoin="round"/>
<path d="M441.698 534.04L422.717 530.217L428.682 519.022C436.546 511.922 445.765 513.288 453.629 516.564C463.662 520.933 470.712 530.49 470.983 541.412C470.983 543.596 470.712 544.689 470.712 544.689" stroke="black" stroke-miterlimit="10" stroke-linecap="round" stroke-linejoin="round"/>
<path d="M392.618 523.937L416.751 531.582" stroke="black" stroke-miterlimit="10" stroke-linecap="round" stroke-linejoin="round"/>
<path d="M416.751 544.962L394.788 536.77" stroke="black" stroke-miterlimit="10" stroke-linecap="round" stroke-linejoin="round"/>
<path d="M416.751 556.703L396.686 548.238" stroke="black" stroke-miterlimit="10" stroke-linecap="round" stroke-linejoin="round"/>
<path d="M448.477 571.994L463.12 561.072L455.798 577.728L448.477 571.994Z" fill="black"/>
<path d="M448.477 571.994L543.382 620.324" stroke="black" stroke-miterlimit="10" stroke-linecap="round" stroke-linejoin="round"/>
<path d="M610.63 624.693C610.63 624.693 634.221 679.303 690.893 684.218C747.565 689.133 808.034 642.441 808.034 642.441L803.966 420.996L748.108 404.886V410.893C748.108 410.893 745.396 437.379 717.196 437.652C688.453 437.652 685.47 402.155 685.47 402.155L631.78 416.354L610.63 624.693Z" fill="#CAD9DB"/>
<path d="M747.565 374.304L747.836 410.893C747.836 410.893 745.125 437.379 716.924 437.652C688.724 437.925 685.47 402.155 685.47 402.155L698.757 363.655L747.565 374.304Z" fill="#FF8A69"/>
<path d="M692.791 380.857C692.791 380.857 709.603 410.62 747.836 405.159L747.565 374.577L698.486 364.201L692.791 380.857Z" fill="black"/>
<path d="M685.199 404.886C674.895 508.919 671.912 606.672 692.791 684.491C692.791 684.491 661.065 681.488 649.134 669.474L685.199 404.886Z" fill="black"/>
<path d="M803.966 420.996L813.186 706.336C798.814 730.364 779.02 739.375 753.802 732.822L747.836 404.886C763.835 405.978 781.731 410.074 803.966 420.996Z" fill="#8FC3FF"/>
<path d="M685.47 402.155L661.608 734.733C627.713 728.999 607.918 717.531 598.157 701.967L631.78 416.354C649.948 405.978 667.844 401.063 685.47 402.155Z" fill="#8FC3FF"/>
<path d="M805.864 479.975L813.186 706.063C813.186 706.063 796.103 743.198 753.802 732.549L750.819 568.444" stroke="black" stroke-miterlimit="10" stroke-linecap="round" stroke-linejoin="round"/>
<path d="M623.917 483.252L603.308 658.551" stroke="black" stroke-miterlimit="10" stroke-linecap="round" stroke-linejoin="round"/>
<path d="M616.053 549.331L610.63 520.933" stroke="black" stroke-miterlimit="10" stroke-linecap="round" stroke-linejoin="round"/>
<path d="M803.966 420.996C803.966 420.996 778.206 408.162 747.836 404.886L749.463 489.805" stroke="black" stroke-miterlimit="10" stroke-linecap="round" stroke-linejoin="round"/>
<path d="M740.515 427.549C740.515 427.549 734.821 437.379 716.924 437.379C699.028 437.379 689.808 424 685.199 404.886" stroke="black" stroke-miterlimit="10" stroke-linecap="round" stroke-linejoin="round"/>
<path d="M680.86 466.869L668.115 645.445" stroke="black" stroke-miterlimit="10" stroke-linecap="round" stroke-linejoin="round"/>
<path d="M661.608 734.733C661.608 734.733 614.697 729.545 598.157 701.967" stroke="black" stroke-miterlimit="10" stroke-linecap="round" stroke-linejoin="round"/>
<path d="M758.412 338.261C754.616 345.633 754.887 353.825 758.954 356.556C763.293 359.286 769.8 355.736 773.597 348.364C777.393 340.992 777.122 332.8 773.054 330.069C768.716 327.339 762.208 330.889 758.412 338.261Z" fill="#E55145"/>
<path d="M670.285 367.205C677.335 371.3 684.657 371.027 687.097 366.385C689.266 361.743 685.47 354.644 678.691 350.548C671.641 346.453 664.32 346.726 661.879 351.367C659.71 356.009 663.506 363.109 670.285 367.205Z" fill="#E55145"/>
<path d="M763.293 297.303C763.293 297.303 780.105 315.871 769.801 329.523C769.801 329.523 762.75 329.523 761.937 345.633L681.403 363.382C681.403 363.382 674.081 346.179 667.574 347.818C667.574 347.818 656.456 328.431 668.929 319.693C681.403 310.956 763.293 297.303 763.293 297.303Z" fill="black"/>
<path d="M724.517 392.325C756.785 389.595 768.444 338.534 760.852 311.775C753.26 285.016 727.228 269.452 702.824 277.097C678.42 284.743 664.862 312.594 672.454 339.353C680.047 366.112 692.791 395.329 724.517 392.325Z" fill="#FF8A69"/>
<path d="M722.619 348.364L712.586 350.821C712.586 350.821 714.484 357.648 719.636 356.555C724.788 355.19 722.619 348.364 722.619 348.364Z" fill="#E55145"/>
<path d="M730.482 359.559C730.482 359.559 722.89 362.563 710.145 363.109C710.145 363.109 712.586 375.396 722.619 373.485C732.923 371.3 730.482 359.559 730.482 359.559Z" fill="#B2221B"/>
<path d="M729.398 335.53C729.669 337.988 731.567 339.899 733.194 339.626C735.092 339.353 736.177 337.169 735.906 334.711C735.634 332.254 733.736 330.342 732.109 330.615C730.211 330.889 728.855 333.073 729.398 335.53Z" fill="black"/>
<path d="M696.859 343.449C697.13 345.906 699.028 347.818 700.655 347.545C702.553 347.272 703.638 345.087 703.366 342.63C703.095 340.172 701.197 338.261 699.57 338.534C697.943 338.807 696.587 340.992 696.859 343.449Z" fill="black"/>
<path d="M739.16 320.786C739.16 320.786 729.94 315.052 727.5 325.701L739.16 320.786Z" fill="#3A180C"/>
<path d="M703.638 329.25C703.638 329.25 694.961 322.151 691.164 331.162L703.638 329.25Z" fill="#3A180C"/>
<path d="M767.902 319.42C767.902 319.42 745.667 319.966 735.906 295.119C731.025 306.041 719.636 313.686 703.638 319.42L710.146 300.853C710.146 300.853 683.843 338.534 656.456 333.892C656.456 333.892 652.389 306.86 665.133 288.019C678.149 268.906 723.161 249.792 748.108 275.186C748.108 275.186 787.155 283.651 767.902 319.42Z" fill="#723A27"/>
<path d="M710.146 279.009C719.365 282.831 728.313 283.104 734.55 282.558C739.973 282.012 744.854 279.555 748.108 275.186C744.041 270.817 739.16 267.813 734.008 265.902C735.363 268.633 735.906 270.544 735.906 270.544C731.025 267.267 723.161 270.544 723.161 270.544L730.754 275.186C723.975 274.367 710.417 278.463 710.146 279.009Z" fill="#3A180C"/>
<path d="M570.499 561.345L467.458 525.575" stroke="black" stroke-miterlimit="10" stroke-linecap="round" stroke-linejoin="round"/>
<path d="M1005.44 494.174L1076.21 554.518L1090.58 445.571L1129.36 416.354C1129.36 416.354 1158.64 440.656 1147.25 468.234L1129.63 470.145L1128.54 578.547C1125.56 620.87 1089.77 641.349 1052.62 620.051L984.558 586.739L1005.44 494.174Z" fill="#CC7256"/>
<path d="M1083.8 563.256L1076.21 554.518V571.994" stroke="black" stroke-miterlimit="10" stroke-linecap="round" stroke-linejoin="round"/>
<path d="M1129.36 470.145L1117.7 471.51C1117.7 471.51 1115.53 463.865 1123.12 460.861C1123.12 460.861 1117.43 461.681 1116.88 455.4C1116.88 455.4 1109.83 469.326 1101.43 468.234C1101.43 468.234 1118.24 483.525 1129.09 482.16V470.145H1129.36Z" fill="black"/>
<path d="M1136.41 438.471L1117.15 455.4C1117.43 460.315 1120.68 461.135 1123.39 460.861" stroke="black" stroke-miterlimit="10" stroke-linecap="round" stroke-linejoin="round"/>
<path d="M1119.32 423.726C1120.41 433.829 1115.53 440.929 1105.22 445.297L1092.48 428.095L1107.66 408.162L1119.32 423.726Z" fill="#F4F4F4"/>
<path d="M1090.58 445.298L1130.98 437.652C1130.98 437.652 1133.7 440.929 1132.34 445.298C1131.53 447.482 1129.9 449.393 1127.73 450.213L1116.88 455.127L1112.27 461.681C1109.56 466.05 1104.68 468.507 1099.53 467.688L1087.6 465.776L1090.58 445.298Z" fill="#CC7256"/>
<path d="M1100.07 467.961C1105.22 468.78 1110.1 466.323 1112.82 461.954L1117.43 455.4L1128.27 450.485C1130.44 449.393 1132.07 447.755 1132.88 445.571C1134.24 441.202 1131.53 437.925 1131.53 437.925L1101.43 443.386" stroke="black" stroke-miterlimit="10" stroke-linecap="round" stroke-linejoin="round"/>
<path d="M1062.92 427.822C1066.72 434.375 1072.68 437.925 1076.21 435.741C1076.75 435.468 1077.29 434.922 1077.57 434.375C1080.01 432.191 1082.99 429.734 1090.85 427.822C1081.09 422.634 1076.48 414.443 1077.02 403.247C1071.33 408.982 1067.8 410.347 1064.55 411.439C1064.01 411.439 1063.19 411.712 1062.65 411.985C1059.4 414.17 1059.4 421.269 1062.92 427.822Z" fill="#F4F4F4"/>
<path d="M1068.35 399.698C1069.16 399.152 1070.24 398.879 1071.33 398.879C1080.82 395.602 1093.29 391.233 1126.92 336.077L1150.51 377.58L1174.37 419.084C1109.83 420.177 1099.8 428.914 1092.21 435.468C1091.67 436.287 1090.85 437.106 1090.04 437.652C1084.07 440.929 1074.58 435.195 1068.62 424.819C1062.38 414.17 1062.38 402.974 1068.35 399.698Z" fill="#F4F4F4"/>
<path d="M1126.37 391.506C1139.39 414.443 1162.44 426.184 1177.62 417.446C1192.81 408.709 1194.43 383.042 1181.42 360.105C1168.4 336.623 1145.35 325.155 1130.17 333.892C1114.99 342.63 1113.36 368.297 1126.37 391.506Z" fill="#B2221B"/>
<path d="M1131.39 388.43C1118.31 365.384 1120.04 339.606 1135.26 330.853C1150.47 322.1 1173.4 333.686 1186.48 356.732C1199.56 379.778 1197.82 405.556 1182.61 414.309C1167.39 423.062 1144.46 411.476 1131.39 388.43Z" fill="#F4F4F4"/>
<path d="M1128.54 350.821C1149.69 346.453 1172.74 354.644 1188.74 372.392C1187.38 367.751 1185.49 363.382 1183.05 358.74C1171.66 338.807 1151.86 328.704 1138.58 336.35C1133.42 339.353 1129.9 344.541 1128.54 350.821Z" fill="black"/>
<path d="M1135.05 386.318C1146.44 406.251 1166.23 416.354 1179.52 408.708C1189.83 402.701 1193.08 387.956 1188.47 372.393C1172.47 354.644 1149.42 346.179 1128.27 350.821C1126.1 360.924 1128.27 374.031 1135.05 386.318Z" fill="#82B1DB"/>
<path d="M1068.35 424.819C1074.31 435.468 1083.8 441.202 1089.77 437.652C1090.58 437.106 1091.39 436.287 1092.21 435.468C1096.28 432.191 1100.88 428.095 1113.63 424.819C1098.17 416.354 1090.58 403.247 1091.39 385.499C1082.17 395.056 1076.48 396.967 1071.33 398.606C1070.24 398.606 1069.16 398.879 1068.35 399.425C1062.38 402.974 1062.38 414.17 1068.35 424.819Z" fill="#B2221B"/>
<path d="M1092.21 435.468C1092.21 435.468 1104.41 421.542 1144.27 420.45" stroke="black" stroke-miterlimit="10" stroke-linecap="round" stroke-linejoin="round"/>
<path d="M1190.37 380.857C1191.72 393.145 1188.2 404.067 1179.79 408.982C1166.51 416.627 1146.71 406.524 1135.32 386.591C1131.8 380.584 1129.63 374.031 1128.54 368.024" stroke="black" stroke-miterlimit="10" stroke-linecap="round" stroke-linejoin="round"/>
<path d="M1112.27 441.475C1112.27 441.475 1120.14 437.379 1119.32 423.999" stroke="black" stroke-miterlimit="10" stroke-linecap="round" stroke-linejoin="round"/>
<path d="M1146.98 468.234L1117.7 471.511C1116.61 466.869 1118.51 462.773 1123.12 460.862L1141.56 453.489" stroke="black" stroke-miterlimit="10" stroke-linecap="round" stroke-linejoin="round"/>
<path d="M1129.36 470.145L1128.54 558.341" stroke="black" stroke-miterlimit="10" stroke-linecap="round" stroke-linejoin="round"/>
<path d="M1081.9 511.649L1076.21 554.519" stroke="black" stroke-miterlimit="10" stroke-linecap="round" stroke-linejoin="round"/>
<path d="M965.848 374.577L1000.83 431.099C1000.83 431.099 1036.35 427.549 1034.72 473.149C1034.72 473.149 1058.04 473.149 1063.74 499.908C1071.6 536.224 1008.42 566.26 941.715 579.639C852.775 597.388 789.866 543.323 850.877 491.99C850.877 491.99 847.08 456.22 874.196 448.847L885.043 396.694L965.848 374.577Z" fill="black"/>
<path d="M1091.67 682.853C1091.67 682.853 1033.91 804.907 865.79 738.556L997.845 612.952L1091.67 682.853Z" fill="#CAD9DB"/>
<path d="M652.388 1085.61C652.388 1085.61 718.822 1159.06 789.595 1153.05C860.638 1147.04 1020.35 1114.55 1020.35 1114.55L1034.72 905.664L782.002 874.536L652.388 1085.61Z" fill="#0A2930"/>
<path d="M1047.2 694.321L995.947 1179.54C995.404 1185.54 999.472 1191.28 1005.71 1192.1C1019.54 1193.73 1041.77 1200.83 1041.77 1228.41H954.731V694.321H1047.2Z" fill="#CC7256"/>
<path d="M1009.78 1190.18C1009.78 1190.18 989.71 1188.82 989.71 1217.49H958.256C958.256 1217.49 957.985 1205.75 949.579 1205.75V1228.41H1041.5C1041.5 1228.14 1049.09 1197.28 1009.78 1190.18Z" fill="#9FAAAA"/>
<path d="M997.302 1164.52C997.302 1164.52 990.795 1159.33 954.459 1170.25V1149.77L1000.29 1136.12L997.302 1164.52Z" fill="black"/>
<path d="M949.85 1221.31V1228.41H1041.5C1041.5 1228.41 1042.04 1225.68 1042.04 1221.31H949.85Z" fill="#768483"/>
<path d="M1009.78 1190.18C1009.78 1190.18 989.71 1189.91 989.71 1217.49H970.458" stroke="black" stroke-miterlimit="10" stroke-linecap="round" stroke-linejoin="round"/>
<path d="M1041.5 1228.14H949.85" stroke="black" stroke-miterlimit="10" stroke-linecap="round" stroke-linejoin="round"/>
<path d="M958.256 1217.49C958.256 1217.49 958.256 1207.39 949.579 1205.75" stroke="black" stroke-miterlimit="10" stroke-linecap="round" stroke-linejoin="round"/>
<path d="M1005.44 694.321L794.475 1191.55C794.475 1191.55 815.084 1200.01 816.439 1228.41H744.582L904.295 653.636L1005.44 694.321Z" fill="#CC7256"/>
<path d="M825.93 1117.01C825.93 1117.01 799.899 1102.53 777.664 1108.27L784.171 1085.33L832.167 1102.53L825.93 1117.01Z" fill="black"/>
<path d="M816.439 1228.14C816.439 1228.14 818.88 1189.91 789.595 1189.91C760.31 1189.91 756.242 1217.76 756.242 1217.76H752.175C752.175 1217.76 748.921 1204.66 745.667 1204.66L744.582 1228.14H816.439Z" fill="#CAD9DB"/>
<path d="M744.582 1228.14H816.44C816.44 1228.14 816.711 1225.41 816.168 1221.04H744.582V1228.14Z" fill="#9FAAAA"/>
<path d="M744.582 1228.14H816.439C816.439 1228.14 818.066 1217.76 813.999 1209.02" stroke="black" stroke-miterlimit="10" stroke-linecap="round" stroke-linejoin="round"/>
<path d="M789.595 1189.91C789.595 1189.91 761.937 1188 756.242 1217.76H752.175C752.175 1217.76 750.006 1206.57 745.667 1204.66" stroke="black" stroke-miterlimit="10" stroke-linecap="round" stroke-linejoin="round"/>
<path d="M1052.35 653.637L1020.35 1114.55C1020.35 1114.55 982.931 1209.02 882.331 1153.87C815.626 1117.28 715.84 1028.54 652.117 1085.88L946.053 608.037L1052.35 653.637Z" fill="#514F91"/>
<path d="M939.545 663.193L763.563 949.898L779.833 961.367H744.582L757.327 968.466L717.738 1033.18" stroke="black" stroke-miterlimit="10" stroke-linecap="round" stroke-linejoin="round"/>
<path d="M865.79 738.556C865.79 738.556 1001.37 673.296 1049.36 697.325C1049.64 697.325 1052.35 653.363 1052.35 653.363L946.053 607.764L865.79 738.556Z" fill="black"/>
<path d="M1023.33 1071.68C1023.33 1071.68 972.356 1156.33 912.972 1125.2C853.588 1094.07 728.313 1011.06 680.589 1039.19" stroke="black" stroke-miterlimit="10" stroke-linecap="round" stroke-linejoin="round"/>
<path d="M1052.35 653.636L1020.35 1114.55" stroke="black" stroke-miterlimit="10" stroke-linecap="round" stroke-linejoin="round"/>
<path d="M882.602 1153.87C815.897 1117.28 716.111 1028.54 652.388 1085.88C652.388 1085.88 679.504 1120.56 738.346 1145.4" stroke="black" stroke-miterlimit="10" stroke-linecap="round" stroke-linejoin="round"/>
<path d="M1076.21 705.516C1076.21 705.516 1060.75 724.63 1046.92 732.275" stroke="black" stroke-miterlimit="10" stroke-linecap="round" stroke-linejoin="round"/>
<path d="M901.855 494.174C901.855 494.174 915.684 457.585 914.599 423.18L970.187 435.195C959.883 452.124 960.425 469.872 965.577 479.429L1005.44 494.174C1005.44 494.174 1066.72 548.784 1046.92 576.909L1052.35 653.636C1052.35 653.636 1009.23 664.286 961.509 647.629C913.786 630.973 922.463 653.636 922.463 653.636L863.079 516.564L901.855 494.174Z" fill="#CC7256"/>
<path d="M912.972 448.301C912.972 448.301 918.666 484.344 965.305 479.702C960.153 470.145 959.611 452.397 969.915 435.468L914.327 423.453C914.87 431.645 914.056 440.11 912.972 448.301Z" fill="black"/>
<path d="M901.854 630.154C873.112 661.009 862.536 694.594 865.79 738.556C865.79 738.556 944.969 690.772 1007.34 668.927C1047.2 655.002 1091.67 682.58 1091.67 682.58L1054.25 600.664C1054.25 600.664 1066.72 575.817 1055.87 550.423C1044.76 525.029 1005.44 494.174 1005.44 494.174L965.577 479.702L990.523 558.341L901.854 494.174C886.67 497.177 873.925 505.096 863.079 516.564L901.854 630.154Z" fill="#F4F4F4"/>
<path d="M890.737 597.388L901.854 630.154C891.822 640.803 884.229 651.725 878.535 663.193" stroke="black" stroke-miterlimit="10" stroke-linecap="round" stroke-linejoin="round"/>
<path d="M965.577 479.702L990.523 558.341" stroke="black" stroke-miterlimit="10" stroke-linecap="round" stroke-linejoin="round"/>
<path d="M1005.44 494.174C1005.44 494.174 1044.48 525.029 1055.6 550.696C1066.72 576.09 1053.97 600.937 1053.97 600.937L1091.39 682.853L1071.33 673.296" stroke="black" stroke-miterlimit="10" stroke-linecap="round" stroke-linejoin="round"/>
<path d="M901.854 494.174L947.138 526.94" stroke="black" stroke-miterlimit="10" stroke-linecap="round" stroke-linejoin="round"/>
<path d="M901.854 630.154L918.666 615.955" stroke="black" stroke-miterlimit="10" stroke-linecap="round" stroke-linejoin="round"/>
<path d="M922.463 592.473C936.021 619.232 984.287 600.664 984.287 600.664C1016.83 588.65 1028.76 599.845 1028.76 599.845" stroke="black" stroke-miterlimit="10" stroke-linecap="round" stroke-linejoin="round"/>
<path d="M802.881 611.04L863.079 516.564L871.213 520.933C879.077 525.302 885.585 531.309 890.195 538.408C901.583 555.884 902.668 579.639 889.381 597.934C888.839 598.753 847.623 647.629 847.623 647.629L875.552 674.935L901.583 683.672C907.006 685.584 919.751 695.96 922.462 700.875C922.462 700.875 915.412 723.265 900.227 733.368C900.227 733.368 854.673 723.811 851.961 701.421C851.961 701.421 824.303 685.311 806.678 675.481C784.443 663.193 783.629 636.434 802.881 611.04Z" fill="#CC7256"/>
<path d="M837.319 652.817C844.64 652.271 847.623 647.356 847.623 647.356C847.623 647.356 849.792 647.629 846.267 656.094" stroke="black" stroke-miterlimit="10" stroke-linecap="round" stroke-linejoin="round"/>
<path d="M905.65 729.272L889.923 720.261" stroke="black" stroke-miterlimit="10" stroke-linecap="round" stroke-linejoin="round"/>
<path d="M913.785 719.715L897.787 710.158" stroke="black" stroke-miterlimit="10" stroke-linecap="round" stroke-linejoin="round"/>
<path d="M918.666 710.431L902.396 697.598" stroke="black" stroke-miterlimit="10" stroke-linecap="round" stroke-linejoin="round"/>
<path d="M897.244 682.034C897.244 682.034 896.431 683.945 901.583 677.665C906.735 671.385 899.414 663.193 899.414 663.193L875.281 674.662L897.244 682.034Z" fill="#CC7256"/>
<path d="M883.958 677.665L904.837 685.037" stroke="black" stroke-miterlimit="10" stroke-linecap="round" stroke-linejoin="round"/>
<path d="M899.414 663.193C900.227 664.286 906.735 672.204 901.583 677.665C896.16 683.126 897.244 682.034 897.244 682.034" stroke="black" stroke-miterlimit="10" stroke-linecap="round" stroke-linejoin="round"/>
<path d="M863.079 516.564L871.214 520.933C879.077 525.302 885.585 531.309 890.195 538.408C901.583 555.884 902.668 579.639 889.381 597.934L872.841 617.867" stroke="black" stroke-miterlimit="10" stroke-linecap="round" stroke-linejoin="round"/>
<path d="M837.318 693.229C837.318 693.229 824.303 685.584 806.677 675.754C784.714 663.466 783.629 636.434 803.152 611.04L827.014 573.359" stroke="black" stroke-miterlimit="10" stroke-linecap="round" stroke-linejoin="round"/>
<path d="M967.475 413.35C965.034 420.723 966.661 428.095 970.729 430.007C974.796 431.918 980.219 427.549 982.389 420.45C984.829 413.077 983.202 405.705 979.135 403.794C975.067 401.609 969.915 405.978 967.475 413.35Z" fill="#99413A"/>
<path d="M894.533 452.124C901.312 455.127 907.82 453.762 909.175 449.12C910.531 444.478 906.193 438.471 899.414 435.468C892.635 432.464 886.127 433.829 884.771 438.471C883.415 443.113 887.754 449.12 894.533 452.124Z" fill="#99413A"/>
<path d="M945.782 467.961C973.712 460.862 976.423 412.258 965.848 388.503C955.273 364.747 930.055 353.825 909.718 364.201C889.381 374.577 881.518 402.155 892.093 425.911C902.939 449.666 918.124 475.06 945.782 467.961Z" fill="#CC7256"/>
<path d="M911.616 351.368C911.616 351.368 961.509 339.899 975.881 379.219C975.881 379.219 971 399.698 936.834 401.336C936.834 401.336 937.105 389.868 928.97 387.957C933.58 394.783 929.784 404.34 922.191 405.705L911.887 407.889C914.328 403.521 912.159 399.425 910.532 395.056L908.633 399.425C905.922 405.705 901.041 410.62 895.076 413.623L880.162 420.723C880.162 420.996 866.062 369.662 911.616 351.368Z" fill="black"/>
<path d="M943.071 430.553L932.767 433.829C932.767 433.829 933.309 439.017 939.003 438.198C944.426 437.652 943.071 430.553 943.071 430.553Z" fill="#99413A"/>
<path d="M951.205 437.379C951.205 437.379 943.07 443.659 929.512 443.932C929.512 443.932 935.207 456.493 944.155 454.308C953.374 452.124 951.205 437.379 951.205 437.379Z" fill="#B2221B"/>
<path d="M957.713 405.705C957.713 405.705 941.715 398.879 943.341 412.531C946.324 409.801 951.205 406.524 957.713 405.705Z" fill="black"/>
<path d="M908.091 417.992C908.091 417.992 919.751 405.978 923.818 417.446C919.751 416.081 914.328 416.354 908.091 417.992Z" fill="black"/>
<path d="M913.785 425.092C914.87 426.457 916.497 426.457 917.853 426.184C918.124 425.092 918.937 424.272 919.751 423.999C921.378 423.726 923.276 425.092 923.818 427.549C924.36 429.734 923.547 432.191 921.92 432.464C920.293 432.737 918.395 431.372 917.853 428.914C917.853 428.641 917.853 428.641 917.853 428.368C914.327 428.368 913.785 425.092 913.785 425.092Z" fill="black"/>
<path d="M955.273 412.531C955.002 414.17 953.646 415.262 952.561 415.535C951.748 414.716 950.663 414.443 949.85 414.716C948.223 415.262 947.68 417.446 948.223 419.904C949.036 422.088 950.934 423.453 952.561 422.907C954.188 422.361 954.731 420.177 954.188 417.719C954.188 417.446 954.188 417.446 953.917 417.173C956.629 415.535 955.273 412.531 955.273 412.531Z" fill="black"/>
<path d="M426.513 526.394L319.134 505.369L231.008 426.184L210.129 390.96L206.332 391.779C202.265 392.598 199.282 396.148 199.011 400.517L200.909 414.17L176.234 413.077C169.455 413.077 163.76 417.719 162.405 424.272L157.253 448.301L214.196 477.518L275.749 552.334C284.697 562.983 301.78 571.721 315.338 574.997L382.314 590.834L426.513 526.394Z" fill="#FFAB97"/>
<path d="M358.452 517.383C358.452 517.383 319.405 542.231 322.117 576.909L355.469 585.646L358.452 517.383Z" fill="black"/>
<path d="M316.423 521.206L319.134 505.369L305.848 517.383" stroke="black" stroke-miterlimit="10" stroke-linecap="round" stroke-linejoin="round"/>
<path d="M162.133 424.272H183.013" stroke="black" stroke-miterlimit="10" stroke-linecap="round" stroke-linejoin="round"/>
<path d="M160.506 432.464L175.962 435.468" stroke="black" stroke-miterlimit="10" stroke-linecap="round" stroke-linejoin="round"/>
<path d="M158.608 441.202L175.962 448.301" stroke="black" stroke-miterlimit="10" stroke-linecap="round" stroke-linejoin="round"/>
<path d="M214.196 477.518C214.196 477.518 226.127 477.518 226.398 465.776C226.398 465.776 228.025 479.975 223.144 487.894L214.196 477.518Z" fill="black"/>
<path d="M231.008 449.12C237.787 444.478 231.008 426.184 231.008 426.184L210.128 390.96C210.128 390.96 197.926 392.871 199.011 400.517C200.096 408.162 200.909 414.17 200.909 414.17L202.265 427.003C202.265 427.003 188.165 442.021 196.299 450.485" stroke="black" stroke-miterlimit="10" stroke-linecap="round" stroke-linejoin="round"/>
<path d="M589.208 626.058L682.758 748.386L798 781.425L838.674 778.694V787.432C838.674 790.982 836.776 794.531 834.065 796.443L813.728 804.907L826.201 829.209C833.793 840.404 828.913 855.968 816.439 860.883L793.662 869.621L757.598 816.103L652.388 809.003C638.83 806.819 626.357 800.539 616.595 790.982L545.552 721.08L589.208 626.058Z" fill="#FFAB97"/>
<path d="M641.542 694.594C641.542 694.594 643.711 758.762 608.19 783.063L600.597 775.691L626.357 674.934L641.542 694.594Z" fill="black"/>
<path d="M678.149 766.68L682.758 748.386L665.946 762.038" stroke="black" stroke-miterlimit="10" stroke-linecap="round" stroke-linejoin="round"/>
<path d="M811.558 829.209L825.659 853.784" stroke="black" stroke-miterlimit="10" stroke-linecap="round" stroke-linejoin="round"/>
<path d="M816.168 860.883L804.509 841.496" stroke="black" stroke-miterlimit="10" stroke-linecap="round" stroke-linejoin="round"/>
<path d="M804.508 865.525L788.239 841.496" stroke="black" stroke-miterlimit="10" stroke-linecap="round" stroke-linejoin="round"/>
<path d="M757.327 816.103C757.327 816.103 754.344 804.361 759.225 801.358C759.225 801.358 744.854 804.088 744.04 815.283L757.327 816.103Z" fill="black"/>
<path d="M838.674 778.694C840.573 795.624 834.065 796.443 834.065 796.443L813.728 804.907H802.61C802.61 804.907 796.645 819.379 783.358 810.368" stroke="black" stroke-miterlimit="10" stroke-linecap="round" stroke-linejoin="round"/>
<path d="M757.327 816.103L652.117 809.003" stroke="black" stroke-miterlimit="10" stroke-linecap="round" stroke-linejoin="round"/>
<path d="M441.698 1118.1L490.506 1187.18L451.188 1225.41H353.3C353.3 1225.41 349.504 1180.63 382.585 1180.63C415.666 1180.63 409.159 1180.63 409.159 1180.63L383.67 1134.75L441.698 1118.1Z" fill="#FFAB97"/>
<path d="M383.399 1134.75L404.549 1172.98C447.121 1181.45 466.645 1153.87 466.645 1153.87L441.427 1118.1L383.399 1134.75Z" fill="black"/>
<path d="M441.698 768.865L323.744 945.529L451.73 1132.84C451.73 1132.84 433.834 1178.44 380.416 1159.06L237.515 1003.14C222.872 987.033 208.772 969.285 220.703 943.618L321.845 710.704L441.698 768.865Z" fill="#5B93BC"/>
<path d="M388.279 778.694L294.459 937.338H309.101L289.307 947.987L309.101 945.256L295.814 958.09H311.813L440.071 1149.77" stroke="black" stroke-miterlimit="10" stroke-linecap="round" stroke-linejoin="round"/>
<path d="M386.11 741.832L323.744 945.529L441.698 768.864L386.11 741.832Z" fill="black"/>
<path d="M437.902 1109.91C436.546 1123.01 426.513 1147.59 368.485 1149.5C366.316 1149.5 365.231 1152.23 366.858 1153.6L388.008 1173.8C388.28 1174.07 388.551 1174.07 388.551 1174.35C392.889 1176.26 433.021 1193.19 460.408 1137.76C460.679 1136.94 460.679 1136.12 460.137 1135.3L441.969 1108.81C440.884 1106.9 437.902 1107.72 437.902 1109.91Z" fill="#9FAAAA"/>
<path d="M353.3 1225.41H451.188L490.506 1187.18C491.591 1175.99 485.626 1168.89 474.237 1164.24C474.237 1164.24 480.202 1194.01 444.138 1183.36L432.478 1182.27C432.478 1182.27 428.14 1168.07 413.497 1169.43C409.701 1169.71 406.447 1170.52 404.007 1171.89C396.686 1175.17 393.974 1180.9 393.974 1180.9H382.585C349.233 1180.9 353.3 1225.41 353.3 1225.41Z" fill="#06262D"/>
<path d="M353.3 1225.41H451.189L490.507 1187.18C490.778 1183.63 490.507 1180.35 489.422 1177.62L444.681 1215.58H353.3C353.3 1216.67 353.029 1217.76 353.029 1218.58C353.029 1219.13 353.029 1219.4 353.029 1219.95C353.029 1223.5 353.3 1225.41 353.3 1225.41Z" fill="#9FAAAA"/>
<path d="M353.3 1215.58H418.649C418.649 1215.58 422.174 1180.63 393.703 1180.63H382.314C359.265 1180.9 354.113 1202.47 353.3 1215.58Z" fill="#9FAAAA"/>
<path d="M441.698 1164.24L420.547 1136.94" stroke="black" stroke-miterlimit="10" stroke-linecap="round" stroke-linejoin="round"/>
<path d="M490.506 1187.45L450.917 1225.41H353.3" stroke="black" stroke-miterlimit="10" stroke-linecap="round" stroke-linejoin="round"/>
<path d="M489.422 1177.9L444.681 1215.58H432.479" stroke="black" stroke-miterlimit="10" stroke-linecap="round" stroke-linejoin="round"/>
<path d="M353.3 1215.58H377.976" stroke="black" stroke-miterlimit="10" stroke-linecap="round" stroke-linejoin="round"/>
<path d="M393.703 1180.9C393.703 1180.9 414.04 1181.72 417.565 1188.55" stroke="white" stroke-width="0.5" stroke-miterlimit="10" stroke-linecap="round" stroke-linejoin="round"/>
<path d="M423.53 1184.72C423.53 1184.72 417.836 1178.99 397.499 1181.17" stroke="white" stroke-width="0.5" stroke-miterlimit="10" stroke-linecap="round" stroke-linejoin="round"/>
<path d="M401.838 1180.9C401.838 1180.9 422.446 1177.08 418.649 1167.79C414.582 1158.51 401.838 1180.9 401.838 1180.9Z" stroke="white" stroke-width="0.5" stroke-miterlimit="10" stroke-linecap="round" stroke-linejoin="round"/>
<path d="M401.837 1180.9C401.837 1180.9 399.939 1159.88 390.449 1162.88C380.958 1165.88 401.837 1180.9 401.837 1180.9Z" stroke="white" stroke-width="0.5" stroke-miterlimit="10" stroke-linecap="round" stroke-linejoin="round"/>
<path d="M562.906 1118.1L621.477 1201.11L572.397 1225.41H474.509C474.509 1225.41 470.712 1180.63 503.794 1180.63C536.875 1180.63 530.367 1180.63 530.367 1180.63L504.878 1134.75L562.906 1118.1Z" fill="#FFAB97"/>
<path d="M504.607 1134.75L526.029 1173.8C577.549 1176.8 582.43 1145.95 582.43 1145.95L562.906 1118.1L504.607 1134.75Z" fill="black"/>
<path d="M509.759 746.747L445.223 945.529L563.177 1118.1C563.177 1118.1 555.314 1178.44 501.624 1159.06L358.724 1003.14C344.081 987.033 337.844 964.916 341.912 943.618L389.907 688.314L509.759 746.747Z" fill="#82B1DB"/>
<path d="M483.457 827.298C483.457 827.298 418.921 814.464 372.01 783.063L492.405 799.719L483.457 827.298Z" fill="black"/>
<path d="M553.958 1143.22L426.513 979.388L432.208 964.916L414.311 976.111L426.513 952.902H404.278L432.208 937.338H421.633L462.577 805.181" stroke="black" stroke-miterlimit="10" stroke-linecap="round" stroke-linejoin="round"/>
<path d="M552.602 1096.8C548.535 1108 533.079 1138.58 487.795 1148.68C485.897 1149.23 485.355 1151.41 486.71 1152.78L508.674 1173.8C508.945 1174.07 509.217 1174.35 509.759 1174.35C515.724 1175.99 568.6 1189.09 578.633 1124.65C578.633 1124.11 578.633 1123.29 578.091 1122.74L557.212 1095.98C555.585 1094.89 553.416 1095.16 552.602 1096.8Z" fill="#CAD9DB"/>
<path d="M474.238 1225.41H572.126L621.206 1201.11C619.036 1185.82 610.088 1175.17 597.344 1167.52C595.988 1193.73 567.245 1180.9 567.245 1180.9H558.297C529.825 1151.14 518.165 1180.9 518.165 1180.9H503.251C470.441 1180.9 474.238 1225.41 474.238 1225.41Z" fill="#06262D"/>
<path d="M474.238 1225.41H572.126L621.206 1201.11C620.663 1198.1 620.121 1195.37 619.307 1192.64L570.77 1214.21H474.509C474.238 1215.58 474.238 1216.94 474.238 1218.04C474.238 1218.58 474.238 1219.13 474.238 1219.67C474.238 1223.22 474.238 1225.41 474.238 1225.41Z" fill="#CAD9DB"/>
<path d="M474.509 1214.21H553.958C553.958 1214.21 547.45 1180.63 518.436 1180.63C509.759 1180.63 502.438 1180.63 496.201 1181.45C479.932 1185.54 475.593 1202.47 474.509 1214.21Z" fill="#CAD9DB"/>
<path d="M449.02 848.596C449.02 848.596 438.444 843.135 446.037 806.819" stroke="black" stroke-miterlimit="10" stroke-linecap="round" stroke-linejoin="round"/>
<path d="M573.752 1143.22L545.281 1111.27" stroke="black" stroke-miterlimit="10" stroke-linecap="round" stroke-linejoin="round"/>
<path d="M518.436 1180.9C518.436 1180.9 536.333 1178.99 547.993 1190.18" stroke="white" stroke-width="0.5" stroke-miterlimit="10" stroke-linecap="round" stroke-linejoin="round"/>
<path d="M552.331 1185.27C552.331 1185.27 546.366 1180.63 522.504 1180.63" stroke="white" stroke-width="0.5" stroke-miterlimit="10" stroke-linecap="round" stroke-linejoin="round"/>
<path d="M534.706 1182.54C534.706 1182.54 565.618 1167.25 553.958 1151.96C542.027 1136.94 534.706 1182.54 534.706 1182.54Z" stroke="white" stroke-width="0.5" stroke-miterlimit="10" stroke-linecap="round" stroke-linejoin="round"/>
<path d="M534.706 1182.54C534.706 1182.54 533.892 1162.33 519.521 1161.79C505.42 1160.97 534.706 1182.54 534.706 1182.54Z" stroke="white" stroke-width="0.5" stroke-miterlimit="10" stroke-linecap="round" stroke-linejoin="round"/>
<path d="M621.206 1201.11L572.126 1225.41H474.238" stroke="black" stroke-miterlimit="10" stroke-linecap="round" stroke-linejoin="round"/>
<path d="M619.307 1192.64L570.77 1214.21H527.655" stroke="black" stroke-miterlimit="10" stroke-linecap="round" stroke-linejoin="round"/>
<path d="M592.462 1180.63C592.462 1180.63 583.514 1187.45 567.516 1180.9" stroke="black" stroke-miterlimit="10" stroke-linecap="round" stroke-linejoin="round"/>
<path d="M474.508 1214.21H485.897" stroke="black" stroke-miterlimit="10" stroke-linecap="round" stroke-linejoin="round"/>
<path d="M426.513 526.394L479.389 537.589L487.524 507.826L547.721 505.369L533.621 553.153L589.208 626.058L509.488 799.719C509.488 799.719 308.017 810.095 300.696 711.25L426.513 526.394Z" fill="#FFAB97"/>
<path d="M482.101 528.032C501.082 562.983 529.282 554.518 533.35 553.153C533.621 553.153 533.892 552.88 533.892 552.88L547.992 505.096L487.795 507.553L482.101 528.032Z" fill="black"/>
<path d="M300.696 710.977C308.017 809.822 509.488 799.446 509.488 799.446L589.208 626.058L533.892 553.153C533.892 553.153 513.555 595.749 483.185 585.373C441.156 570.902 479.389 537.589 479.389 537.589L426.513 526.394L300.696 710.977Z" fill="#F4F4F4"/>
<path d="M589.208 626.058L641.542 694.594C632.594 736.371 610.901 768.864 582.429 793.712L531.994 750.57L589.208 626.058Z" fill="#A3C4C9"/>
<path d="M426.513 526.394L358.452 513.287C358.452 513.287 314.525 564.348 340.285 617.867H363.875L426.513 526.394Z" fill="#A3C4C9"/>
<path d="M562.906 683.126L509.487 799.446" stroke="black" stroke-miterlimit="10" stroke-linecap="round" stroke-linejoin="round"/>
<path d="M557.754 719.715L531.723 750.57L582.429 793.712" stroke="black" stroke-miterlimit="10" stroke-linecap="round" stroke-linejoin="round"/>
<path d="M327.269 671.658L392.889 575.817" stroke="black" stroke-miterlimit="10" stroke-linecap="round" stroke-linejoin="round"/>
<path d="M482.101 766.68C482.101 766.68 355.469 780.06 327.54 700.601" stroke="black" stroke-miterlimit="10" stroke-linecap="round" stroke-linejoin="round"/>
<path d="M364.147 617.867L369.027 585.373" stroke="black" stroke-miterlimit="10" stroke-linecap="round" stroke-linejoin="round"/>
<path d="M444.952 530.217L358.723 513.287" stroke="black" stroke-miterlimit="10" stroke-linecap="round" stroke-linejoin="round"/>
<path d="M479.389 537.589C479.389 537.589 445.494 570.356 479.118 583.735" stroke="black" stroke-miterlimit="10" stroke-linecap="round" stroke-linejoin="round"/>
<path d="M514.911 577.728C526.571 570.629 533.621 553.153 533.621 553.153L641.271 694.594" stroke="black" stroke-miterlimit="10" stroke-linecap="round" stroke-linejoin="round"/>
<path d="M553.144 491.716C549.077 498.816 549.077 507.007 553.144 510.011C557.212 513.015 563.991 509.465 568.329 502.365C572.397 495.266 572.397 487.075 568.329 484.071C563.991 481.067 557.212 484.617 553.144 491.716Z" fill="#FF8A69"/>
<path d="M463.933 517.11C470.712 521.479 478.304 521.479 480.745 516.837C483.185 512.195 479.66 505.096 472.881 500.454C466.102 496.085 458.51 496.085 456.069 500.727C453.629 505.369 457.154 512.741 463.933 517.11Z" fill="#FF8A69"/>
<path d="M559.652 450.759C559.652 450.759 575.65 470.145 564.804 483.252C564.804 483.252 557.754 482.979 556.127 499.089L474.779 513.834C474.779 513.834 468.271 496.358 461.492 497.45C461.492 497.45 450.917 477.518 463.933 469.326C476.948 461.135 559.652 450.759 559.652 450.759Z" fill="#67160D"/>
<path d="M517.08 544.689C549.619 543.05 563.177 492.536 556.669 465.23C550.161 438.198 524.672 421.542 499.726 428.095C475.05 434.648 460.408 462.227 466.916 489.259C473.695 516.564 485.083 546.054 517.08 544.689Z" fill="#FFAB97"/>
<path d="M574.566 426.184C574.566 426.184 580.531 471.511 542.298 471.784C522.503 471.784 509.488 469.326 509.488 469.326L515.182 475.606C515.182 475.606 491.049 484.071 477.491 473.695C477.491 473.695 479.118 491.17 468 491.443C468 491.443 445.223 476.972 449.562 455.947C451.46 447.209 462.848 443.113 462.848 443.113C462.848 443.113 463.12 422.634 481.558 419.904C499.997 417.446 559.652 406.797 559.652 406.797C559.652 406.797 567.787 422.634 560.466 426.73L574.566 426.184Z" fill="#996352"/>
<path d="M523.317 509.738L513.013 511.649C513.013 511.649 514.64 518.749 520.063 517.656C525.486 516.564 523.317 509.738 523.317 509.738Z" fill="#FF8A69"/>
<path d="M528.469 520.933C528.469 520.933 520.605 523.664 507.861 523.664C507.861 523.664 509.759 536.224 520.063 534.586C530.367 532.947 528.469 520.933 528.469 520.933Z" fill="#B2221B"/>
<path d="M530.638 497.177C530.909 499.635 532.536 501.546 534.434 501.546C536.332 501.273 537.417 499.089 537.146 496.631C536.875 494.174 535.248 492.262 533.35 492.262C531.723 492.536 530.367 494.72 530.638 497.177Z" fill="black"/>
<path d="M497.828 504.004C498.099 506.461 499.726 508.373 501.624 508.373C503.522 508.1 504.607 505.915 504.336 503.458C504.065 501 502.438 499.089 500.539 499.089C498.913 499.089 497.557 501.273 497.828 504.004Z" fill="black"/>
<path d="M541.213 482.706C541.213 482.706 532.265 476.425 529.282 487.348L541.213 482.706Z" fill="#C42D0A"/>
<path d="M505.149 489.805C505.149 489.805 496.743 482.433 492.676 491.17L505.149 489.805Z" fill="#C42D0A"/>
<path d="M462.577 443.113L479.389 450.759C479.389 450.759 484.812 454.854 497.286 449.12L486.71 447.482C486.71 447.482 489.693 441.475 500.811 439.29C500.811 439.29 486.439 434.648 478.304 439.29V432.191C478.033 432.191 466.102 431.372 462.577 443.113Z" fill="#996352"/>
</g>
<defs>
<clipPath id="clip0_629_295">
<rect width="1038" height="966.605" fill="white" transform="matrix(-1 0 0 1 1195.25 262.899)"/>
</clipPath>
</defs>
</svg>
