<svg width="1275" height="232" viewBox="0 0 1275 232" fill="none" xmlns="http://www.w3.org/2000/svg">
<g filter="url(#filter0_d_1205_22)">
<g clip-path="url(#clip0_1205_22)">
<g clip-path="url(#clip1_1205_22)">
<path d="M1271 -212H4V501H1271V-212Z" fill="#001220"/>
<path d="M1271 429.7C1181.06 427.059 1091.05 424.485 1025.52 380.846C960.057 337.274 919.011 252.638 872.027 187.148C825.108 121.592 772.251 75.1806 730.809 11.8688C689.434 -51.509 659.54 -131.721 629.581 -212H1271V429.7Z" fill="#0C1C30"/>
<path d="M1271 349.487C1192.27 347.177 1113.55 344.932 1056.2 306.773C998.925 268.615 962.96 194.542 921.915 137.238C880.803 79.9339 834.611 39.2665 798.382 -16.1231C762.154 -71.5786 735.956 -141.756 709.758 -212H1271V349.487Z" fill="#312C4F"/>
<path d="M1271 269.275C1203.49 267.294 1136.05 265.314 1086.89 232.635C1037.79 199.956 1006.98 136.512 971.803 87.3279C936.564 38.2102 896.905 3.41842 865.89 -44.1149C834.808 -91.6482 812.372 -151.791 789.936 -212H1271V269.275Z" fill="#623965"/>
<path d="M1271 189.062C1214.78 187.412 1158.55 185.762 1117.57 158.562C1076.66 131.296 1050.99 78.4154 1021.63 37.484C992.326 -3.51353 959.265 -32.4957 933.397 -72.1068C907.529 -111.718 888.788 -161.826 870.113 -212H1271V189.062Z" fill="#96446E"/>
<path d="M1271 108.85C1226 107.53 1181.06 106.209 1148.26 84.4232C1115.53 62.6371 1095.01 20.3192 1071.51 -12.426C1048.02 -45.1712 1021.63 -68.4097 1000.9 -100.099C980.25 -131.721 965.27 -171.861 950.291 -212H1271V108.85Z" fill="#C55469"/>
<path d="M1271 28.6375C1237.28 27.6472 1203.49 26.6569 1178.94 10.3504C1154.4 -6.02224 1139.02 -37.7771 1121.4 -62.336C1103.78 -86.8949 1083.99 -104.324 1068.41 -128.09C1052.9 -151.791 1041.69 -181.896 1030.47 -212H1271V28.6375Z" fill="#E9705A"/>
<path d="M4 -140.7C81.8677 -124.393 159.669 -108.153 245.654 -82.7357C331.638 -57.2525 425.805 -22.6588 457.546 47.2548C489.287 117.168 458.602 222.402 479.521 303.935C500.44 385.468 572.962 443.234 645.419 501H4V-140.7Z" fill="#0C1C30"/>
<path d="M4 -60.4874C72.1012 -46.2274 140.202 -31.9674 215.431 -9.71917C290.725 12.5291 373.08 42.7655 400.861 103.965C428.643 165.164 401.785 257.26 420.064 328.56C438.409 399.926 501.825 450.43 565.241 501H4V-60.4874Z" fill="#312C4F"/>
<path d="M4 19.7251C62.4008 31.9385 120.736 44.152 185.273 63.2313C249.745 82.3107 320.354 108.256 344.176 160.675C367.999 213.159 344.968 292.051 360.674 353.185C376.313 414.318 430.689 457.692 485.064 501H4V19.7251Z" fill="#623965"/>
<path d="M4 99.9375C52.6343 110.104 101.269 120.271 155.05 136.182C208.766 152.092 267.628 173.68 287.491 217.384C307.288 261.089 288.151 326.909 301.217 377.809C314.283 428.776 359.552 464.888 404.887 501H4V99.9375Z" fill="#96446E"/>
<path d="M4 180.15C42.9339 188.27 81.8677 196.457 124.827 209.132C167.852 221.874 214.903 239.171 230.806 274.094C246.644 309.084 231.334 361.701 241.76 402.5C252.253 443.234 288.481 472.084 324.709 501H4V180.15Z" fill="#C55469"/>
</g>
<path d="M899.671 176.608V180.974H883.983V176.608H899.671ZM921.317 187.079H911.031L909.329 192H903.89L913.177 166.137H919.208L928.495 192H923.019L921.317 187.079ZM919.911 182.935L916.174 172.131L912.437 182.935H919.911ZM943.325 171.206C945.767 171.206 947.74 171.983 949.245 173.537C950.75 175.066 951.502 177.212 951.502 179.975V192H946.322V180.678C946.322 179.05 945.915 177.804 945.101 176.941C944.287 176.053 943.177 175.609 941.771 175.609C940.34 175.609 939.206 176.053 938.367 176.941C937.553 177.804 937.146 179.05 937.146 180.678V192H931.966V171.502H937.146V174.055C937.837 173.167 938.712 172.476 939.773 171.983C940.858 171.465 942.042 171.206 943.325 171.206ZM965.53 192.333C963.557 192.333 961.781 191.901 960.202 191.038C958.623 190.15 957.378 188.904 956.465 187.301C955.577 185.698 955.133 183.848 955.133 181.751C955.133 179.654 955.589 177.804 956.502 176.201C957.439 174.598 958.71 173.364 960.313 172.501C961.916 171.613 963.705 171.169 965.678 171.169C967.651 171.169 969.44 171.613 971.043 172.501C972.646 173.364 973.904 174.598 974.817 176.201C975.754 177.804 976.223 179.654 976.223 181.751C976.223 183.848 975.742 185.698 974.78 187.301C973.843 188.904 972.56 190.15 970.932 191.038C969.329 191.901 967.528 192.333 965.53 192.333ZM965.53 187.819C966.467 187.819 967.343 187.597 968.157 187.153C968.996 186.684 969.662 185.994 970.155 185.081C970.648 184.168 970.895 183.058 970.895 181.751C970.895 179.802 970.377 178.31 969.341 177.274C968.33 176.213 967.084 175.683 965.604 175.683C964.124 175.683 962.878 176.213 961.867 177.274C960.88 178.31 960.387 179.802 960.387 181.751C960.387 183.7 960.868 185.204 961.83 186.265C962.817 187.301 964.05 187.819 965.53 187.819ZM991.382 171.206C993.824 171.206 995.797 171.983 997.302 173.537C998.806 175.066 999.559 177.212 999.559 179.975V192H994.379V180.678C994.379 179.05 993.972 177.804 993.158 176.941C992.344 176.053 991.234 175.609 989.828 175.609C988.397 175.609 987.262 176.053 986.424 176.941C985.61 177.804 985.203 179.05 985.203 180.678V192H980.023V171.502H985.203V174.055C985.893 173.167 986.769 172.476 987.83 171.983C988.915 171.465 990.099 171.206 991.382 171.206ZM1007.11 169.06C1006.2 169.06 1005.43 168.776 1004.82 168.209C1004.23 167.617 1003.93 166.889 1003.93 166.026C1003.93 165.163 1004.23 164.447 1004.82 163.88C1005.43 163.288 1006.2 162.992 1007.11 162.992C1008.02 162.992 1008.78 163.288 1009.37 163.88C1009.99 164.447 1010.29 165.163 1010.29 166.026C1010.29 166.889 1009.99 167.617 1009.37 168.209C1008.78 168.776 1008.02 169.06 1007.11 169.06ZM1009.66 171.502V192H1004.48V171.502H1009.66ZM1040.24 171.206C1042.75 171.206 1044.78 171.983 1046.31 173.537C1047.86 175.066 1048.64 177.212 1048.64 179.975V192H1043.46V180.678C1043.46 179.075 1043.05 177.854 1042.24 177.015C1041.42 176.152 1040.31 175.72 1038.91 175.72C1037.5 175.72 1036.38 176.152 1035.54 177.015C1034.73 177.854 1034.32 179.075 1034.32 180.678V192H1029.14V180.678C1029.14 179.075 1028.73 177.854 1027.92 177.015C1027.1 176.152 1025.99 175.72 1024.59 175.72C1023.16 175.72 1022.02 176.152 1021.18 177.015C1020.37 177.854 1019.96 179.075 1019.96 180.678V192H1014.78V171.502H1019.96V173.981C1020.63 173.118 1021.48 172.439 1022.52 171.946C1023.58 171.453 1024.74 171.206 1025.99 171.206C1027.6 171.206 1029.03 171.551 1030.29 172.242C1031.54 172.908 1032.52 173.87 1033.21 175.128C1033.87 173.944 1034.84 172.994 1036.09 172.279C1037.38 171.564 1038.76 171.206 1040.24 171.206Z" fill="white"/>
<path d="M256.051 64.498H250.575L254.571 55.174H258.16L256.051 64.498ZM263.525 64.498H258.049L262.045 55.174H265.634L263.525 64.498ZM278.642 55.174C281.355 55.174 283.735 55.7043 285.783 56.765C287.855 57.8257 289.446 59.3427 290.556 61.316C291.69 63.2647 292.258 65.534 292.258 68.124C292.258 70.714 291.69 72.9833 290.556 74.932C289.446 76.856 287.855 78.3483 285.783 79.409C283.735 80.4697 281.355 81 278.642 81H269.614V55.174H278.642ZM278.457 76.597C281.17 76.597 283.267 75.857 284.747 74.377C286.227 72.897 286.967 70.8127 286.967 68.124C286.967 65.4353 286.227 63.3387 284.747 61.834C283.267 60.3047 281.17 59.54 278.457 59.54H274.794V76.597H278.457ZM315.19 70.307C315.19 71.047 315.141 71.713 315.042 72.305H300.057C300.18 73.785 300.698 74.9443 301.611 75.783C302.524 76.6217 303.646 77.041 304.978 77.041C306.902 77.041 308.271 76.2147 309.085 74.562H314.672C314.08 76.5353 312.945 78.1633 311.268 79.446C309.591 80.704 307.531 81.333 305.089 81.333C303.116 81.333 301.34 80.9013 299.761 80.038C298.207 79.15 296.986 77.9043 296.098 76.301C295.235 74.6977 294.803 72.8477 294.803 70.751C294.803 68.6297 295.235 66.7673 296.098 65.164C296.961 63.5607 298.17 62.3273 299.724 61.464C301.278 60.6007 303.066 60.169 305.089 60.169C307.038 60.169 308.777 60.5883 310.306 61.427C311.86 62.2657 313.056 63.462 313.895 65.016C314.758 66.5453 315.19 68.309 315.19 70.307ZM309.825 68.827C309.8 67.495 309.319 66.4343 308.382 65.645C307.445 64.831 306.298 64.424 304.941 64.424C303.658 64.424 302.573 64.8187 301.685 65.608C300.822 66.3727 300.291 67.4457 300.094 68.827H309.825ZM330.33 60.206C332.772 60.206 334.745 60.983 336.25 62.537C337.755 64.0663 338.507 66.2123 338.507 68.975V81H333.327V69.678C333.327 68.05 332.92 66.8043 332.106 65.941C331.292 65.053 330.182 64.609 328.776 64.609C327.345 64.609 326.211 65.053 325.372 65.941C324.558 66.8043 324.151 68.05 324.151 69.678V81H318.971V60.502H324.151V63.055C324.842 62.167 325.717 61.4763 326.778 60.983C327.863 60.465 329.047 60.206 330.33 60.206ZM351.462 60.169C352.991 60.169 354.336 60.4773 355.495 61.094C356.654 61.686 357.567 62.463 358.233 63.425V60.502H363.45V81.148C363.45 83.0473 363.068 84.737 362.303 86.217C361.538 87.7217 360.391 88.9057 358.862 89.769C357.333 90.657 355.483 91.101 353.312 91.101C350.401 91.101 348.009 90.4227 346.134 89.066C344.284 87.7093 343.236 85.8593 342.989 83.516H348.132C348.403 84.4533 348.983 85.1933 349.871 85.736C350.784 86.3033 351.881 86.587 353.164 86.587C354.669 86.587 355.89 86.1307 356.827 85.218C357.764 84.33 358.233 82.9733 358.233 81.148V77.966C357.567 78.928 356.642 79.7297 355.458 80.371C354.299 81.0123 352.967 81.333 351.462 81.333C349.735 81.333 348.157 80.889 346.726 80.001C345.295 79.113 344.161 77.8673 343.322 76.264C342.508 74.636 342.101 72.7737 342.101 70.677C342.101 68.605 342.508 66.7673 343.322 65.164C344.161 63.5607 345.283 62.3273 346.689 61.464C348.12 60.6007 349.711 60.169 351.462 60.169ZM358.233 70.751C358.233 69.493 357.986 68.42 357.493 67.532C357 66.6193 356.334 65.9287 355.495 65.46C354.656 64.9667 353.756 64.72 352.794 64.72C351.832 64.72 350.944 64.9543 350.13 65.423C349.316 65.8917 348.65 66.5823 348.132 67.495C347.639 68.383 347.392 69.4437 347.392 70.677C347.392 71.9103 347.639 72.9957 348.132 73.933C348.65 74.8457 349.316 75.5487 350.13 76.042C350.969 76.5353 351.857 76.782 352.794 76.782C353.756 76.782 354.656 76.5477 355.495 76.079C356.334 75.5857 357 74.895 357.493 74.007C357.986 73.0943 358.233 72.009 358.233 70.751ZM367.177 70.677C367.177 68.605 367.584 66.7673 368.398 65.164C369.237 63.5607 370.359 62.3273 371.765 61.464C373.196 60.6007 374.787 60.169 376.538 60.169C378.067 60.169 379.399 60.4773 380.534 61.094C381.693 61.7107 382.618 62.4877 383.309 63.425V60.502H388.526V81H383.309V78.003C382.643 78.965 381.718 79.7667 380.534 80.408C379.375 81.0247 378.03 81.333 376.501 81.333C374.774 81.333 373.196 80.889 371.765 80.001C370.359 79.113 369.237 77.8673 368.398 76.264C367.584 74.636 367.177 72.7737 367.177 70.677ZM383.309 70.751C383.309 69.493 383.062 68.42 382.569 67.532C382.076 66.6193 381.41 65.9287 380.571 65.46C379.732 64.9667 378.832 64.72 377.87 64.72C376.908 64.72 376.02 64.9543 375.206 65.423C374.392 65.8917 373.726 66.5823 373.208 67.495C372.715 68.383 372.468 69.4437 372.468 70.677C372.468 71.9103 372.715 72.9957 373.208 73.933C373.726 74.8457 374.392 75.5487 375.206 76.042C376.045 76.5353 376.933 76.782 377.87 76.782C378.832 76.782 379.732 76.5477 380.571 76.079C381.41 75.5857 382.076 74.895 382.569 74.007C383.062 73.0943 383.309 72.009 383.309 70.751ZM404.944 60.206C407.386 60.206 409.36 60.983 410.864 62.537C412.369 64.0663 413.121 66.2123 413.121 68.975V81H407.941V69.678C407.941 68.05 407.534 66.8043 406.72 65.941C405.906 65.053 404.796 64.609 403.39 64.609C401.96 64.609 400.825 65.053 399.986 65.941C399.172 66.8043 398.765 68.05 398.765 69.678V81H393.585V60.502H398.765V63.055C399.456 62.167 400.332 61.4763 401.392 60.983C402.478 60.465 403.662 60.206 404.944 60.206ZM452.32 60.206C454.836 60.206 456.858 60.983 458.388 62.537C459.942 64.0663 460.719 66.2123 460.719 68.975V81H455.539V69.678C455.539 68.0747 455.132 66.8537 454.318 66.015C453.504 65.1517 452.394 64.72 450.988 64.72C449.582 64.72 448.459 65.1517 447.621 66.015C446.807 66.8537 446.4 68.0747 446.4 69.678V81H441.22V69.678C441.22 68.0747 440.813 66.8537 439.999 66.015C439.185 65.1517 438.075 64.72 436.669 64.72C435.238 64.72 434.103 65.1517 433.265 66.015C432.451 66.8537 432.044 68.0747 432.044 69.678V81H426.864V60.502H432.044V62.981C432.71 62.1177 433.561 61.4393 434.597 60.946C435.657 60.4527 436.817 60.206 438.075 60.206C439.678 60.206 441.109 60.5513 442.367 61.242C443.625 61.908 444.599 62.87 445.29 64.128C445.956 62.944 446.918 61.9943 448.176 61.279C449.458 60.5637 450.84 60.206 452.32 60.206ZM484.689 70.307C484.689 71.047 484.64 71.713 484.541 72.305H469.556C469.679 73.785 470.197 74.9443 471.11 75.783C472.023 76.6217 473.145 77.041 474.477 77.041C476.401 77.041 477.77 76.2147 478.584 74.562H484.171C483.579 76.5353 482.444 78.1633 480.767 79.446C479.09 80.704 477.03 81.333 474.588 81.333C472.615 81.333 470.839 80.9013 469.26 80.038C467.706 79.15 466.485 77.9043 465.597 76.301C464.734 74.6977 464.302 72.8477 464.302 70.751C464.302 68.6297 464.734 66.7673 465.597 65.164C466.46 63.5607 467.669 62.3273 469.223 61.464C470.777 60.6007 472.565 60.169 474.588 60.169C476.537 60.169 478.276 60.5883 479.805 61.427C481.359 62.2657 482.555 63.462 483.394 65.016C484.257 66.5453 484.689 68.309 484.689 70.307ZM479.324 68.827C479.299 67.495 478.818 66.4343 477.881 65.645C476.944 64.831 475.797 64.424 474.44 64.424C473.157 64.424 472.072 64.8187 471.184 65.608C470.321 66.3727 469.79 67.4457 469.593 68.827H479.324ZM513.926 60.206C516.442 60.206 518.465 60.983 519.994 62.537C521.548 64.0663 522.325 66.2123 522.325 68.975V81H517.145V69.678C517.145 68.0747 516.738 66.8537 515.924 66.015C515.11 65.1517 514 64.72 512.594 64.72C511.188 64.72 510.066 65.1517 509.227 66.015C508.413 66.8537 508.006 68.0747 508.006 69.678V81H502.826V69.678C502.826 68.0747 502.419 66.8537 501.605 66.015C500.791 65.1517 499.681 64.72 498.275 64.72C496.844 64.72 495.71 65.1517 494.871 66.015C494.057 66.8537 493.65 68.0747 493.65 69.678V81H488.47V60.502H493.65V62.981C494.316 62.1177 495.167 61.4393 496.203 60.946C497.264 60.4527 498.423 60.206 499.681 60.206C501.284 60.206 502.715 60.5513 503.973 61.242C505.231 61.908 506.205 62.87 506.896 64.128C507.562 62.944 508.524 61.9943 509.782 61.279C511.065 60.5637 512.446 60.206 513.926 60.206ZM532.421 63.499C533.087 62.5123 533.999 61.7107 535.159 61.094C536.343 60.4773 537.687 60.169 539.192 60.169C540.943 60.169 542.522 60.6007 543.928 61.464C545.358 62.3273 546.481 63.5607 547.295 65.164C548.133 66.7427 548.553 68.5803 548.553 70.677C548.553 72.7737 548.133 74.636 547.295 76.264C546.481 77.8673 545.358 79.113 543.928 80.001C542.522 80.889 540.943 81.333 539.192 81.333C537.662 81.333 536.318 81.037 535.159 80.445C534.024 79.8283 533.111 79.039 532.421 78.077V81H527.241V53.62H532.421V63.499ZM543.262 70.677C543.262 69.4437 543.003 68.383 542.485 67.495C541.991 66.5823 541.325 65.8917 540.487 65.423C539.673 64.9543 538.785 64.72 537.823 64.72C536.885 64.72 535.997 64.9667 535.159 65.46C534.345 65.9287 533.679 66.6193 533.161 67.532C532.667 68.4447 532.421 69.5177 532.421 70.751C532.421 71.9843 532.667 73.0573 533.161 73.97C533.679 74.8827 534.345 75.5857 535.159 76.079C535.997 76.5477 536.885 76.782 537.823 76.782C538.785 76.782 539.673 76.5353 540.487 76.042C541.325 75.5487 541.991 74.8457 542.485 73.933C543.003 73.0203 543.262 71.935 543.262 70.677ZM550.985 70.677C550.985 68.605 551.392 66.7673 552.206 65.164C553.044 63.5607 554.167 62.3273 555.573 61.464C557.003 60.6007 558.594 60.169 560.346 60.169C561.875 60.169 563.207 60.4773 564.342 61.094C565.501 61.7107 566.426 62.4877 567.117 63.425V60.502H572.334V81H567.117V78.003C566.451 78.965 565.526 79.7667 564.342 80.408C563.182 81.0247 561.838 81.333 560.309 81.333C558.582 81.333 557.003 80.889 555.573 80.001C554.167 79.113 553.044 77.8673 552.206 76.264C551.392 74.636 550.985 72.7737 550.985 70.677ZM567.117 70.751C567.117 69.493 566.87 68.42 566.377 67.532C565.883 66.6193 565.217 65.9287 564.379 65.46C563.54 64.9667 562.64 64.72 561.678 64.72C560.716 64.72 559.828 64.9543 559.014 65.423C558.2 65.8917 557.534 66.5823 557.016 67.495C556.522 68.383 556.276 69.4437 556.276 70.677C556.276 71.9103 556.522 72.9957 557.016 73.933C557.534 74.8457 558.2 75.5487 559.014 76.042C559.852 76.5353 560.74 76.782 561.678 76.782C562.64 76.782 563.54 76.5477 564.379 76.079C565.217 75.5857 565.883 74.895 566.377 74.007C566.87 73.0943 567.117 72.009 567.117 70.751ZM576.061 70.751C576.061 68.6297 576.493 66.7797 577.356 65.201C578.219 63.5977 579.416 62.3643 580.945 61.501C582.474 60.613 584.226 60.169 586.199 60.169C588.74 60.169 590.836 60.8103 592.489 62.093C594.166 63.351 595.289 65.127 595.856 67.421H590.269C589.973 66.533 589.467 65.8423 588.752 65.349C588.061 64.831 587.198 64.572 586.162 64.572C584.682 64.572 583.51 65.1147 582.647 66.2C581.784 67.2607 581.352 68.7777 581.352 70.751C581.352 72.6997 581.784 74.2167 582.647 75.302C583.51 76.3627 584.682 76.893 586.162 76.893C588.259 76.893 589.628 75.9557 590.269 74.081H595.856C595.289 76.301 594.166 78.0647 592.489 79.372C590.812 80.6793 588.715 81.333 586.199 81.333C584.226 81.333 582.474 80.9013 580.945 80.038C579.416 79.15 578.219 77.9167 577.356 76.338C576.493 74.7347 576.061 72.8723 576.061 70.751ZM598.319 70.677C598.319 68.605 598.726 66.7673 599.54 65.164C600.378 63.5607 601.501 62.3273 602.907 61.464C604.337 60.6007 605.928 60.169 607.68 60.169C609.209 60.169 610.541 60.4773 611.676 61.094C612.835 61.7107 613.76 62.4877 614.451 63.425V60.502H619.668V81H614.451V78.003C613.785 78.965 612.86 79.7667 611.676 80.408C610.516 81.0247 609.172 81.333 607.643 81.333C605.916 81.333 604.337 80.889 602.907 80.001C601.501 79.113 600.378 77.8673 599.54 76.264C598.726 74.636 598.319 72.7737 598.319 70.677ZM614.451 70.751C614.451 69.493 614.204 68.42 613.711 67.532C613.217 66.6193 612.551 65.9287 611.713 65.46C610.874 64.9667 609.974 64.72 609.012 64.72C608.05 64.72 607.162 64.9543 606.348 65.423C605.534 65.8917 604.868 66.5823 604.35 67.495C603.856 68.383 603.61 69.4437 603.61 70.677C603.61 71.9103 603.856 72.9957 604.35 73.933C604.868 74.8457 605.534 75.5487 606.348 76.042C607.186 76.5353 608.074 76.782 609.012 76.782C609.974 76.782 610.874 76.5477 611.713 76.079C612.551 75.5857 613.217 74.895 613.711 74.007C614.204 73.0943 614.451 72.009 614.451 70.751ZM630.388 75.561L626.059 85.958H622.729L625.134 75.561H630.388ZM655.074 81L648.118 72.268V81H642.938V53.62H648.118V69.197L655 60.502H661.734L652.706 70.788L661.808 81H655.074ZM663.213 70.677C663.213 68.605 663.62 66.7673 664.434 65.164C665.273 63.5607 666.395 62.3273 667.801 61.464C669.232 60.6007 670.823 60.169 672.574 60.169C674.104 60.169 675.436 60.4773 676.57 61.094C677.73 61.7107 678.655 62.4877 679.345 63.425V60.502H684.562V81H679.345V78.003C678.679 78.965 677.754 79.7667 676.57 80.408C675.411 81.0247 674.067 81.333 672.537 81.333C670.811 81.333 669.232 80.889 667.801 80.001C666.395 79.113 665.273 77.8673 664.434 76.264C663.62 74.636 663.213 72.7737 663.213 70.677ZM679.345 70.751C679.345 69.493 679.099 68.42 678.605 67.532C678.112 66.6193 677.446 65.9287 676.607 65.46C675.769 64.9667 674.868 64.72 673.906 64.72C672.944 64.72 672.056 64.9543 671.242 65.423C670.428 65.8917 669.762 66.5823 669.244 67.495C668.751 68.383 668.504 69.4437 668.504 70.677C668.504 71.9103 668.751 72.9957 669.244 73.933C669.762 74.8457 670.428 75.5487 671.242 76.042C672.081 76.5353 672.969 76.782 673.906 76.782C674.868 76.782 675.769 76.5477 676.607 76.079C677.446 75.5857 678.112 74.895 678.605 74.007C679.099 73.0943 679.345 72.009 679.345 70.751ZM715.077 60.206C717.593 60.206 719.616 60.983 721.145 62.537C722.699 64.0663 723.476 66.2123 723.476 68.975V81H718.296V69.678C718.296 68.0747 717.889 66.8537 717.075 66.015C716.261 65.1517 715.151 64.72 713.745 64.72C712.339 64.72 711.217 65.1517 710.378 66.015C709.564 66.8537 709.157 68.0747 709.157 69.678V81H703.977V69.678C703.977 68.0747 703.57 66.8537 702.756 66.015C701.942 65.1517 700.832 64.72 699.426 64.72C697.996 64.72 696.861 65.1517 696.022 66.015C695.208 66.8537 694.801 68.0747 694.801 69.678V81H689.621V60.502H694.801V62.981C695.467 62.1177 696.318 61.4393 697.354 60.946C698.415 60.4527 699.574 60.206 700.832 60.206C702.436 60.206 703.866 60.5513 705.124 61.242C706.382 61.908 707.357 62.87 708.047 64.128C708.713 62.944 709.675 61.9943 710.933 61.279C712.216 60.5637 713.597 60.206 715.077 60.206ZM747.743 60.502V81H742.526V78.41C741.86 79.298 740.984 80.001 739.899 80.519C738.838 81.0123 737.679 81.259 736.421 81.259C734.818 81.259 733.399 80.926 732.166 80.26C730.933 79.5693 729.958 78.5703 729.243 77.263C728.552 75.931 728.207 74.3523 728.207 72.527V60.502H733.387V71.787C733.387 73.415 733.794 74.673 734.608 75.561C735.422 76.4243 736.532 76.856 737.938 76.856C739.369 76.856 740.491 76.4243 741.305 75.561C742.119 74.673 742.526 73.415 742.526 71.787V60.502H747.743ZM760.338 70.677C760.338 68.605 760.745 66.7673 761.559 65.164C762.398 63.5607 763.533 62.3273 764.963 61.464C766.394 60.6007 767.985 60.169 769.736 60.169C771.068 60.169 772.339 60.465 773.547 61.057C774.756 61.6243 775.718 62.389 776.433 63.351V53.62H781.687V81H776.433V77.966C775.792 78.9773 774.892 79.7913 773.732 80.408C772.573 81.0247 771.229 81.333 769.699 81.333C767.973 81.333 766.394 80.889 764.963 80.001C763.533 79.113 762.398 77.8673 761.559 76.264C760.745 74.636 760.338 72.7737 760.338 70.677ZM776.47 70.751C776.47 69.493 776.224 68.42 775.73 67.532C775.237 66.6193 774.571 65.9287 773.732 65.46C772.894 64.9667 771.993 64.72 771.031 64.72C770.069 64.72 769.181 64.9543 768.367 65.423C767.553 65.8917 766.887 66.5823 766.369 67.495C765.876 68.383 765.629 69.4437 765.629 70.677C765.629 71.9103 765.876 72.9957 766.369 73.933C766.887 74.8457 767.553 75.5487 768.367 76.042C769.206 76.5353 770.094 76.782 771.031 76.782C771.993 76.782 772.894 76.5477 773.732 76.079C774.571 75.5857 775.237 74.895 775.73 74.007C776.224 73.0943 776.47 72.009 776.47 70.751ZM789.373 58.06C788.461 58.06 787.696 57.7763 787.079 57.209C786.487 56.617 786.191 55.8893 786.191 55.026C786.191 54.1627 786.487 53.4473 787.079 52.88C787.696 52.288 788.461 51.992 789.373 51.992C790.286 51.992 791.038 52.288 791.63 52.88C792.247 53.4473 792.555 54.1627 792.555 55.026C792.555 55.8893 792.247 56.617 791.63 57.209C791.038 57.7763 790.286 58.06 789.373 58.06ZM791.926 60.502V81H786.746V60.502H791.926ZM809.18 81L802.224 72.268V81H797.044V53.62H802.224V69.197L809.106 60.502H815.84L806.812 70.788L815.914 81H809.18ZM837.707 70.307C837.707 71.047 837.657 71.713 837.559 72.305H822.574C822.697 73.785 823.215 74.9443 824.128 75.783C825.04 76.6217 826.163 77.041 827.495 77.041C829.419 77.041 830.788 76.2147 831.602 74.562H837.189C836.597 76.5353 835.462 78.1633 833.785 79.446C832.107 80.704 830.048 81.333 827.606 81.333C825.632 81.333 823.856 80.9013 822.278 80.038C820.724 79.15 819.503 77.9043 818.615 76.301C817.751 74.6977 817.32 72.8477 817.32 70.751C817.32 68.6297 817.751 66.7673 818.615 65.164C819.478 63.5607 820.687 62.3273 822.241 61.464C823.795 60.6007 825.583 60.169 827.606 60.169C829.554 60.169 831.293 60.5883 832.823 61.427C834.377 62.2657 835.573 63.462 836.412 65.016C837.275 66.5453 837.707 68.309 837.707 70.307ZM832.342 68.827C832.317 67.495 831.836 66.4343 830.899 65.645C829.961 64.831 828.814 64.424 827.458 64.424C826.175 64.424 825.09 64.8187 824.202 65.608C823.338 66.3727 822.808 67.4457 822.611 68.827H832.342ZM852.847 60.206C855.289 60.206 857.262 60.983 858.767 62.537C860.271 64.0663 861.024 66.2123 861.024 68.975V81H855.844V69.678C855.844 68.05 855.437 66.8043 854.623 65.941C853.809 65.053 852.699 64.609 851.293 64.609C849.862 64.609 848.727 65.053 847.889 65.941C847.075 66.8043 846.668 68.05 846.668 69.678V81H841.488V60.502H846.668V63.055C847.358 62.167 848.234 61.4763 849.295 60.983C850.38 60.465 851.564 60.206 852.847 60.206ZM864.617 70.677C864.617 68.605 865.024 66.7673 865.838 65.164C866.677 63.5607 867.799 62.3273 869.205 61.464C870.636 60.6007 872.227 60.169 873.978 60.169C875.508 60.169 876.84 60.4773 877.974 61.094C879.134 61.7107 880.059 62.4877 880.749 63.425V60.502H885.966V81H880.749V78.003C880.083 78.965 879.158 79.7667 877.974 80.408C876.815 81.0247 875.471 81.333 873.941 81.333C872.215 81.333 870.636 80.889 869.205 80.001C867.799 79.113 866.677 77.8673 865.838 76.264C865.024 74.636 864.617 72.7737 864.617 70.677ZM880.749 70.751C880.749 69.493 880.503 68.42 880.009 67.532C879.516 66.6193 878.85 65.9287 878.011 65.46C877.173 64.9667 876.272 64.72 875.31 64.72C874.348 64.72 873.46 64.9543 872.646 65.423C871.832 65.8917 871.166 66.5823 870.648 67.495C870.155 68.383 869.908 69.4437 869.908 70.677C869.908 71.9103 870.155 72.9957 870.648 73.933C871.166 74.8457 871.832 75.5487 872.646 76.042C873.485 76.5353 874.373 76.782 875.31 76.782C876.272 76.782 877.173 76.5477 878.011 76.079C878.85 75.5857 879.516 74.895 880.009 74.007C880.503 73.0943 880.749 72.009 880.749 70.751ZM896.206 53.62V81H891.026V53.62H896.206ZM908.808 70.677C908.808 68.605 909.215 66.7673 910.029 65.164C910.868 63.5607 912.002 62.3273 913.433 61.464C914.864 60.6007 916.455 60.169 918.206 60.169C919.538 60.169 920.808 60.465 922.017 61.057C923.226 61.6243 924.188 62.389 924.903 63.351V53.62H930.157V81H924.903V77.966C924.262 78.9773 923.361 79.7913 922.202 80.408C921.043 81.0247 919.698 81.333 918.169 81.333C916.442 81.333 914.864 80.889 913.433 80.001C912.002 79.113 910.868 77.8673 910.029 76.264C909.215 74.636 908.808 72.7737 908.808 70.677ZM924.94 70.751C924.94 69.493 924.693 68.42 924.2 67.532C923.707 66.6193 923.041 65.9287 922.202 65.46C921.363 64.9667 920.463 64.72 919.501 64.72C918.539 64.72 917.651 64.9543 916.837 65.423C916.023 65.8917 915.357 66.5823 914.839 67.495C914.346 68.383 914.099 69.4437 914.099 70.677C914.099 71.9103 914.346 72.9957 914.839 73.933C915.357 74.8457 916.023 75.5487 916.837 76.042C917.676 76.5353 918.564 76.782 919.501 76.782C920.463 76.782 921.363 76.5477 922.202 76.079C923.041 75.5857 923.707 74.895 924.2 74.007C924.693 73.0943 924.94 72.009 924.94 70.751ZM954.567 60.502V81H949.35V78.41C948.684 79.298 947.808 80.001 946.723 80.519C945.662 81.0123 944.503 81.259 943.245 81.259C941.642 81.259 940.223 80.926 938.99 80.26C937.757 79.5693 936.782 78.5703 936.067 77.263C935.376 75.931 935.031 74.3523 935.031 72.527V60.502H940.211V71.787C940.211 73.415 940.618 74.673 941.432 75.561C942.246 76.4243 943.356 76.856 944.762 76.856C946.193 76.856 947.315 76.4243 948.129 75.561C948.943 74.673 949.35 73.415 949.35 71.787V60.502H954.567ZM971.037 60.206C973.479 60.206 975.452 60.983 976.957 62.537C978.462 64.0663 979.214 66.2123 979.214 68.975V81H974.034V69.678C974.034 68.05 973.627 66.8043 972.813 65.941C971.999 65.053 970.889 64.609 969.483 64.609C968.052 64.609 966.918 65.053 966.079 65.941C965.265 66.8043 964.858 68.05 964.858 69.678V81H959.678V60.502H964.858V63.055C965.549 62.167 966.424 61.4763 967.485 60.983C968.57 60.465 969.754 60.206 971.037 60.206ZM986.767 58.06C985.854 58.06 985.09 57.7763 984.473 57.209C983.881 56.617 983.585 55.8893 983.585 55.026C983.585 54.1627 983.881 53.4473 984.473 52.88C985.09 52.288 985.854 51.992 986.767 51.992C987.68 51.992 988.432 52.288 989.024 52.88C989.641 53.4473 989.949 54.1627 989.949 55.026C989.949 55.8893 989.641 56.617 989.024 57.209C988.432 57.7763 987.68 58.06 986.767 58.06ZM989.32 60.502V81H984.14V60.502H989.32ZM993.106 70.677C993.106 68.605 993.513 66.7673 994.327 65.164C995.165 63.5607 996.288 62.3273 997.694 61.464C999.124 60.6007 1000.72 60.169 1002.47 60.169C1004 60.169 1005.33 60.4773 1006.46 61.094C1007.62 61.7107 1008.55 62.4877 1009.24 63.425V60.502H1014.45V81H1009.24V78.003C1008.57 78.965 1007.65 79.7667 1006.46 80.408C1005.3 81.0247 1003.96 81.333 1002.43 81.333C1000.7 81.333 999.124 80.889 997.694 80.001C996.288 79.113 995.165 77.8673 994.327 76.264C993.513 74.636 993.106 72.7737 993.106 70.677ZM1009.24 70.751C1009.24 69.493 1008.99 68.42 1008.5 67.532C1008 66.6193 1007.34 65.9287 1006.5 65.46C1005.66 64.9667 1004.76 64.72 1003.8 64.72C1002.84 64.72 1001.95 64.9543 1001.13 65.423C1000.32 65.8917 999.655 66.5823 999.137 67.495C998.643 68.383 998.397 69.4437 998.397 70.677C998.397 71.9103 998.643 72.9957 999.137 73.933C999.655 74.8457 1000.32 75.5487 1001.13 76.042C1001.97 76.5353 1002.86 76.782 1003.8 76.782C1004.76 76.782 1005.66 76.5477 1006.5 76.079C1007.34 75.5857 1008 74.895 1008.5 74.007C1008.99 73.0943 1009.24 72.009 1009.24 70.751ZM1021.81 81.259C1020.87 81.259 1020.09 80.9753 1019.48 80.408C1018.88 79.816 1018.59 79.0883 1018.59 78.225C1018.59 77.3617 1018.88 76.6463 1019.48 76.079C1020.09 75.487 1020.87 75.191 1021.81 75.191C1022.72 75.191 1023.47 75.487 1024.06 76.079C1024.66 76.6463 1024.95 77.3617 1024.95 78.225C1024.95 79.0883 1024.66 79.816 1024.06 80.408C1023.47 80.9753 1022.72 81.259 1021.81 81.259ZM284.296 111.174C287.01 111.174 289.39 111.704 291.437 112.765C293.509 113.826 295.1 115.343 296.21 117.316C297.345 119.265 297.912 121.534 297.912 124.124C297.912 126.714 297.345 128.983 296.21 130.932C295.1 132.856 293.509 134.348 291.437 135.409C289.39 136.47 287.01 137 284.296 137H275.268V111.174H284.296ZM284.111 132.597C286.825 132.597 288.921 131.857 290.401 130.377C291.881 128.897 292.621 126.813 292.621 124.124C292.621 121.435 291.881 119.339 290.401 117.834C288.921 116.305 286.825 115.54 284.111 115.54H280.448V132.597H284.111ZM320.845 126.307C320.845 127.047 320.795 127.713 320.697 128.305H305.712C305.835 129.785 306.353 130.944 307.266 131.783C308.178 132.622 309.301 133.041 310.633 133.041C312.557 133.041 313.926 132.215 314.74 130.562H320.327C319.735 132.535 318.6 134.163 316.923 135.446C315.245 136.704 313.186 137.333 310.744 137.333C308.77 137.333 306.994 136.901 305.416 136.038C303.862 135.15 302.641 133.904 301.753 132.301C300.889 130.698 300.458 128.848 300.458 126.751C300.458 124.63 300.889 122.767 301.753 121.164C302.616 119.561 303.825 118.327 305.379 117.464C306.933 116.601 308.721 116.169 310.744 116.169C312.692 116.169 314.431 116.588 315.961 117.427C317.515 118.266 318.711 119.462 319.55 121.016C320.413 122.545 320.845 124.309 320.845 126.307ZM315.48 124.827C315.455 123.495 314.974 122.434 314.037 121.645C313.099 120.831 311.952 120.424 310.596 120.424C309.313 120.424 308.228 120.819 307.34 121.608C306.476 122.373 305.946 123.446 305.749 124.827H315.48ZM335.985 116.206C338.427 116.206 340.4 116.983 341.905 118.537C343.409 120.066 344.162 122.212 344.162 124.975V137H338.982V125.678C338.982 124.05 338.575 122.804 337.761 121.941C336.947 121.053 335.837 120.609 334.431 120.609C333 120.609 331.865 121.053 331.027 121.941C330.213 122.804 329.806 124.05 329.806 125.678V137H324.626V116.502H329.806V119.055C330.496 118.167 331.372 117.476 332.433 116.983C333.518 116.465 334.702 116.206 335.985 116.206ZM357.117 116.169C358.646 116.169 359.99 116.477 361.15 117.094C362.309 117.686 363.222 118.463 363.888 119.425V116.502H369.105V137.148C369.105 139.047 368.722 140.737 367.958 142.217C367.193 143.722 366.046 144.906 364.517 145.769C362.987 146.657 361.137 147.101 358.967 147.101C356.056 147.101 353.663 146.423 351.789 145.066C349.939 143.709 348.89 141.859 348.644 139.516H353.787C354.058 140.453 354.638 141.193 355.526 141.736C356.438 142.303 357.536 142.587 358.819 142.587C360.323 142.587 361.544 142.131 362.482 141.218C363.419 140.33 363.888 138.973 363.888 137.148V133.966C363.222 134.928 362.297 135.73 361.113 136.371C359.953 137.012 358.621 137.333 357.117 137.333C355.39 137.333 353.811 136.889 352.381 136.001C350.95 135.113 349.815 133.867 348.977 132.264C348.163 130.636 347.756 128.774 347.756 126.677C347.756 124.605 348.163 122.767 348.977 121.164C349.815 119.561 350.938 118.327 352.344 117.464C353.774 116.601 355.365 116.169 357.117 116.169ZM363.888 126.751C363.888 125.493 363.641 124.42 363.148 123.532C362.654 122.619 361.988 121.929 361.15 121.46C360.311 120.967 359.411 120.72 358.449 120.72C357.487 120.72 356.599 120.954 355.785 121.423C354.971 121.892 354.305 122.582 353.787 123.495C353.293 124.383 353.047 125.444 353.047 126.677C353.047 127.91 353.293 128.996 353.787 129.933C354.305 130.846 354.971 131.549 355.785 132.042C356.623 132.535 357.511 132.782 358.449 132.782C359.411 132.782 360.311 132.548 361.15 132.079C361.988 131.586 362.654 130.895 363.148 130.007C363.641 129.094 363.888 128.009 363.888 126.751ZM372.832 126.677C372.832 124.605 373.239 122.767 374.053 121.164C374.892 119.561 376.014 118.327 377.42 117.464C378.851 116.601 380.442 116.169 382.193 116.169C383.722 116.169 385.054 116.477 386.189 117.094C387.348 117.711 388.273 118.488 388.964 119.425V116.502H394.181V137H388.964V134.003C388.298 134.965 387.373 135.767 386.189 136.408C385.03 137.025 383.685 137.333 382.156 137.333C380.429 137.333 378.851 136.889 377.42 136.001C376.014 135.113 374.892 133.867 374.053 132.264C373.239 130.636 372.832 128.774 372.832 126.677ZM388.964 126.751C388.964 125.493 388.717 124.42 388.224 123.532C387.731 122.619 387.065 121.929 386.226 121.46C385.387 120.967 384.487 120.72 383.525 120.72C382.563 120.72 381.675 120.954 380.861 121.423C380.047 121.892 379.381 122.582 378.863 123.495C378.37 124.383 378.123 125.444 378.123 126.677C378.123 127.91 378.37 128.996 378.863 129.933C379.381 130.846 380.047 131.549 380.861 132.042C381.7 132.535 382.588 132.782 383.525 132.782C384.487 132.782 385.387 132.548 386.226 132.079C387.065 131.586 387.731 130.895 388.224 130.007C388.717 129.094 388.964 128.009 388.964 126.751ZM410.599 116.206C413.041 116.206 415.014 116.983 416.519 118.537C418.024 120.066 418.776 122.212 418.776 124.975V137H413.596V125.678C413.596 124.05 413.189 122.804 412.375 121.941C411.561 121.053 410.451 120.609 409.045 120.609C407.614 120.609 406.48 121.053 405.641 121.941C404.827 122.804 404.42 124.05 404.42 125.678V137H399.24V116.502H404.42V119.055C405.111 118.167 405.986 117.476 407.047 116.983C408.132 116.465 409.316 116.206 410.599 116.206ZM457.974 116.206C460.49 116.206 462.513 116.983 464.042 118.537C465.596 120.066 466.373 122.212 466.373 124.975V137H461.193V125.678C461.193 124.075 460.786 122.854 459.972 122.015C459.158 121.152 458.048 120.72 456.642 120.72C455.236 120.72 454.114 121.152 453.275 122.015C452.461 122.854 452.054 124.075 452.054 125.678V137H446.874V125.678C446.874 124.075 446.467 122.854 445.653 122.015C444.839 121.152 443.729 120.72 442.323 120.72C440.893 120.72 439.758 121.152 438.919 122.015C438.105 122.854 437.698 124.075 437.698 125.678V137H432.518V116.502H437.698V118.981C438.364 118.118 439.215 117.439 440.251 116.946C441.312 116.453 442.471 116.206 443.729 116.206C445.333 116.206 446.763 116.551 448.021 117.242C449.279 117.908 450.254 118.87 450.944 120.128C451.61 118.944 452.572 117.994 453.83 117.279C455.113 116.564 456.494 116.206 457.974 116.206ZM490.344 126.307C490.344 127.047 490.295 127.713 490.196 128.305H475.211C475.334 129.785 475.852 130.944 476.765 131.783C477.678 132.622 478.8 133.041 480.132 133.041C482.056 133.041 483.425 132.215 484.239 130.562H489.826C489.234 132.535 488.099 134.163 486.422 135.446C484.745 136.704 482.685 137.333 480.243 137.333C478.27 137.333 476.494 136.901 474.915 136.038C473.361 135.15 472.14 133.904 471.252 132.301C470.389 130.698 469.957 128.848 469.957 126.751C469.957 124.63 470.389 122.767 471.252 121.164C472.115 119.561 473.324 118.327 474.878 117.464C476.432 116.601 478.22 116.169 480.243 116.169C482.192 116.169 483.931 116.588 485.46 117.427C487.014 118.266 488.21 119.462 489.049 121.016C489.912 122.545 490.344 124.309 490.344 126.307ZM484.979 124.827C484.954 123.495 484.473 122.434 483.536 121.645C482.599 120.831 481.452 120.424 480.095 120.424C478.812 120.424 477.727 120.819 476.839 121.608C475.976 122.373 475.445 123.446 475.248 124.827H484.979ZM505.484 116.206C507.926 116.206 509.899 116.983 511.404 118.537C512.908 120.066 513.661 122.212 513.661 124.975V137H508.481V125.678C508.481 124.05 508.074 122.804 507.26 121.941C506.446 121.053 505.336 120.609 503.93 120.609C502.499 120.609 501.364 121.053 500.526 121.941C499.712 122.804 499.305 124.05 499.305 125.678V137H494.125V116.502H499.305V119.055C499.995 118.167 500.871 117.476 501.932 116.983C503.017 116.465 504.201 116.206 505.484 116.206ZM537.938 116.502V137H532.721V134.41C532.055 135.298 531.179 136.001 530.094 136.519C529.033 137.012 527.874 137.259 526.616 137.259C525.012 137.259 523.594 136.926 522.361 136.26C521.127 135.569 520.153 134.57 519.438 133.263C518.747 131.931 518.402 130.352 518.402 128.527V116.502H523.582V127.787C523.582 129.415 523.989 130.673 524.803 131.561C525.617 132.424 526.727 132.856 528.133 132.856C529.563 132.856 530.686 132.424 531.5 131.561C532.314 130.673 532.721 129.415 532.721 127.787V116.502H537.938ZM548.229 109.62V137H543.049V109.62H548.229ZM555.973 114.06C555.061 114.06 554.296 113.776 553.679 113.209C553.087 112.617 552.791 111.889 552.791 111.026C552.791 110.163 553.087 109.447 553.679 108.88C554.296 108.288 555.061 107.992 555.973 107.992C556.886 107.992 557.638 108.288 558.23 108.88C558.847 109.447 559.155 110.163 559.155 111.026C559.155 111.889 558.847 112.617 558.23 113.209C557.638 113.776 556.886 114.06 555.973 114.06ZM558.526 116.502V137H553.346V116.502H558.526ZM571.488 137.333C569.811 137.333 568.306 137.037 566.974 136.445C565.642 135.828 564.582 135.002 563.792 133.966C563.028 132.93 562.608 131.783 562.534 130.525H567.751C567.85 131.314 568.232 131.968 568.898 132.486C569.589 133.004 570.44 133.263 571.451 133.263C572.438 133.263 573.203 133.066 573.745 132.671C574.313 132.276 574.596 131.771 574.596 131.154C574.596 130.488 574.251 129.995 573.56 129.674C572.894 129.329 571.821 128.959 570.341 128.564C568.812 128.194 567.554 127.812 566.567 127.417C565.605 127.022 564.767 126.418 564.051 125.604C563.361 124.79 563.015 123.692 563.015 122.311C563.015 121.176 563.336 120.14 563.977 119.203C564.643 118.266 565.581 117.526 566.789 116.983C568.023 116.44 569.466 116.169 571.118 116.169C573.56 116.169 575.509 116.786 576.964 118.019C578.42 119.228 579.221 120.868 579.369 122.94H574.411C574.337 122.126 573.992 121.485 573.375 121.016C572.783 120.523 571.982 120.276 570.97 120.276C570.033 120.276 569.305 120.449 568.787 120.794C568.294 121.139 568.047 121.62 568.047 122.237C568.047 122.928 568.393 123.458 569.083 123.828C569.774 124.173 570.847 124.531 572.302 124.901C573.782 125.271 575.003 125.653 575.965 126.048C576.927 126.443 577.754 127.059 578.444 127.898C579.16 128.712 579.53 129.797 579.554 131.154C579.554 132.338 579.221 133.399 578.555 134.336C577.914 135.273 576.977 136.013 575.743 136.556C574.535 137.074 573.116 137.333 571.488 137.333ZM589.467 131.561L585.138 141.958H581.808L584.213 131.561H589.467ZM614.153 137L607.197 128.268V137H602.017V109.62H607.197V125.197L614.079 116.502H620.813L611.785 126.788L620.887 137H614.153ZM622.293 126.677C622.293 124.605 622.7 122.767 623.514 121.164C624.352 119.561 625.475 118.327 626.881 117.464C628.311 116.601 629.902 116.169 631.654 116.169C633.183 116.169 634.515 116.477 635.65 117.094C636.809 117.711 637.734 118.488 638.425 119.425V116.502H643.642V137H638.425V134.003C637.759 134.965 636.834 135.767 635.65 136.408C634.49 137.025 633.146 137.333 631.617 137.333C629.89 137.333 628.311 136.889 626.881 136.001C625.475 135.113 624.352 133.867 623.514 132.264C622.7 130.636 622.293 128.774 622.293 126.677ZM638.425 126.751C638.425 125.493 638.178 124.42 637.685 123.532C637.191 122.619 636.525 121.929 635.687 121.46C634.848 120.967 633.948 120.72 632.986 120.72C632.024 120.72 631.136 120.954 630.322 121.423C629.508 121.892 628.842 122.582 628.324 123.495C627.83 124.383 627.584 125.444 627.584 126.677C627.584 127.91 627.83 128.996 628.324 129.933C628.842 130.846 629.508 131.549 630.322 132.042C631.16 132.535 632.048 132.782 632.986 132.782C633.948 132.782 634.848 132.548 635.687 132.079C636.525 131.586 637.191 130.895 637.685 130.007C638.178 129.094 638.425 128.009 638.425 126.751ZM674.157 116.206C676.673 116.206 678.696 116.983 680.225 118.537C681.779 120.066 682.556 122.212 682.556 124.975V137H677.376V125.678C677.376 124.075 676.969 122.854 676.155 122.015C675.341 121.152 674.231 120.72 672.825 120.72C671.419 120.72 670.297 121.152 669.458 122.015C668.644 122.854 668.237 124.075 668.237 125.678V137H663.057V125.678C663.057 124.075 662.65 122.854 661.836 122.015C661.022 121.152 659.912 120.72 658.506 120.72C657.075 120.72 655.941 121.152 655.102 122.015C654.288 122.854 653.881 124.075 653.881 125.678V137H648.701V116.502H653.881V118.981C654.547 118.118 655.398 117.439 656.434 116.946C657.495 116.453 658.654 116.206 659.912 116.206C661.515 116.206 662.946 116.551 664.204 117.242C665.462 117.908 666.436 118.87 667.127 120.128C667.793 118.944 668.755 117.994 670.013 117.279C671.296 116.564 672.677 116.206 674.157 116.206ZM706.822 116.502V137H701.605V134.41C700.939 135.298 700.064 136.001 698.978 136.519C697.918 137.012 696.758 137.259 695.5 137.259C693.897 137.259 692.479 136.926 691.245 136.26C690.012 135.569 689.038 134.57 688.322 133.263C687.632 131.931 687.286 130.352 687.286 128.527V116.502H692.466V127.787C692.466 129.415 692.873 130.673 693.687 131.561C694.501 132.424 695.611 132.856 697.017 132.856C698.448 132.856 699.57 132.424 700.384 131.561C701.198 130.673 701.605 129.415 701.605 127.787V116.502H706.822ZM719.418 126.677C719.418 124.605 719.825 122.767 720.639 121.164C721.477 119.561 722.612 118.327 724.043 117.464C725.473 116.601 727.064 116.169 728.816 116.169C730.148 116.169 731.418 116.465 732.627 117.057C733.835 117.624 734.797 118.389 735.513 119.351V109.62H740.767V137H735.513V133.966C734.871 134.977 733.971 135.791 732.812 136.408C731.652 137.025 730.308 137.333 728.779 137.333C727.052 137.333 725.473 136.889 724.043 136.001C722.612 135.113 721.477 133.867 720.639 132.264C719.825 130.636 719.418 128.774 719.418 126.677ZM735.55 126.751C735.55 125.493 735.303 124.42 734.81 123.532C734.316 122.619 733.65 121.929 732.812 121.46C731.973 120.967 731.073 120.72 730.111 120.72C729.149 120.72 728.261 120.954 727.447 121.423C726.633 121.892 725.967 122.582 725.449 123.495C724.955 124.383 724.709 125.444 724.709 126.677C724.709 127.91 724.955 128.996 725.449 129.933C725.967 130.846 726.633 131.549 727.447 132.042C728.285 132.535 729.173 132.782 730.111 132.782C731.073 132.782 731.973 132.548 732.812 132.079C733.65 131.586 734.316 130.895 734.81 130.007C735.303 129.094 735.55 128.009 735.55 126.751ZM748.453 114.06C747.54 114.06 746.776 113.776 746.159 113.209C745.567 112.617 745.271 111.889 745.271 111.026C745.271 110.163 745.567 109.447 746.159 108.88C746.776 108.288 747.54 107.992 748.453 107.992C749.366 107.992 750.118 108.288 750.71 108.88C751.327 109.447 751.635 110.163 751.635 111.026C751.635 111.889 751.327 112.617 750.71 113.209C750.118 113.776 749.366 114.06 748.453 114.06ZM751.006 116.502V137H745.826V116.502H751.006ZM768.26 137L761.304 128.268V137H756.124V109.62H761.304V125.197L768.186 116.502H774.92L765.892 126.788L774.994 137H768.26ZM796.786 126.307C796.786 127.047 796.737 127.713 796.638 128.305H781.653C781.777 129.785 782.295 130.944 783.207 131.783C784.12 132.622 785.242 133.041 786.574 133.041C788.498 133.041 789.867 132.215 790.681 130.562H796.268C795.676 132.535 794.542 134.163 792.864 135.446C791.187 136.704 789.127 137.333 786.685 137.333C784.712 137.333 782.936 136.901 781.357 136.038C779.803 135.15 778.582 133.904 777.694 132.301C776.831 130.698 776.399 128.848 776.399 126.751C776.399 124.63 776.831 122.767 777.694 121.164C778.558 119.561 779.766 118.327 781.32 117.464C782.874 116.601 784.663 116.169 786.685 116.169C788.634 116.169 790.373 116.588 791.902 117.427C793.456 118.266 794.653 119.462 795.491 121.016C796.355 122.545 796.786 124.309 796.786 126.307ZM791.421 124.827C791.397 123.495 790.916 122.434 789.978 121.645C789.041 120.831 787.894 120.424 786.537 120.424C785.255 120.424 784.169 120.819 783.281 121.608C782.418 122.373 781.888 123.446 781.69 124.827H791.421ZM811.926 116.206C814.368 116.206 816.341 116.983 817.846 118.537C819.351 120.066 820.103 122.212 820.103 124.975V137H814.923V125.678C814.923 124.05 814.516 122.804 813.702 121.941C812.888 121.053 811.778 120.609 810.372 120.609C808.941 120.609 807.807 121.053 806.968 121.941C806.154 122.804 805.747 124.05 805.747 125.678V137H800.567V116.502H805.747V119.055C806.438 118.167 807.313 117.476 808.374 116.983C809.459 116.465 810.643 116.206 811.926 116.206ZM823.697 126.677C823.697 124.605 824.104 122.767 824.918 121.164C825.757 119.561 826.879 118.327 828.285 117.464C829.716 116.601 831.307 116.169 833.058 116.169C834.587 116.169 835.919 116.477 837.054 117.094C838.213 117.711 839.138 118.488 839.829 119.425V116.502H845.046V137H839.829V134.003C839.163 134.965 838.238 135.767 837.054 136.408C835.895 137.025 834.55 137.333 833.021 137.333C831.294 137.333 829.716 136.889 828.285 136.001C826.879 135.113 825.757 133.867 824.918 132.264C824.104 130.636 823.697 128.774 823.697 126.677ZM839.829 126.751C839.829 125.493 839.582 124.42 839.089 123.532C838.596 122.619 837.93 121.929 837.091 121.46C836.252 120.967 835.352 120.72 834.39 120.72C833.428 120.72 832.54 120.954 831.726 121.423C830.912 121.892 830.246 122.582 829.728 123.495C829.235 124.383 828.988 125.444 828.988 126.677C828.988 127.91 829.235 128.996 829.728 129.933C830.246 130.846 830.912 131.549 831.726 132.042C832.565 132.535 833.453 132.782 834.39 132.782C835.352 132.782 836.252 132.548 837.091 132.079C837.93 131.586 838.596 130.895 839.089 130.007C839.582 129.094 839.829 128.009 839.829 126.751ZM855.285 109.62V137H850.105V109.62H855.285ZM867.888 126.677C867.888 124.605 868.295 122.767 869.109 121.164C869.947 119.561 871.082 118.327 872.513 117.464C873.943 116.601 875.534 116.169 877.286 116.169C878.618 116.169 879.888 116.465 881.097 117.057C882.305 117.624 883.267 118.389 883.983 119.351V109.62H889.237V137H883.983V133.966C883.341 134.977 882.441 135.791 881.282 136.408C880.122 137.025 878.778 137.333 877.249 137.333C875.522 137.333 873.943 136.889 872.513 136.001C871.082 135.113 869.947 133.867 869.109 132.264C868.295 130.636 867.888 128.774 867.888 126.677ZM884.02 126.751C884.02 125.493 883.773 124.42 883.28 123.532C882.786 122.619 882.12 121.929 881.282 121.46C880.443 120.967 879.543 120.72 878.581 120.72C877.619 120.72 876.731 120.954 875.917 121.423C875.103 121.892 874.437 122.582 873.919 123.495C873.425 124.383 873.179 125.444 873.179 126.677C873.179 127.91 873.425 128.996 873.919 129.933C874.437 130.846 875.103 131.549 875.917 132.042C876.755 132.535 877.643 132.782 878.581 132.782C879.543 132.782 880.443 132.548 881.282 132.079C882.12 131.586 882.786 130.895 883.28 130.007C883.773 129.094 884.02 128.009 884.02 126.751ZM913.647 116.502V137H908.43V134.41C907.764 135.298 906.888 136.001 905.803 136.519C904.742 137.012 903.583 137.259 902.325 137.259C900.721 137.259 899.303 136.926 898.07 136.26C896.836 135.569 895.862 134.57 895.147 133.263C894.456 131.931 894.111 130.352 894.111 128.527V116.502H899.291V127.787C899.291 129.415 899.698 130.673 900.512 131.561C901.326 132.424 902.436 132.856 903.842 132.856C905.272 132.856 906.395 132.424 907.209 131.561C908.023 130.673 908.43 129.415 908.43 127.787V116.502H913.647ZM930.117 116.206C932.559 116.206 934.532 116.983 936.037 118.537C937.541 120.066 938.294 122.212 938.294 124.975V137H933.114V125.678C933.114 124.05 932.707 122.804 931.893 121.941C931.079 121.053 929.969 120.609 928.563 120.609C927.132 120.609 925.997 121.053 925.159 121.941C924.345 122.804 923.938 124.05 923.938 125.678V137H918.758V116.502H923.938V119.055C924.628 118.167 925.504 117.476 926.565 116.983C927.65 116.465 928.834 116.206 930.117 116.206ZM945.847 114.06C944.934 114.06 944.169 113.776 943.553 113.209C942.961 112.617 942.665 111.889 942.665 111.026C942.665 110.163 942.961 109.447 943.553 108.88C944.169 108.288 944.934 107.992 945.847 107.992C946.759 107.992 947.512 108.288 948.104 108.88C948.72 109.447 949.029 110.163 949.029 111.026C949.029 111.889 948.72 112.617 948.104 113.209C947.512 113.776 946.759 114.06 945.847 114.06ZM948.4 116.502V137H943.22V116.502H948.4ZM952.185 126.677C952.185 124.605 952.592 122.767 953.406 121.164C954.245 119.561 955.367 118.327 956.773 117.464C958.204 116.601 959.795 116.169 961.546 116.169C963.076 116.169 964.408 116.477 965.542 117.094C966.702 117.711 967.627 118.488 968.317 119.425V116.502H973.534V137H968.317V134.003C967.651 134.965 966.726 135.767 965.542 136.408C964.383 137.025 963.039 137.333 961.509 137.333C959.783 137.333 958.204 136.889 956.773 136.001C955.367 135.113 954.245 133.867 953.406 132.264C952.592 130.636 952.185 128.774 952.185 126.677ZM968.317 126.751C968.317 125.493 968.071 124.42 967.577 123.532C967.084 122.619 966.418 121.929 965.579 121.46C964.741 120.967 963.84 120.72 962.878 120.72C961.916 120.72 961.028 120.954 960.214 121.423C959.4 121.892 958.734 122.582 958.216 123.495C957.723 124.383 957.476 125.444 957.476 126.677C957.476 127.91 957.723 128.996 958.216 129.933C958.734 130.846 959.4 131.549 960.214 132.042C961.053 132.535 961.941 132.782 962.878 132.782C963.84 132.782 964.741 132.548 965.579 132.079C966.418 131.586 967.084 130.895 967.577 130.007C968.071 129.094 968.317 128.009 968.317 126.751ZM980.888 137.259C979.95 137.259 979.173 136.975 978.557 136.408C977.965 135.816 977.669 135.088 977.669 134.225C977.669 133.362 977.965 132.646 978.557 132.079C979.173 131.487 979.95 131.191 980.888 131.191C981.8 131.191 982.553 131.487 983.145 132.079C983.737 132.646 984.033 133.362 984.033 134.225C984.033 135.088 983.737 135.816 983.145 136.408C982.553 136.975 981.8 137.259 980.888 137.259ZM989.241 111.174H994.68L990.684 120.498H987.132L989.241 111.174ZM996.715 111.174H1002.15L998.158 120.498H994.606L996.715 111.174Z" fill="white"/>
</g>
</g>
<defs>
<filter id="filter0_d_1205_22" x="0" y="0" width="1275" height="232" filterUnits="userSpaceOnUse" color-interpolation-filters="sRGB">
<feFlood flood-opacity="0" result="BackgroundImageFix"/>
<feColorMatrix in="SourceAlpha" type="matrix" values="0 0 0 0 0 0 0 0 0 0 0 0 0 0 0 0 0 0 127 0" result="hardAlpha"/>
<feOffset dy="4"/>
<feGaussianBlur stdDeviation="2"/>
<feComposite in2="hardAlpha" operator="out"/>
<feColorMatrix type="matrix" values="0 0 0 0 0 0 0 0 0 0 0 0 0 0 0 0 0 0 0.25 0"/>
<feBlend mode="normal" in2="BackgroundImageFix" result="effect1_dropShadow_1205_22"/>
<feBlend mode="normal" in="SourceGraphic" in2="effect1_dropShadow_1205_22" result="shape"/>
</filter>
<clipPath id="clip0_1205_22">
<rect x="4" width="1267" height="224" rx="10" fill="white"/>
</clipPath>
<clipPath id="clip1_1205_22">
<rect width="1267" height="713" fill="white" transform="translate(4 -212)"/>
</clipPath>
</defs>
</svg>
