<svg width="1543" height="108" viewBox="0 0 1543 108" fill="none" xmlns="http://www.w3.org/2000/svg">
<g filter="url(#filter0_d_1205_22)">
<g clip-path="url(#clip0_1205_22)">
<g clip-path="url(#clip1_1205_22)">
<path d="M1777 -428H-143V652H1777V-428Z" fill="#001220"/>
<path d="M1540 544C1403.7 540 1267.3 536.1 1168 470C1068.8 404 1006.6 275.8 935.4 176.6C864.3 77.3 784.2 7.00001 721.4 -88.9C658.7 -184.9 613.4 -306.4 568 -428H1540V544Z" fill="#0C1C30"/>
<path d="M1540 422.5C1420.7 419 1301.4 415.6 1214.5 357.8C1127.7 300 1073.2 187.8 1011 101C948.7 14.2 878.7 -47.4 823.8 -131.3C768.9 -215.3 729.2 -321.6 689.5 -428H1540V422.5Z" fill="#312C4F"/>
<path d="M1540 301C1437.7 298 1335.5 295 1261 245.5C1186.6 196 1139.9 99.9 1086.6 25.4C1033.2 -49 973.1 -101.7 926.1 -173.7C879 -245.7 845 -336.8 811 -428H1540V301Z" fill="#623965"/>
<path d="M1540 179.5C1454.8 177 1369.6 174.5 1307.5 133.3C1245.5 92 1206.6 11.9 1162.1 -50.1C1117.7 -112.2 1067.6 -156.1 1028.4 -216.1C989.2 -276.1 960.8 -352 932.5 -428H1540V179.5Z" fill="#96446E"/>
<path d="M1540 58C1471.8 56 1403.7 54 1354 21C1304.4 -12 1273.3 -76.1 1237.7 -125.7C1202.1 -175.3 1162.1 -210.5 1130.7 -258.5C1099.4 -306.4 1076.7 -367.2 1054 -428H1540V58Z" fill="#C55469"/>
<path d="M-54 -671C64 -646.3 181.9 -621.7 312.2 -583.2C442.5 -544.6 585.2 -492.2 633.3 -386.3C681.4 -280.4 634.9 -121 666.6 2.5C698.3 126 808.2 213.5 918 301H-54V-671Z" fill="#0C1C30"/>
<path d="M-54 -549.5C49.2 -527.9 152.4 -506.3 266.4 -472.6C380.5 -438.9 505.3 -393.1 547.4 -300.4C589.5 -207.7 548.8 -68.2 576.5 39.8C604.3 147.9 700.4 224.4 796.5 301H-54V-549.5Z" fill="#312C4F"/>
<path d="M-54 -428C34.5 -409.5 122.9 -391 220.7 -362.1C318.4 -333.2 425.4 -293.9 461.5 -214.5C497.6 -135 462.7 -15.5 486.5 77.1C510.2 169.7 592.6 235.4 675 301H-54V-428Z" fill="#623965"/>
<path d="M-54 -306.5C19.7 -291.1 93.4 -275.7 174.9 -251.6C256.3 -227.5 345.5 -194.8 375.6 -128.6C405.6 -62.4 376.6 37.3 396.4 114.4C416.2 191.6 484.8 246.3 553.5 301H-54V-306.5Z" fill="#96446E"/>
<path d="M-54 -185C5 -172.7 64 -160.3 129.1 -141.1C194.3 -121.8 265.6 -95.6 289.7 -42.7C313.7 10.3 290.5 90 306.3 151.8C322.2 213.5 377.1 257.2 432 301H-54V-185Z" fill="#C55469"/>
<path d="M-54 -63.5C-9.8 -54.3 34.5 -45 83.3 -30.6C132.2 -16.1 185.7 3.49999 203.7 43.3C221.8 83 204.4 142.8 216.2 189.1C228.1 235.4 269.3 268.2 310.5 301H-54V-63.5Z" fill="#E9705A"/>
<path d="M-54 58C-24.5 64.2 5 70.3 37.6 80C70.1 89.6 105.8 102.7 117.8 129.2C129.9 155.7 118.2 195.5 126.2 226.4C134.1 257.2 161.5 279.1 189 301H-54V58Z" fill="#FA9845"/>
</g>
<path d="M345.392 47.634H342.284L344.552 42.342H346.589L345.392 47.634ZM349.634 47.634H346.526L348.794 42.342H350.831L349.634 47.634ZM358.214 42.342C359.754 42.342 361.105 42.643 362.267 43.245C363.443 43.847 364.346 44.708 364.976 45.828C365.62 46.934 365.942 48.222 365.942 49.692C365.942 51.162 365.62 52.45 364.976 53.556C364.346 54.648 363.443 55.495 362.267 56.097C361.105 56.699 359.754 57 358.214 57H353.09V42.342H358.214ZM358.109 54.501C359.649 54.501 360.839 54.081 361.679 53.241C362.519 52.401 362.939 51.218 362.939 49.692C362.939 48.166 362.519 46.976 361.679 46.122C360.839 45.254 359.649 44.82 358.109 44.82H356.03V54.501H358.109ZM378.958 50.931C378.958 51.351 378.93 51.729 378.874 52.065H370.369C370.439 52.905 370.733 53.563 371.251 54.039C371.769 54.515 372.406 54.753 373.162 54.753C374.254 54.753 375.031 54.284 375.493 53.346H378.664C378.328 54.466 377.684 55.39 376.732 56.118C375.78 56.832 374.611 57.189 373.225 57.189C372.105 57.189 371.097 56.944 370.201 56.454C369.319 55.95 368.626 55.243 368.122 54.333C367.632 53.423 367.387 52.373 367.387 51.183C367.387 49.979 367.632 48.922 368.122 48.012C368.612 47.102 369.298 46.402 370.18 45.912C371.062 45.422 372.077 45.177 373.225 45.177C374.331 45.177 375.318 45.415 376.186 45.891C377.068 46.367 377.747 47.046 378.223 47.928C378.713 48.796 378.958 49.797 378.958 50.931ZM375.913 50.091C375.899 49.335 375.626 48.733 375.094 48.285C374.562 47.823 373.911 47.592 373.141 47.592C372.413 47.592 371.797 47.816 371.293 48.264C370.803 48.698 370.502 49.307 370.39 50.091H375.913ZM387.551 45.198C388.937 45.198 390.057 45.639 390.911 46.521C391.765 47.389 392.192 48.607 392.192 50.175V57H389.252V50.574C389.252 49.65 389.021 48.943 388.559 48.453C388.097 47.949 387.467 47.697 386.669 47.697C385.857 47.697 385.213 47.949 384.737 48.453C384.275 48.943 384.044 49.65 384.044 50.574V57H381.104V45.366H384.044V46.815C384.436 46.311 384.933 45.919 385.535 45.639C386.151 45.345 386.823 45.198 387.551 45.198ZM399.545 45.177C400.413 45.177 401.176 45.352 401.834 45.702C402.492 46.038 403.01 46.479 403.388 47.025V45.366H406.349V57.084C406.349 58.162 406.132 59.121 405.698 59.961C405.264 60.815 404.613 61.487 403.745 61.977C402.877 62.481 401.827 62.733 400.595 62.733C398.943 62.733 397.585 62.348 396.521 61.578C395.471 60.808 394.876 59.758 394.736 58.428H397.655C397.809 58.96 398.138 59.38 398.642 59.688C399.16 60.01 399.783 60.171 400.511 60.171C401.365 60.171 402.058 59.912 402.59 59.394C403.122 58.89 403.388 58.12 403.388 57.084V55.278C403.01 55.824 402.485 56.279 401.813 56.643C401.155 57.007 400.399 57.189 399.545 57.189C398.565 57.189 397.669 56.937 396.857 56.433C396.045 55.929 395.401 55.222 394.925 54.312C394.463 53.388 394.232 52.331 394.232 51.141C394.232 49.965 394.463 48.922 394.925 48.012C395.401 47.102 396.038 46.402 396.836 45.912C397.648 45.422 398.551 45.177 399.545 45.177ZM403.388 51.183C403.388 50.469 403.248 49.86 402.968 49.356C402.688 48.838 402.31 48.446 401.834 48.18C401.358 47.9 400.847 47.76 400.301 47.76C399.755 47.76 399.251 47.893 398.789 48.159C398.327 48.425 397.949 48.817 397.655 49.335C397.375 49.839 397.235 50.441 397.235 51.141C397.235 51.841 397.375 52.457 397.655 52.989C397.949 53.507 398.327 53.906 398.789 54.186C399.265 54.466 399.769 54.606 400.301 54.606C400.847 54.606 401.358 54.473 401.834 54.207C402.31 53.927 402.688 53.535 402.968 53.031C403.248 52.513 403.388 51.897 403.388 51.183ZM408.464 51.141C408.464 49.965 408.695 48.922 409.157 48.012C409.633 47.102 410.27 46.402 411.068 45.912C411.88 45.422 412.783 45.177 413.777 45.177C414.645 45.177 415.401 45.352 416.045 45.702C416.703 46.052 417.228 46.493 417.62 47.025V45.366H420.581V57H417.62V55.299C417.242 55.845 416.717 56.3 416.045 56.664C415.387 57.014 414.624 57.189 413.756 57.189C412.776 57.189 411.88 56.937 411.068 56.433C410.27 55.929 409.633 55.222 409.157 54.312C408.695 53.388 408.464 52.331 408.464 51.141ZM417.62 51.183C417.62 50.469 417.48 49.86 417.2 49.356C416.92 48.838 416.542 48.446 416.066 48.18C415.59 47.9 415.079 47.76 414.533 47.76C413.987 47.76 413.483 47.893 413.021 48.159C412.559 48.425 412.181 48.817 411.887 49.335C411.607 49.839 411.467 50.441 411.467 51.141C411.467 51.841 411.607 52.457 411.887 52.989C412.181 53.507 412.559 53.906 413.021 54.186C413.497 54.466 414.001 54.606 414.533 54.606C415.079 54.606 415.59 54.473 416.066 54.207C416.542 53.927 416.92 53.535 417.2 53.031C417.48 52.513 417.62 51.897 417.62 51.183ZM429.899 45.198C431.285 45.198 432.405 45.639 433.259 46.521C434.113 47.389 434.54 48.607 434.54 50.175V57H431.6V50.574C431.6 49.65 431.369 48.943 430.907 48.453C430.445 47.949 429.815 47.697 429.017 47.697C428.205 47.697 427.561 47.949 427.085 48.453C426.623 48.943 426.392 49.65 426.392 50.574V57H423.452V45.366H426.392V46.815C426.784 46.311 427.281 45.919 427.883 45.639C428.499 45.345 429.171 45.198 429.899 45.198ZM456.788 45.198C458.216 45.198 459.364 45.639 460.232 46.521C461.114 47.389 461.555 48.607 461.555 50.175V57H458.615V50.574C458.615 49.664 458.384 48.971 457.922 48.495C457.46 48.005 456.83 47.76 456.032 47.76C455.234 47.76 454.597 48.005 454.121 48.495C453.659 48.971 453.428 49.664 453.428 50.574V57H450.488V50.574C450.488 49.664 450.257 48.971 449.795 48.495C449.333 48.005 448.703 47.76 447.905 47.76C447.093 47.76 446.449 48.005 445.973 48.495C445.511 48.971 445.28 49.664 445.28 50.574V57H442.34V45.366H445.28V46.773C445.658 46.283 446.141 45.898 446.729 45.618C447.331 45.338 447.989 45.198 448.703 45.198C449.613 45.198 450.425 45.394 451.139 45.786C451.853 46.164 452.406 46.71 452.798 47.424C453.176 46.752 453.722 46.213 454.436 45.807C455.164 45.401 455.948 45.198 456.788 45.198ZM475.16 50.931C475.16 51.351 475.132 51.729 475.076 52.065H466.571C466.641 52.905 466.935 53.563 467.453 54.039C467.971 54.515 468.608 54.753 469.364 54.753C470.456 54.753 471.233 54.284 471.695 53.346H474.866C474.53 54.466 473.886 55.39 472.934 56.118C471.982 56.832 470.813 57.189 469.427 57.189C468.307 57.189 467.299 56.944 466.403 56.454C465.521 55.95 464.828 55.243 464.324 54.333C463.834 53.423 463.589 52.373 463.589 51.183C463.589 49.979 463.834 48.922 464.324 48.012C464.814 47.102 465.5 46.402 466.382 45.912C467.264 45.422 468.279 45.177 469.427 45.177C470.533 45.177 471.52 45.415 472.388 45.891C473.27 46.367 473.949 47.046 474.425 47.928C474.915 48.796 475.16 49.797 475.16 50.931ZM472.115 50.091C472.101 49.335 471.828 48.733 471.296 48.285C470.764 47.823 470.113 47.592 469.343 47.592C468.615 47.592 467.999 47.816 467.495 48.264C467.005 48.698 466.704 49.307 466.592 50.091H472.115ZM491.754 45.198C493.182 45.198 494.33 45.639 495.198 46.521C496.08 47.389 496.521 48.607 496.521 50.175V57H493.581V50.574C493.581 49.664 493.35 48.971 492.888 48.495C492.426 48.005 491.796 47.76 490.998 47.76C490.2 47.76 489.563 48.005 489.087 48.495C488.625 48.971 488.394 49.664 488.394 50.574V57H485.454V50.574C485.454 49.664 485.223 48.971 484.761 48.495C484.299 48.005 483.669 47.76 482.871 47.76C482.059 47.76 481.415 48.005 480.939 48.495C480.477 48.971 480.246 49.664 480.246 50.574V57H477.306V45.366H480.246V46.773C480.624 46.283 481.107 45.898 481.695 45.618C482.297 45.338 482.955 45.198 483.669 45.198C484.579 45.198 485.391 45.394 486.105 45.786C486.819 46.164 487.372 46.71 487.764 47.424C488.142 46.752 488.688 46.213 489.402 45.807C490.13 45.401 490.914 45.198 491.754 45.198ZM502.251 47.067C502.629 46.507 503.147 46.052 503.805 45.702C504.477 45.352 505.24 45.177 506.094 45.177C507.088 45.177 507.984 45.422 508.782 45.912C509.594 46.402 510.231 47.102 510.693 48.012C511.169 48.908 511.407 49.951 511.407 51.141C511.407 52.331 511.169 53.388 510.693 54.312C510.231 55.222 509.594 55.929 508.782 56.433C507.984 56.937 507.088 57.189 506.094 57.189C505.226 57.189 504.463 57.021 503.805 56.685C503.161 56.335 502.643 55.887 502.251 55.341V57H499.311V41.46H502.251V47.067ZM508.404 51.141C508.404 50.441 508.257 49.839 507.963 49.335C507.683 48.817 507.305 48.425 506.829 48.159C506.367 47.893 505.863 47.76 505.317 47.76C504.785 47.76 504.281 47.9 503.805 48.18C503.343 48.446 502.965 48.838 502.671 49.356C502.391 49.874 502.251 50.483 502.251 51.183C502.251 51.883 502.391 52.492 502.671 53.01C502.965 53.528 503.343 53.927 503.805 54.207C504.281 54.473 504.785 54.606 505.317 54.606C505.863 54.606 506.367 54.466 506.829 54.186C507.305 53.906 507.683 53.507 507.963 52.989C508.257 52.471 508.404 51.855 508.404 51.141ZM512.787 51.141C512.787 49.965 513.018 48.922 513.48 48.012C513.956 47.102 514.593 46.402 515.391 45.912C516.203 45.422 517.106 45.177 518.1 45.177C518.968 45.177 519.724 45.352 520.368 45.702C521.026 46.052 521.551 46.493 521.943 47.025V45.366H524.904V57H521.943V55.299C521.565 55.845 521.04 56.3 520.368 56.664C519.71 57.014 518.947 57.189 518.079 57.189C517.099 57.189 516.203 56.937 515.391 56.433C514.593 55.929 513.956 55.222 513.48 54.312C513.018 53.388 512.787 52.331 512.787 51.141ZM521.943 51.183C521.943 50.469 521.803 49.86 521.523 49.356C521.243 48.838 520.865 48.446 520.389 48.18C519.913 47.9 519.402 47.76 518.856 47.76C518.31 47.76 517.806 47.893 517.344 48.159C516.882 48.425 516.504 48.817 516.21 49.335C515.93 49.839 515.79 50.441 515.79 51.141C515.79 51.841 515.93 52.457 516.21 52.989C516.504 53.507 516.882 53.906 517.344 54.186C517.82 54.466 518.324 54.606 518.856 54.606C519.402 54.606 519.913 54.473 520.389 54.207C520.865 53.927 521.243 53.535 521.523 53.031C521.803 52.513 521.943 51.897 521.943 51.183ZM527.02 51.183C527.02 49.979 527.265 48.929 527.755 48.033C528.245 47.123 528.924 46.423 529.792 45.933C530.66 45.429 531.654 45.177 532.774 45.177C534.216 45.177 535.406 45.541 536.344 46.269C537.296 46.983 537.933 47.991 538.255 49.293H535.084C534.916 48.789 534.629 48.397 534.223 48.117C533.831 47.823 533.341 47.676 532.753 47.676C531.913 47.676 531.248 47.984 530.758 48.6C530.268 49.202 530.023 50.063 530.023 51.183C530.023 52.289 530.268 53.15 530.758 53.766C531.248 54.368 531.913 54.669 532.753 54.669C533.943 54.669 534.72 54.137 535.084 53.073H538.255C537.933 54.333 537.296 55.334 536.344 56.076C535.392 56.818 534.202 57.189 532.774 57.189C531.654 57.189 530.66 56.944 529.792 56.454C528.924 55.95 528.245 55.25 527.755 54.354C527.265 53.444 527.02 52.387 527.02 51.183ZM539.652 51.141C539.652 49.965 539.883 48.922 540.345 48.012C540.821 47.102 541.458 46.402 542.256 45.912C543.068 45.422 543.971 45.177 544.965 45.177C545.833 45.177 546.589 45.352 547.233 45.702C547.891 46.052 548.416 46.493 548.808 47.025V45.366H551.769V57H548.808V55.299C548.43 55.845 547.905 56.3 547.233 56.664C546.575 57.014 545.812 57.189 544.944 57.189C543.964 57.189 543.068 56.937 542.256 56.433C541.458 55.929 540.821 55.222 540.345 54.312C539.883 53.388 539.652 52.331 539.652 51.141ZM548.808 51.183C548.808 50.469 548.668 49.86 548.388 49.356C548.108 48.838 547.73 48.446 547.254 48.18C546.778 47.9 546.267 47.76 545.721 47.76C545.175 47.76 544.671 47.893 544.209 48.159C543.747 48.425 543.369 48.817 543.075 49.335C542.795 49.839 542.655 50.441 542.655 51.141C542.655 51.841 542.795 52.457 543.075 52.989C543.369 53.507 543.747 53.906 544.209 54.186C544.685 54.466 545.189 54.606 545.721 54.606C546.267 54.606 546.778 54.473 547.254 54.207C547.73 53.927 548.108 53.535 548.388 53.031C548.668 52.513 548.808 51.897 548.808 51.183ZM557.854 53.913L555.397 59.814H553.507L554.872 53.913H557.854ZM571.865 57L567.917 52.044V57H564.977V41.46H567.917V50.301L571.823 45.366H575.645L570.521 51.204L575.687 57H571.865ZM576.485 51.141C576.485 49.965 576.716 48.922 577.178 48.012C577.654 47.102 578.291 46.402 579.089 45.912C579.901 45.422 580.804 45.177 581.798 45.177C582.666 45.177 583.422 45.352 584.066 45.702C584.724 46.052 585.249 46.493 585.641 47.025V45.366H588.602V57H585.641V55.299C585.263 55.845 584.738 56.3 584.066 56.664C583.408 57.014 582.645 57.189 581.777 57.189C580.797 57.189 579.901 56.937 579.089 56.433C578.291 55.929 577.654 55.222 577.178 54.312C576.716 53.388 576.485 52.331 576.485 51.141ZM585.641 51.183C585.641 50.469 585.501 49.86 585.221 49.356C584.941 48.838 584.563 48.446 584.087 48.18C583.611 47.9 583.1 47.76 582.554 47.76C582.008 47.76 581.504 47.893 581.042 48.159C580.58 48.425 580.202 48.817 579.908 49.335C579.628 49.839 579.488 50.441 579.488 51.141C579.488 51.841 579.628 52.457 579.908 52.989C580.202 53.507 580.58 53.906 581.042 54.186C581.518 54.466 582.022 54.606 582.554 54.606C583.1 54.606 583.611 54.473 584.087 54.207C584.563 53.927 584.941 53.535 585.221 53.031C585.501 52.513 585.641 51.897 585.641 51.183ZM605.921 45.198C607.349 45.198 608.497 45.639 609.365 46.521C610.247 47.389 610.688 48.607 610.688 50.175V57H607.748V50.574C607.748 49.664 607.517 48.971 607.055 48.495C606.593 48.005 605.963 47.76 605.165 47.76C604.367 47.76 603.73 48.005 603.254 48.495C602.792 48.971 602.561 49.664 602.561 50.574V57H599.621V50.574C599.621 49.664 599.39 48.971 598.928 48.495C598.466 48.005 597.836 47.76 597.038 47.76C596.226 47.76 595.582 48.005 595.106 48.495C594.644 48.971 594.413 49.664 594.413 50.574V57H591.473V45.366H594.413V46.773C594.791 46.283 595.274 45.898 595.862 45.618C596.464 45.338 597.122 45.198 597.836 45.198C598.746 45.198 599.558 45.394 600.272 45.786C600.986 46.164 601.539 46.71 601.931 47.424C602.309 46.752 602.855 46.213 603.569 45.807C604.297 45.401 605.081 45.198 605.921 45.198ZM624.461 45.366V57H621.5V55.53C621.122 56.034 620.625 56.433 620.009 56.727C619.407 57.007 618.749 57.147 618.035 57.147C617.125 57.147 616.32 56.958 615.62 56.58C614.92 56.188 614.367 55.621 613.961 54.879C613.569 54.123 613.373 53.227 613.373 52.191V45.366H616.313V51.771C616.313 52.695 616.544 53.409 617.006 53.913C617.468 54.403 618.098 54.648 618.896 54.648C619.708 54.648 620.345 54.403 620.807 53.913C621.269 53.409 621.5 52.695 621.5 51.771V45.366H624.461ZM631.61 51.141C631.61 49.965 631.841 48.922 632.303 48.012C632.779 47.102 633.423 46.402 634.235 45.912C635.047 45.422 635.95 45.177 636.944 45.177C637.7 45.177 638.421 45.345 639.107 45.681C639.793 46.003 640.339 46.437 640.745 46.983V41.46H643.727V57H640.745V55.278C640.381 55.852 639.87 56.314 639.212 56.664C638.554 57.014 637.791 57.189 636.923 57.189C635.943 57.189 635.047 56.937 634.235 56.433C633.423 55.929 632.779 55.222 632.303 54.312C631.841 53.388 631.61 52.331 631.61 51.141ZM640.766 51.183C640.766 50.469 640.626 49.86 640.346 49.356C640.066 48.838 639.688 48.446 639.212 48.18C638.736 47.9 638.225 47.76 637.679 47.76C637.133 47.76 636.629 47.893 636.167 48.159C635.705 48.425 635.327 48.817 635.033 49.335C634.753 49.839 634.613 50.441 634.613 51.141C634.613 51.841 634.753 52.457 635.033 52.989C635.327 53.507 635.705 53.906 636.167 54.186C636.643 54.466 637.147 54.606 637.679 54.606C638.225 54.606 638.736 54.473 639.212 54.207C639.688 53.927 640.066 53.535 640.346 53.031C640.626 52.513 640.766 51.897 640.766 51.183ZM648.089 43.98C647.571 43.98 647.137 43.819 646.787 43.497C646.451 43.161 646.283 42.748 646.283 42.258C646.283 41.768 646.451 41.362 646.787 41.04C647.137 40.704 647.571 40.536 648.089 40.536C648.607 40.536 649.034 40.704 649.37 41.04C649.72 41.362 649.895 41.768 649.895 42.258C649.895 42.748 649.72 43.161 649.37 43.497C649.034 43.819 648.607 43.98 648.089 43.98ZM649.538 45.366V57H646.598V45.366H649.538ZM659.331 57L655.383 52.044V57H652.443V41.46H655.383V50.301L659.289 45.366H663.111L657.987 51.204L663.153 57H659.331ZM675.521 50.931C675.521 51.351 675.493 51.729 675.437 52.065H666.932C667.002 52.905 667.296 53.563 667.814 54.039C668.332 54.515 668.969 54.753 669.725 54.753C670.817 54.753 671.594 54.284 672.056 53.346H675.227C674.891 54.466 674.247 55.39 673.295 56.118C672.343 56.832 671.174 57.189 669.788 57.189C668.668 57.189 667.66 56.944 666.764 56.454C665.882 55.95 665.189 55.243 664.685 54.333C664.195 53.423 663.95 52.373 663.95 51.183C663.95 49.979 664.195 48.922 664.685 48.012C665.175 47.102 665.861 46.402 666.743 45.912C667.625 45.422 668.64 45.177 669.788 45.177C670.894 45.177 671.881 45.415 672.749 45.891C673.631 46.367 674.31 47.046 674.786 47.928C675.276 48.796 675.521 49.797 675.521 50.931ZM672.476 50.091C672.462 49.335 672.189 48.733 671.657 48.285C671.125 47.823 670.474 47.592 669.704 47.592C668.976 47.592 668.36 47.816 667.856 48.264C667.366 48.698 667.065 49.307 666.953 50.091H672.476ZM684.114 45.198C685.5 45.198 686.62 45.639 687.474 46.521C688.328 47.389 688.755 48.607 688.755 50.175V57H685.815V50.574C685.815 49.65 685.584 48.943 685.122 48.453C684.66 47.949 684.03 47.697 683.232 47.697C682.42 47.697 681.776 47.949 681.3 48.453C680.838 48.943 680.607 49.65 680.607 50.574V57H677.667V45.366H680.607V46.815C680.999 46.311 681.496 45.919 682.098 45.639C682.714 45.345 683.386 45.198 684.114 45.198ZM690.795 51.141C690.795 49.965 691.026 48.922 691.488 48.012C691.964 47.102 692.601 46.402 693.399 45.912C694.211 45.422 695.114 45.177 696.108 45.177C696.976 45.177 697.732 45.352 698.376 45.702C699.034 46.052 699.559 46.493 699.951 47.025V45.366H702.912V57H699.951V55.299C699.573 55.845 699.048 56.3 698.376 56.664C697.718 57.014 696.955 57.189 696.087 57.189C695.107 57.189 694.211 56.937 693.399 56.433C692.601 55.929 691.964 55.222 691.488 54.312C691.026 53.388 690.795 52.331 690.795 51.141ZM699.951 51.183C699.951 50.469 699.811 49.86 699.531 49.356C699.251 48.838 698.873 48.446 698.397 48.18C697.921 47.9 697.41 47.76 696.864 47.76C696.318 47.76 695.814 47.893 695.352 48.159C694.89 48.425 694.512 48.817 694.218 49.335C693.938 49.839 693.798 50.441 693.798 51.141C693.798 51.841 693.938 52.457 694.218 52.989C694.512 53.507 694.89 53.906 695.352 54.186C695.828 54.466 696.332 54.606 696.864 54.606C697.41 54.606 697.921 54.473 698.397 54.207C698.873 53.927 699.251 53.535 699.531 53.031C699.811 52.513 699.951 51.897 699.951 51.183ZM708.723 41.46V57H705.783V41.46H708.723ZM715.876 51.141C715.876 49.965 716.107 48.922 716.569 48.012C717.045 47.102 717.689 46.402 718.501 45.912C719.313 45.422 720.216 45.177 721.21 45.177C721.966 45.177 722.687 45.345 723.373 45.681C724.059 46.003 724.605 46.437 725.011 46.983V41.46H727.993V57H725.011V55.278C724.647 55.852 724.136 56.314 723.478 56.664C722.82 57.014 722.057 57.189 721.189 57.189C720.209 57.189 719.313 56.937 718.501 56.433C717.689 55.929 717.045 55.222 716.569 54.312C716.107 53.388 715.876 52.331 715.876 51.141ZM725.032 51.183C725.032 50.469 724.892 49.86 724.612 49.356C724.332 48.838 723.954 48.446 723.478 48.18C723.002 47.9 722.491 47.76 721.945 47.76C721.399 47.76 720.895 47.893 720.433 48.159C719.971 48.425 719.593 48.817 719.299 49.335C719.019 49.839 718.879 50.441 718.879 51.141C718.879 51.841 719.019 52.457 719.299 52.989C719.593 53.507 719.971 53.906 720.433 54.186C720.909 54.466 721.413 54.606 721.945 54.606C722.491 54.606 723.002 54.473 723.478 54.207C723.954 53.927 724.332 53.535 724.612 53.031C724.892 52.513 725.032 51.897 725.032 51.183ZM741.848 45.366V57H738.887V55.53C738.509 56.034 738.012 56.433 737.396 56.727C736.794 57.007 736.136 57.147 735.422 57.147C734.512 57.147 733.707 56.958 733.007 56.58C732.307 56.188 731.754 55.621 731.348 54.879C730.956 54.123 730.76 53.227 730.76 52.191V45.366H733.7V51.771C733.7 52.695 733.931 53.409 734.393 53.913C734.855 54.403 735.485 54.648 736.283 54.648C737.095 54.648 737.732 54.403 738.194 53.913C738.656 53.409 738.887 52.695 738.887 51.771V45.366H741.848ZM751.195 45.198C752.581 45.198 753.701 45.639 754.555 46.521C755.409 47.389 755.836 48.607 755.836 50.175V57H752.896V50.574C752.896 49.65 752.665 48.943 752.203 48.453C751.741 47.949 751.111 47.697 750.313 47.697C749.501 47.697 748.857 47.949 748.381 48.453C747.919 48.943 747.688 49.65 747.688 50.574V57H744.748V45.366H747.688V46.815C748.08 46.311 748.577 45.919 749.179 45.639C749.795 45.345 750.467 45.198 751.195 45.198ZM760.123 43.98C759.605 43.98 759.171 43.819 758.821 43.497C758.485 43.161 758.317 42.748 758.317 42.258C758.317 41.768 758.485 41.362 758.821 41.04C759.171 40.704 759.605 40.536 760.123 40.536C760.641 40.536 761.068 40.704 761.404 41.04C761.754 41.362 761.929 41.768 761.929 42.258C761.929 42.748 761.754 43.161 761.404 43.497C761.068 43.819 760.641 43.98 760.123 43.98ZM761.572 45.366V57H758.632V45.366H761.572ZM763.721 51.141C763.721 49.965 763.952 48.922 764.414 48.012C764.89 47.102 765.527 46.402 766.325 45.912C767.137 45.422 768.04 45.177 769.034 45.177C769.902 45.177 770.658 45.352 771.302 45.702C771.96 46.052 772.485 46.493 772.877 47.025V45.366H775.838V57H772.877V55.299C772.499 55.845 771.974 56.3 771.302 56.664C770.644 57.014 769.881 57.189 769.013 57.189C768.033 57.189 767.137 56.937 766.325 56.433C765.527 55.929 764.89 55.222 764.414 54.312C763.952 53.388 763.721 52.331 763.721 51.141ZM772.877 51.183C772.877 50.469 772.737 49.86 772.457 49.356C772.177 48.838 771.799 48.446 771.323 48.18C770.847 47.9 770.336 47.76 769.79 47.76C769.244 47.76 768.74 47.893 768.278 48.159C767.816 48.425 767.438 48.817 767.144 49.335C766.864 49.839 766.724 50.441 766.724 51.141C766.724 51.841 766.864 52.457 767.144 52.989C767.438 53.507 767.816 53.906 768.278 54.186C768.754 54.466 769.258 54.606 769.79 54.606C770.336 54.606 770.847 54.473 771.323 54.207C771.799 53.927 772.177 53.535 772.457 53.031C772.737 52.513 772.877 51.897 772.877 51.183ZM780.011 57.147C779.479 57.147 779.038 56.986 778.688 56.664C778.352 56.328 778.184 55.915 778.184 55.425C778.184 54.935 778.352 54.529 778.688 54.207C779.038 53.871 779.479 53.703 780.011 53.703C780.529 53.703 780.956 53.871 781.292 54.207C781.628 54.529 781.796 54.935 781.796 55.425C781.796 55.915 781.628 56.328 781.292 56.664C780.956 56.986 780.529 57.147 780.011 57.147ZM794.292 42.342C795.832 42.342 797.183 42.643 798.345 43.245C799.521 43.847 800.424 44.708 801.054 45.828C801.698 46.934 802.02 48.222 802.02 49.692C802.02 51.162 801.698 52.45 801.054 53.556C800.424 54.648 799.521 55.495 798.345 56.097C797.183 56.699 795.832 57 794.292 57H789.168V42.342H794.292ZM794.187 54.501C795.727 54.501 796.917 54.081 797.757 53.241C798.597 52.401 799.017 51.218 799.017 49.692C799.017 48.166 798.597 46.976 797.757 46.122C796.917 45.254 795.727 44.82 794.187 44.82H792.108V54.501H794.187ZM815.036 50.931C815.036 51.351 815.008 51.729 814.952 52.065H806.447C806.517 52.905 806.811 53.563 807.329 54.039C807.847 54.515 808.484 54.753 809.24 54.753C810.332 54.753 811.109 54.284 811.571 53.346H814.742C814.406 54.466 813.762 55.39 812.81 56.118C811.858 56.832 810.689 57.189 809.303 57.189C808.183 57.189 807.175 56.944 806.279 56.454C805.397 55.95 804.704 55.243 804.2 54.333C803.71 53.423 803.465 52.373 803.465 51.183C803.465 49.979 803.71 48.922 804.2 48.012C804.69 47.102 805.376 46.402 806.258 45.912C807.14 45.422 808.155 45.177 809.303 45.177C810.409 45.177 811.396 45.415 812.264 45.891C813.146 46.367 813.825 47.046 814.301 47.928C814.791 48.796 815.036 49.797 815.036 50.931ZM811.991 50.091C811.977 49.335 811.704 48.733 811.172 48.285C810.64 47.823 809.989 47.592 809.219 47.592C808.491 47.592 807.875 47.816 807.371 48.264C806.881 48.698 806.58 49.307 806.468 50.091H811.991ZM823.629 45.198C825.015 45.198 826.135 45.639 826.989 46.521C827.843 47.389 828.27 48.607 828.27 50.175V57H825.33V50.574C825.33 49.65 825.099 48.943 824.637 48.453C824.175 47.949 823.545 47.697 822.747 47.697C821.935 47.697 821.291 47.949 820.815 48.453C820.353 48.943 820.122 49.65 820.122 50.574V57H817.182V45.366H820.122V46.815C820.514 46.311 821.011 45.919 821.613 45.639C822.229 45.345 822.901 45.198 823.629 45.198ZM835.623 45.177C836.491 45.177 837.254 45.352 837.912 45.702C838.57 46.038 839.088 46.479 839.466 47.025V45.366H842.427V57.084C842.427 58.162 842.21 59.121 841.776 59.961C841.342 60.815 840.691 61.487 839.823 61.977C838.955 62.481 837.905 62.733 836.673 62.733C835.021 62.733 833.663 62.348 832.599 61.578C831.549 60.808 830.954 59.758 830.814 58.428H833.733C833.887 58.96 834.216 59.38 834.72 59.688C835.238 60.01 835.861 60.171 836.589 60.171C837.443 60.171 838.136 59.912 838.668 59.394C839.2 58.89 839.466 58.12 839.466 57.084V55.278C839.088 55.824 838.563 56.279 837.891 56.643C837.233 57.007 836.477 57.189 835.623 57.189C834.643 57.189 833.747 56.937 832.935 56.433C832.123 55.929 831.479 55.222 831.003 54.312C830.541 53.388 830.31 52.331 830.31 51.141C830.31 49.965 830.541 48.922 831.003 48.012C831.479 47.102 832.116 46.402 832.914 45.912C833.726 45.422 834.629 45.177 835.623 45.177ZM839.466 51.183C839.466 50.469 839.326 49.86 839.046 49.356C838.766 48.838 838.388 48.446 837.912 48.18C837.436 47.9 836.925 47.76 836.379 47.76C835.833 47.76 835.329 47.893 834.867 48.159C834.405 48.425 834.027 48.817 833.733 49.335C833.453 49.839 833.313 50.441 833.313 51.141C833.313 51.841 833.453 52.457 833.733 52.989C834.027 53.507 834.405 53.906 834.867 54.186C835.343 54.466 835.847 54.606 836.379 54.606C836.925 54.606 837.436 54.473 837.912 54.207C838.388 53.927 838.766 53.535 839.046 53.031C839.326 52.513 839.466 51.897 839.466 51.183ZM844.542 51.141C844.542 49.965 844.773 48.922 845.235 48.012C845.711 47.102 846.348 46.402 847.146 45.912C847.958 45.422 848.861 45.177 849.855 45.177C850.723 45.177 851.479 45.352 852.123 45.702C852.781 46.052 853.306 46.493 853.698 47.025V45.366H856.659V57H853.698V55.299C853.32 55.845 852.795 56.3 852.123 56.664C851.465 57.014 850.702 57.189 849.834 57.189C848.854 57.189 847.958 56.937 847.146 56.433C846.348 55.929 845.711 55.222 845.235 54.312C844.773 53.388 844.542 52.331 844.542 51.141ZM853.698 51.183C853.698 50.469 853.558 49.86 853.278 49.356C852.998 48.838 852.62 48.446 852.144 48.18C851.668 47.9 851.157 47.76 850.611 47.76C850.065 47.76 849.561 47.893 849.099 48.159C848.637 48.425 848.259 48.817 847.965 49.335C847.685 49.839 847.545 50.441 847.545 51.141C847.545 51.841 847.685 52.457 847.965 52.989C848.259 53.507 848.637 53.906 849.099 54.186C849.575 54.466 850.079 54.606 850.611 54.606C851.157 54.606 851.668 54.473 852.144 54.207C852.62 53.927 852.998 53.535 853.278 53.031C853.558 52.513 853.698 51.897 853.698 51.183ZM865.978 45.198C867.364 45.198 868.484 45.639 869.338 46.521C870.192 47.389 870.619 48.607 870.619 50.175V57H867.679V50.574C867.679 49.65 867.448 48.943 866.986 48.453C866.524 47.949 865.894 47.697 865.096 47.697C864.284 47.697 863.64 47.949 863.164 48.453C862.702 48.943 862.471 49.65 862.471 50.574V57H859.531V45.366H862.471V46.815C862.863 46.311 863.36 45.919 863.962 45.639C864.578 45.345 865.25 45.198 865.978 45.198ZM892.866 45.198C894.294 45.198 895.442 45.639 896.31 46.521C897.192 47.389 897.633 48.607 897.633 50.175V57H894.693V50.574C894.693 49.664 894.462 48.971 894 48.495C893.538 48.005 892.908 47.76 892.11 47.76C891.312 47.76 890.675 48.005 890.199 48.495C889.737 48.971 889.506 49.664 889.506 50.574V57H886.566V50.574C886.566 49.664 886.335 48.971 885.873 48.495C885.411 48.005 884.781 47.76 883.983 47.76C883.171 47.76 882.527 48.005 882.051 48.495C881.589 48.971 881.358 49.664 881.358 50.574V57H878.418V45.366H881.358V46.773C881.736 46.283 882.219 45.898 882.807 45.618C883.409 45.338 884.067 45.198 884.781 45.198C885.691 45.198 886.503 45.394 887.217 45.786C887.931 46.164 888.484 46.71 888.876 47.424C889.254 46.752 889.8 46.213 890.514 45.807C891.242 45.401 892.026 45.198 892.866 45.198ZM911.238 50.931C911.238 51.351 911.21 51.729 911.154 52.065H902.649C902.719 52.905 903.013 53.563 903.531 54.039C904.049 54.515 904.686 54.753 905.442 54.753C906.534 54.753 907.311 54.284 907.773 53.346H910.944C910.608 54.466 909.964 55.39 909.012 56.118C908.06 56.832 906.891 57.189 905.505 57.189C904.385 57.189 903.377 56.944 902.481 56.454C901.599 55.95 900.906 55.243 900.402 54.333C899.912 53.423 899.667 52.373 899.667 51.183C899.667 49.979 899.912 48.922 900.402 48.012C900.892 47.102 901.578 46.402 902.46 45.912C903.342 45.422 904.357 45.177 905.505 45.177C906.611 45.177 907.598 45.415 908.466 45.891C909.348 46.367 910.027 47.046 910.503 47.928C910.993 48.796 911.238 49.797 911.238 50.931ZM908.193 50.091C908.179 49.335 907.906 48.733 907.374 48.285C906.842 47.823 906.191 47.592 905.421 47.592C904.693 47.592 904.077 47.816 903.573 48.264C903.083 48.698 902.782 49.307 902.67 50.091H908.193ZM919.831 45.198C921.217 45.198 922.337 45.639 923.191 46.521C924.045 47.389 924.472 48.607 924.472 50.175V57H921.532V50.574C921.532 49.65 921.301 48.943 920.839 48.453C920.377 47.949 919.747 47.697 918.949 47.697C918.137 47.697 917.493 47.949 917.017 48.453C916.555 48.943 916.324 49.65 916.324 50.574V57H913.384V45.366H916.324V46.815C916.716 46.311 917.213 45.919 917.815 45.639C918.431 45.345 919.103 45.198 919.831 45.198ZM938.251 45.366V57H935.29V55.53C934.912 56.034 934.415 56.433 933.799 56.727C933.197 57.007 932.539 57.147 931.825 57.147C930.915 57.147 930.11 56.958 929.41 56.58C928.71 56.188 928.157 55.621 927.751 54.879C927.359 54.123 927.163 53.227 927.163 52.191V45.366H930.103V51.771C930.103 52.695 930.334 53.409 930.796 53.913C931.258 54.403 931.888 54.648 932.686 54.648C933.498 54.648 934.135 54.403 934.597 53.913C935.059 53.409 935.29 52.695 935.29 51.771V45.366H938.251ZM944.092 41.46V57H941.152V41.46H944.092ZM948.487 43.98C947.969 43.98 947.535 43.819 947.185 43.497C946.849 43.161 946.681 42.748 946.681 42.258C946.681 41.768 946.849 41.362 947.185 41.04C947.535 40.704 947.969 40.536 948.487 40.536C949.005 40.536 949.432 40.704 949.768 41.04C950.118 41.362 950.293 41.768 950.293 42.258C950.293 42.748 950.118 43.161 949.768 43.497C949.432 43.819 949.005 43.98 948.487 43.98ZM949.936 45.366V57H946.996V45.366H949.936ZM957.293 57.189C956.341 57.189 955.487 57.021 954.731 56.685C953.975 56.335 953.373 55.866 952.925 55.278C952.491 54.69 952.253 54.039 952.211 53.325H955.172C955.228 53.773 955.445 54.144 955.823 54.438C956.215 54.732 956.698 54.879 957.272 54.879C957.832 54.879 958.266 54.767 958.574 54.543C958.896 54.319 959.057 54.032 959.057 53.682C959.057 53.304 958.861 53.024 958.469 52.842C958.091 52.646 957.482 52.436 956.642 52.212C955.774 52.002 955.06 51.785 954.5 51.561C953.954 51.337 953.478 50.994 953.072 50.532C952.68 50.07 952.484 49.447 952.484 48.663C952.484 48.019 952.666 47.431 953.03 46.899C953.408 46.367 953.94 45.947 954.626 45.639C955.326 45.331 956.145 45.177 957.083 45.177C958.469 45.177 959.575 45.527 960.401 46.227C961.227 46.913 961.682 47.844 961.766 49.02H958.952C958.91 48.558 958.714 48.194 958.364 47.928C958.028 47.648 957.573 47.508 956.999 47.508C956.467 47.508 956.054 47.606 955.76 47.802C955.48 47.998 955.34 48.271 955.34 48.621C955.34 49.013 955.536 49.314 955.928 49.524C956.32 49.72 956.929 49.923 957.755 50.133C958.595 50.343 959.288 50.56 959.834 50.784C960.38 51.008 960.849 51.358 961.241 51.834C961.647 52.296 961.857 52.912 961.871 53.682C961.871 54.354 961.682 54.956 961.304 55.488C960.94 56.02 960.408 56.44 959.708 56.748C959.022 57.042 958.217 57.189 957.293 57.189ZM967.497 53.913L965.04 59.814H963.15L964.515 53.913H967.497ZM981.508 57L977.56 52.044V57H974.62V41.46H977.56V50.301L981.466 45.366H985.288L980.164 51.204L985.33 57H981.508ZM986.128 51.141C986.128 49.965 986.359 48.922 986.821 48.012C987.297 47.102 987.934 46.402 988.732 45.912C989.544 45.422 990.447 45.177 991.441 45.177C992.309 45.177 993.065 45.352 993.709 45.702C994.367 46.052 994.892 46.493 995.284 47.025V45.366H998.245V57H995.284V55.299C994.906 55.845 994.381 56.3 993.709 56.664C993.051 57.014 992.288 57.189 991.42 57.189C990.44 57.189 989.544 56.937 988.732 56.433C987.934 55.929 987.297 55.222 986.821 54.312C986.359 53.388 986.128 52.331 986.128 51.141ZM995.284 51.183C995.284 50.469 995.144 49.86 994.864 49.356C994.584 48.838 994.206 48.446 993.73 48.18C993.254 47.9 992.743 47.76 992.197 47.76C991.651 47.76 991.147 47.893 990.685 48.159C990.223 48.425 989.845 48.817 989.551 49.335C989.271 49.839 989.131 50.441 989.131 51.141C989.131 51.841 989.271 52.457 989.551 52.989C989.845 53.507 990.223 53.906 990.685 54.186C991.161 54.466 991.665 54.606 992.197 54.606C992.743 54.606 993.254 54.473 993.73 54.207C994.206 53.927 994.584 53.535 994.864 53.031C995.144 52.513 995.284 51.897 995.284 51.183ZM1015.56 45.198C1016.99 45.198 1018.14 45.639 1019.01 46.521C1019.89 47.389 1020.33 48.607 1020.33 50.175V57H1017.39V50.574C1017.39 49.664 1017.16 48.971 1016.7 48.495C1016.24 48.005 1015.61 47.76 1014.81 47.76C1014.01 47.76 1013.37 48.005 1012.9 48.495C1012.44 48.971 1012.2 49.664 1012.2 50.574V57H1009.26V50.574C1009.26 49.664 1009.03 48.971 1008.57 48.495C1008.11 48.005 1007.48 47.76 1006.68 47.76C1005.87 47.76 1005.23 48.005 1004.75 48.495C1004.29 48.971 1004.06 49.664 1004.06 50.574V57H1001.12V45.366H1004.06V46.773C1004.43 46.283 1004.92 45.898 1005.51 45.618C1006.11 45.338 1006.77 45.198 1007.48 45.198C1008.39 45.198 1009.2 45.394 1009.92 45.786C1010.63 46.164 1011.18 46.71 1011.57 47.424C1011.95 46.752 1012.5 46.213 1013.21 45.807C1013.94 45.401 1014.72 45.198 1015.56 45.198ZM1034.1 45.366V57H1031.14V55.53C1030.77 56.034 1030.27 56.433 1029.65 56.727C1029.05 57.007 1028.39 57.147 1027.68 57.147C1026.77 57.147 1025.96 56.958 1025.26 56.58C1024.56 56.188 1024.01 55.621 1023.6 54.879C1023.21 54.123 1023.02 53.227 1023.02 52.191V45.366H1025.96V51.771C1025.96 52.695 1026.19 53.409 1026.65 53.913C1027.11 54.403 1027.74 54.648 1028.54 54.648C1029.35 54.648 1029.99 54.403 1030.45 53.913C1030.91 53.409 1031.14 52.695 1031.14 51.771V45.366H1034.1ZM1041.25 51.141C1041.25 49.965 1041.48 48.922 1041.95 48.012C1042.42 47.102 1043.07 46.402 1043.88 45.912C1044.69 45.422 1045.59 45.177 1046.59 45.177C1047.34 45.177 1048.06 45.345 1048.75 45.681C1049.44 46.003 1049.98 46.437 1050.39 46.983V41.46H1053.37V57H1050.39V55.278C1050.02 55.852 1049.51 56.314 1048.86 56.664C1048.2 57.014 1047.43 57.189 1046.57 57.189C1045.59 57.189 1044.69 56.937 1043.88 56.433C1043.07 55.929 1042.42 55.222 1041.95 54.312C1041.48 53.388 1041.25 52.331 1041.25 51.141ZM1050.41 51.183C1050.41 50.469 1050.27 49.86 1049.99 49.356C1049.71 48.838 1049.33 48.446 1048.86 48.18C1048.38 47.9 1047.87 47.76 1047.32 47.76C1046.78 47.76 1046.27 47.893 1045.81 48.159C1045.35 48.425 1044.97 48.817 1044.68 49.335C1044.4 49.839 1044.26 50.441 1044.26 51.141C1044.26 51.841 1044.4 52.457 1044.68 52.989C1044.97 53.507 1045.35 53.906 1045.81 54.186C1046.29 54.466 1046.79 54.606 1047.32 54.606C1047.87 54.606 1048.38 54.473 1048.86 54.207C1049.33 53.927 1049.71 53.535 1049.99 53.031C1050.27 52.513 1050.41 51.897 1050.41 51.183ZM1057.73 43.98C1057.21 43.98 1056.78 43.819 1056.43 43.497C1056.09 43.161 1055.93 42.748 1055.93 42.258C1055.93 41.768 1056.09 41.362 1056.43 41.04C1056.78 40.704 1057.21 40.536 1057.73 40.536C1058.25 40.536 1058.68 40.704 1059.01 41.04C1059.36 41.362 1059.54 41.768 1059.54 42.258C1059.54 42.748 1059.36 43.161 1059.01 43.497C1058.68 43.819 1058.25 43.98 1057.73 43.98ZM1059.18 45.366V57H1056.24V45.366H1059.18ZM1068.97 57L1065.03 52.044V57H1062.09V41.46H1065.03V50.301L1068.93 45.366H1072.75L1067.63 51.204L1072.8 57H1068.97ZM1085.16 50.931C1085.16 51.351 1085.14 51.729 1085.08 52.065H1076.58C1076.65 52.905 1076.94 53.563 1077.46 54.039C1077.98 54.515 1078.61 54.753 1079.37 54.753C1080.46 54.753 1081.24 54.284 1081.7 53.346H1084.87C1084.53 54.466 1083.89 55.39 1082.94 56.118C1081.99 56.832 1080.82 57.189 1079.43 57.189C1078.31 57.189 1077.3 56.944 1076.41 56.454C1075.53 55.95 1074.83 55.243 1074.33 54.333C1073.84 53.423 1073.59 52.373 1073.59 51.183C1073.59 49.979 1073.84 48.922 1074.33 48.012C1074.82 47.102 1075.5 46.402 1076.39 45.912C1077.27 45.422 1078.28 45.177 1079.43 45.177C1080.54 45.177 1081.52 45.415 1082.39 45.891C1083.27 46.367 1083.95 47.046 1084.43 47.928C1084.92 48.796 1085.16 49.797 1085.16 50.931ZM1082.12 50.091C1082.11 49.335 1081.83 48.733 1081.3 48.285C1080.77 47.823 1080.12 47.592 1079.35 47.592C1078.62 47.592 1078 47.816 1077.5 48.264C1077.01 48.698 1076.71 49.307 1076.6 50.091H1082.12ZM1093.76 45.198C1095.14 45.198 1096.26 45.639 1097.12 46.521C1097.97 47.389 1098.4 48.607 1098.4 50.175V57H1095.46V50.574C1095.46 49.65 1095.23 48.943 1094.77 48.453C1094.3 47.949 1093.67 47.697 1092.88 47.697C1092.06 47.697 1091.42 47.949 1090.94 48.453C1090.48 48.943 1090.25 49.65 1090.25 50.574V57H1087.31V45.366H1090.25V46.815C1090.64 46.311 1091.14 45.919 1091.74 45.639C1092.36 45.345 1093.03 45.198 1093.76 45.198ZM1100.44 51.141C1100.44 49.965 1100.67 48.922 1101.13 48.012C1101.61 47.102 1102.24 46.402 1103.04 45.912C1103.85 45.422 1104.76 45.177 1105.75 45.177C1106.62 45.177 1107.38 45.352 1108.02 45.702C1108.68 46.052 1109.2 46.493 1109.59 47.025V45.366H1112.56V57H1109.59V55.299C1109.22 55.845 1108.69 56.3 1108.02 56.664C1107.36 57.014 1106.6 57.189 1105.73 57.189C1104.75 57.189 1103.85 56.937 1103.04 56.433C1102.24 55.929 1101.61 55.222 1101.13 54.312C1100.67 53.388 1100.44 52.331 1100.44 51.141ZM1109.59 51.183C1109.59 50.469 1109.45 49.86 1109.17 49.356C1108.89 48.838 1108.52 48.446 1108.04 48.18C1107.56 47.9 1107.05 47.76 1106.51 47.76C1105.96 47.76 1105.46 47.893 1105 48.159C1104.53 48.425 1104.16 48.817 1103.86 49.335C1103.58 49.839 1103.44 50.441 1103.44 51.141C1103.44 51.841 1103.58 52.457 1103.86 52.989C1104.16 53.507 1104.53 53.906 1105 54.186C1105.47 54.466 1105.98 54.606 1106.51 54.606C1107.05 54.606 1107.56 54.473 1108.04 54.207C1108.52 53.927 1108.89 53.535 1109.17 53.031C1109.45 52.513 1109.59 51.897 1109.59 51.183ZM1118.37 41.46V57H1115.43V41.46H1118.37ZM1125.52 51.141C1125.52 49.965 1125.75 48.922 1126.21 48.012C1126.69 47.102 1127.33 46.402 1128.14 45.912C1128.96 45.422 1129.86 45.177 1130.85 45.177C1131.61 45.177 1132.33 45.345 1133.02 45.681C1133.7 46.003 1134.25 46.437 1134.65 46.983V41.46H1137.64V57H1134.65V55.278C1134.29 55.852 1133.78 56.314 1133.12 56.664C1132.46 57.014 1131.7 57.189 1130.83 57.189C1129.85 57.189 1128.96 56.937 1128.14 56.433C1127.33 55.929 1126.69 55.222 1126.21 54.312C1125.75 53.388 1125.52 52.331 1125.52 51.141ZM1134.68 51.183C1134.68 50.469 1134.54 49.86 1134.26 49.356C1133.98 48.838 1133.6 48.446 1133.12 48.18C1132.65 47.9 1132.13 47.76 1131.59 47.76C1131.04 47.76 1130.54 47.893 1130.08 48.159C1129.61 48.425 1129.24 48.817 1128.94 49.335C1128.66 49.839 1128.52 50.441 1128.52 51.141C1128.52 51.841 1128.66 52.457 1128.94 52.989C1129.24 53.507 1129.61 53.906 1130.08 54.186C1130.55 54.466 1131.06 54.606 1131.59 54.606C1132.13 54.606 1132.65 54.473 1133.12 54.207C1133.6 53.927 1133.98 53.535 1134.26 53.031C1134.54 52.513 1134.68 51.897 1134.68 51.183ZM1151.49 45.366V57H1148.53V55.53C1148.15 56.034 1147.66 56.433 1147.04 56.727C1146.44 57.007 1145.78 57.147 1145.07 57.147C1144.16 57.147 1143.35 56.958 1142.65 56.58C1141.95 56.188 1141.4 55.621 1140.99 54.879C1140.6 54.123 1140.4 53.227 1140.4 52.191V45.366H1143.34V51.771C1143.34 52.695 1143.57 53.409 1144.04 53.913C1144.5 54.403 1145.13 54.648 1145.93 54.648C1146.74 54.648 1147.38 54.403 1147.84 53.913C1148.3 53.409 1148.53 52.695 1148.53 51.771V45.366H1151.49ZM1160.84 45.198C1162.22 45.198 1163.34 45.639 1164.2 46.521C1165.05 47.389 1165.48 48.607 1165.48 50.175V57H1162.54V50.574C1162.54 49.65 1162.31 48.943 1161.85 48.453C1161.38 47.949 1160.75 47.697 1159.96 47.697C1159.14 47.697 1158.5 47.949 1158.02 48.453C1157.56 48.943 1157.33 49.65 1157.33 50.574V57H1154.39V45.366H1157.33V46.815C1157.72 46.311 1158.22 45.919 1158.82 45.639C1159.44 45.345 1160.11 45.198 1160.84 45.198ZM1169.77 43.98C1169.25 43.98 1168.81 43.819 1168.46 43.497C1168.13 43.161 1167.96 42.748 1167.96 42.258C1167.96 41.768 1168.13 41.362 1168.46 41.04C1168.81 40.704 1169.25 40.536 1169.77 40.536C1170.28 40.536 1170.71 40.704 1171.05 41.04C1171.4 41.362 1171.57 41.768 1171.57 42.258C1171.57 42.748 1171.4 43.161 1171.05 43.497C1170.71 43.819 1170.28 43.98 1169.77 43.98ZM1171.22 45.366V57H1168.28V45.366H1171.22ZM1173.36 51.141C1173.36 49.965 1173.6 48.922 1174.06 48.012C1174.53 47.102 1175.17 46.402 1175.97 45.912C1176.78 45.422 1177.68 45.177 1178.68 45.177C1179.55 45.177 1180.3 45.352 1180.95 45.702C1181.6 46.052 1182.13 46.493 1182.52 47.025V45.366H1185.48V57H1182.52V55.299C1182.14 55.845 1181.62 56.3 1180.95 56.664C1180.29 57.014 1179.52 57.189 1178.66 57.189C1177.68 57.189 1176.78 56.937 1175.97 56.433C1175.17 55.929 1174.53 55.222 1174.06 54.312C1173.6 53.388 1173.36 52.331 1173.36 51.141ZM1182.52 51.183C1182.52 50.469 1182.38 49.86 1182.1 49.356C1181.82 48.838 1181.44 48.446 1180.97 48.18C1180.49 47.9 1179.98 47.76 1179.43 47.76C1178.89 47.76 1178.38 47.893 1177.92 48.159C1177.46 48.425 1177.08 48.817 1176.79 49.335C1176.51 49.839 1176.37 50.441 1176.37 51.141C1176.37 51.841 1176.51 52.457 1176.79 52.989C1177.08 53.507 1177.46 53.906 1177.92 54.186C1178.4 54.466 1178.9 54.606 1179.43 54.606C1179.98 54.606 1180.49 54.473 1180.97 54.207C1181.44 53.927 1181.82 53.535 1182.1 53.031C1182.38 52.513 1182.52 51.897 1182.52 51.183ZM1189.65 57.147C1189.12 57.147 1188.68 56.986 1188.33 56.664C1188 56.328 1187.83 55.915 1187.83 55.425C1187.83 54.935 1188 54.529 1188.33 54.207C1188.68 53.871 1189.12 53.703 1189.65 53.703C1190.17 53.703 1190.6 53.871 1190.94 54.207C1191.27 54.529 1191.44 54.935 1191.44 55.425C1191.44 55.915 1191.27 56.328 1190.94 56.664C1190.6 56.986 1190.17 57.147 1189.65 57.147ZM1194.4 42.342H1197.48L1195.21 47.634H1193.2L1194.4 42.342ZM1198.64 42.342H1201.72L1199.46 47.634H1197.44L1198.64 42.342Z" fill="white"/>
</g>
</g>
<defs>
<filter id="filter0_d_1205_22" x="0" y="0" width="1543" height="108" filterUnits="userSpaceOnUse" color-interpolation-filters="sRGB">
<feFlood flood-opacity="0" result="BackgroundImageFix"/>
<feColorMatrix in="SourceAlpha" type="matrix" values="0 0 0 0 0 0 0 0 0 0 0 0 0 0 0 0 0 0 127 0" result="hardAlpha"/>
<feOffset dy="4"/>
<feGaussianBlur stdDeviation="2"/>
<feComposite in2="hardAlpha" operator="out"/>
<feColorMatrix type="matrix" values="0 0 0 0 0 0 0 0 0 0 0 0 0 0 0 0 0 0 0.25 0"/>
<feBlend mode="normal" in2="BackgroundImageFix" result="effect1_dropShadow_1205_22"/>
<feBlend mode="normal" in="SourceGraphic" in2="effect1_dropShadow_1205_22" result="shape"/>
</filter>
<clipPath id="clip0_1205_22">
<rect x="4" width="1535" height="100" rx="10" fill="white"/>
</clipPath>
<clipPath id="clip1_1205_22">
<rect width="1920" height="1080" fill="white" transform="translate(-143 -428)"/>
</clipPath>
</defs>
</svg>
