<svg width="55" height="55" viewBox="0 0 55 55" fill="none" xmlns="http://www.w3.org/2000/svg">
<rect width="55" height="55" rx="27.5" fill="#190482"/>
<g clip-path="url(#clip0_298_720)">
<path d="M43.5111 46L32.3111 34.8C31.4222 35.5111 30.4 36.0741 29.2444 36.4889C28.0889 36.9037 26.8593 37.1111 25.5556 37.1111C22.3259 37.1111 19.5926 35.9926 17.3556 33.7556C15.1185 31.5185 14 28.7852 14 25.5556C14 22.3259 15.1185 19.5926 17.3556 17.3556C19.5926 15.1185 22.3259 14 25.5556 14C28.7852 14 31.5185 15.1185 33.7556 17.3556C35.9926 19.5926 37.1111 22.3259 37.1111 25.5556C37.1111 26.8593 36.9037 28.0889 36.4889 29.2444C36.0741 30.4 35.5111 31.4222 34.8 32.3111L46 43.5111L43.5111 46ZM25.5556 33.5556C27.7778 33.5556 29.6667 32.7778 31.2222 31.2222C32.7778 29.6667 33.5556 27.7778 33.5556 25.5556C33.5556 23.3333 32.7778 21.4444 31.2222 19.8889C29.6667 18.3333 27.7778 17.5556 25.5556 17.5556C23.3333 17.5556 21.4444 18.3333 19.8889 19.8889C18.3333 21.4444 17.5556 23.3333 17.5556 25.5556C17.5556 27.7778 18.3333 29.6667 19.8889 31.2222C21.4444 32.7778 23.3333 33.5556 25.5556 33.5556Z" fill="white"/>
</g>
<defs>
<clipPath id="clip0_298_720">
<rect width="32" height="32" fill="white" transform="translate(10 10)"/>
</clipPath>
</defs>
</svg>
