<svg width="1543" height="73" viewBox="0 0 1543 73" fill="none" xmlns="http://www.w3.org/2000/svg">
<g filter="url(#filter0_d_1205_22)">
<g clip-path="url(#clip0_1205_22)">
<g clip-path="url(#clip1_1205_22)">
<path d="M1777 -428H-143V652H1777V-428Z" fill="#001220"/>
<path d="M1540 544C1403.7 540 1267.3 536.1 1168 470C1068.8 404 1006.6 275.8 935.4 176.6C864.3 77.3 784.2 7.00001 721.4 -88.9C658.7 -184.9 613.4 -306.4 568 -428H1540V544Z" fill="#0C1C30"/>
<path d="M1540 422.5C1420.7 419 1301.4 415.6 1214.5 357.8C1127.7 300 1073.2 187.8 1011 101C948.7 14.2 878.7 -47.4 823.8 -131.3C768.9 -215.3 729.2 -321.6 689.5 -428H1540V422.5Z" fill="#312C4F"/>
<path d="M1540 301C1437.7 298 1335.5 295 1261 245.5C1186.6 196 1139.9 99.9 1086.6 25.4C1033.2 -49 973.1 -101.7 926.1 -173.7C879 -245.7 845 -336.8 811 -428H1540V301Z" fill="#623965"/>
<path d="M1540 179.5C1454.8 177 1369.6 174.5 1307.5 133.3C1245.5 92 1206.6 11.9 1162.1 -50.1C1117.7 -112.2 1067.6 -156.1 1028.4 -216.1C989.2 -276.1 960.8 -352 932.5 -428H1540V179.5Z" fill="#96446E"/>
<path d="M1540 58C1471.8 56 1403.7 54 1354 21C1304.4 -12 1273.3 -76.1 1237.7 -125.7C1202.1 -175.3 1162.1 -210.5 1130.7 -258.5C1099.4 -306.4 1076.7 -367.2 1054 -428H1540V58Z" fill="#C55469"/>
<path d="M-54 -671C64 -646.3 181.9 -621.7 312.2 -583.2C442.5 -544.6 585.2 -492.2 633.3 -386.3C681.4 -280.4 634.9 -121 666.6 2.5C698.3 126 808.2 213.5 918 301H-54V-671Z" fill="#0C1C30"/>
<path d="M-54 -549.5C49.2 -527.9 152.4 -506.3 266.4 -472.6C380.5 -438.9 505.3 -393.1 547.4 -300.4C589.5 -207.7 548.8 -68.2 576.5 39.8C604.3 147.9 700.4 224.4 796.5 301H-54V-549.5Z" fill="#312C4F"/>
<path d="M-54 -428C34.5 -409.5 122.9 -391 220.7 -362.1C318.4 -333.2 425.4 -293.9 461.5 -214.5C497.6 -135 462.7 -15.5 486.5 77.1C510.2 169.7 592.6 235.4 675 301H-54V-428Z" fill="#623965"/>
<path d="M-54 -306.5C19.7 -291.1 93.4 -275.7 174.9 -251.6C256.3 -227.5 345.5 -194.8 375.6 -128.6C405.6 -62.4 376.6 37.3 396.4 114.4C416.2 191.6 484.8 246.3 553.5 301H-54V-306.5Z" fill="#96446E"/>
<path d="M-54 -185C5 -172.7 64 -160.3 129.1 -141.1C194.3 -121.8 265.6 -95.6 289.7 -42.7C313.7 10.3 290.5 90 306.3 151.8C322.2 213.5 377.1 257.2 432 301H-54V-185Z" fill="#C55469"/>
<path d="M-54 -63.5C-9.8 -54.3 34.5 -45 83.3 -30.6C132.2 -16.1 185.7 3.49999 203.7 43.3C221.8 83 204.4 142.8 216.2 189.1C228.1 235.4 269.3 268.2 310.5 301H-54V-63.5Z" fill="#E9705A"/>
<path d="M-54 58C-24.5 64.2 5 70.3 37.6 80C70.1 89.6 105.8 102.7 117.8 129.2C129.9 155.7 118.2 195.5 126.2 226.4C134.1 257.2 161.5 279.1 189 301H-54V58Z" fill="#FA9845"/>
</g>
<path d="M345.392 30.634H342.284L344.552 25.342H346.589L345.392 30.634ZM349.634 30.634H346.526L348.794 25.342H350.831L349.634 30.634ZM358.214 25.342C359.754 25.342 361.105 25.643 362.267 26.245C363.443 26.847 364.346 27.708 364.976 28.828C365.62 29.934 365.942 31.222 365.942 32.692C365.942 34.162 365.62 35.45 364.976 36.556C364.346 37.648 363.443 38.495 362.267 39.097C361.105 39.699 359.754 40 358.214 40H353.09V25.342H358.214ZM358.109 37.501C359.649 37.501 360.839 37.081 361.679 36.241C362.519 35.401 362.939 34.218 362.939 32.692C362.939 31.166 362.519 29.976 361.679 29.122C360.839 28.254 359.649 27.82 358.109 27.82H356.03V37.501H358.109ZM378.958 33.931C378.958 34.351 378.93 34.729 378.874 35.065H370.369C370.439 35.905 370.733 36.563 371.251 37.039C371.769 37.515 372.406 37.753 373.162 37.753C374.254 37.753 375.031 37.284 375.493 36.346H378.664C378.328 37.466 377.684 38.39 376.732 39.118C375.78 39.832 374.611 40.189 373.225 40.189C372.105 40.189 371.097 39.944 370.201 39.454C369.319 38.95 368.626 38.243 368.122 37.333C367.632 36.423 367.387 35.373 367.387 34.183C367.387 32.979 367.632 31.922 368.122 31.012C368.612 30.102 369.298 29.402 370.18 28.912C371.062 28.422 372.077 28.177 373.225 28.177C374.331 28.177 375.318 28.415 376.186 28.891C377.068 29.367 377.747 30.046 378.223 30.928C378.713 31.796 378.958 32.797 378.958 33.931ZM375.913 33.091C375.899 32.335 375.626 31.733 375.094 31.285C374.562 30.823 373.911 30.592 373.141 30.592C372.413 30.592 371.797 30.816 371.293 31.264C370.803 31.698 370.502 32.307 370.39 33.091H375.913ZM387.551 28.198C388.937 28.198 390.057 28.639 390.911 29.521C391.765 30.389 392.192 31.607 392.192 33.175V40H389.252V33.574C389.252 32.65 389.021 31.943 388.559 31.453C388.097 30.949 387.467 30.697 386.669 30.697C385.857 30.697 385.213 30.949 384.737 31.453C384.275 31.943 384.044 32.65 384.044 33.574V40H381.104V28.366H384.044V29.815C384.436 29.311 384.933 28.919 385.535 28.639C386.151 28.345 386.823 28.198 387.551 28.198ZM399.545 28.177C400.413 28.177 401.176 28.352 401.834 28.702C402.492 29.038 403.01 29.479 403.388 30.025V28.366H406.349V40.084C406.349 41.162 406.132 42.121 405.698 42.961C405.264 43.815 404.613 44.487 403.745 44.977C402.877 45.481 401.827 45.733 400.595 45.733C398.943 45.733 397.585 45.348 396.521 44.578C395.471 43.808 394.876 42.758 394.736 41.428H397.655C397.809 41.96 398.138 42.38 398.642 42.688C399.16 43.01 399.783 43.171 400.511 43.171C401.365 43.171 402.058 42.912 402.59 42.394C403.122 41.89 403.388 41.12 403.388 40.084V38.278C403.01 38.824 402.485 39.279 401.813 39.643C401.155 40.007 400.399 40.189 399.545 40.189C398.565 40.189 397.669 39.937 396.857 39.433C396.045 38.929 395.401 38.222 394.925 37.312C394.463 36.388 394.232 35.331 394.232 34.141C394.232 32.965 394.463 31.922 394.925 31.012C395.401 30.102 396.038 29.402 396.836 28.912C397.648 28.422 398.551 28.177 399.545 28.177ZM403.388 34.183C403.388 33.469 403.248 32.86 402.968 32.356C402.688 31.838 402.31 31.446 401.834 31.18C401.358 30.9 400.847 30.76 400.301 30.76C399.755 30.76 399.251 30.893 398.789 31.159C398.327 31.425 397.949 31.817 397.655 32.335C397.375 32.839 397.235 33.441 397.235 34.141C397.235 34.841 397.375 35.457 397.655 35.989C397.949 36.507 398.327 36.906 398.789 37.186C399.265 37.466 399.769 37.606 400.301 37.606C400.847 37.606 401.358 37.473 401.834 37.207C402.31 36.927 402.688 36.535 402.968 36.031C403.248 35.513 403.388 34.897 403.388 34.183ZM408.464 34.141C408.464 32.965 408.695 31.922 409.157 31.012C409.633 30.102 410.27 29.402 411.068 28.912C411.88 28.422 412.783 28.177 413.777 28.177C414.645 28.177 415.401 28.352 416.045 28.702C416.703 29.052 417.228 29.493 417.62 30.025V28.366H420.581V40H417.62V38.299C417.242 38.845 416.717 39.3 416.045 39.664C415.387 40.014 414.624 40.189 413.756 40.189C412.776 40.189 411.88 39.937 411.068 39.433C410.27 38.929 409.633 38.222 409.157 37.312C408.695 36.388 408.464 35.331 408.464 34.141ZM417.62 34.183C417.62 33.469 417.48 32.86 417.2 32.356C416.92 31.838 416.542 31.446 416.066 31.18C415.59 30.9 415.079 30.76 414.533 30.76C413.987 30.76 413.483 30.893 413.021 31.159C412.559 31.425 412.181 31.817 411.887 32.335C411.607 32.839 411.467 33.441 411.467 34.141C411.467 34.841 411.607 35.457 411.887 35.989C412.181 36.507 412.559 36.906 413.021 37.186C413.497 37.466 414.001 37.606 414.533 37.606C415.079 37.606 415.59 37.473 416.066 37.207C416.542 36.927 416.92 36.535 417.2 36.031C417.48 35.513 417.62 34.897 417.62 34.183ZM429.899 28.198C431.285 28.198 432.405 28.639 433.259 29.521C434.113 30.389 434.54 31.607 434.54 33.175V40H431.6V33.574C431.6 32.65 431.369 31.943 430.907 31.453C430.445 30.949 429.815 30.697 429.017 30.697C428.205 30.697 427.561 30.949 427.085 31.453C426.623 31.943 426.392 32.65 426.392 33.574V40H423.452V28.366H426.392V29.815C426.784 29.311 427.281 28.919 427.883 28.639C428.499 28.345 429.171 28.198 429.899 28.198ZM456.788 28.198C458.216 28.198 459.364 28.639 460.232 29.521C461.114 30.389 461.555 31.607 461.555 33.175V40H458.615V33.574C458.615 32.664 458.384 31.971 457.922 31.495C457.46 31.005 456.83 30.76 456.032 30.76C455.234 30.76 454.597 31.005 454.121 31.495C453.659 31.971 453.428 32.664 453.428 33.574V40H450.488V33.574C450.488 32.664 450.257 31.971 449.795 31.495C449.333 31.005 448.703 30.76 447.905 30.76C447.093 30.76 446.449 31.005 445.973 31.495C445.511 31.971 445.28 32.664 445.28 33.574V40H442.34V28.366H445.28V29.773C445.658 29.283 446.141 28.898 446.729 28.618C447.331 28.338 447.989 28.198 448.703 28.198C449.613 28.198 450.425 28.394 451.139 28.786C451.853 29.164 452.406 29.71 452.798 30.424C453.176 29.752 453.722 29.213 454.436 28.807C455.164 28.401 455.948 28.198 456.788 28.198ZM475.16 33.931C475.16 34.351 475.132 34.729 475.076 35.065H466.571C466.641 35.905 466.935 36.563 467.453 37.039C467.971 37.515 468.608 37.753 469.364 37.753C470.456 37.753 471.233 37.284 471.695 36.346H474.866C474.53 37.466 473.886 38.39 472.934 39.118C471.982 39.832 470.813 40.189 469.427 40.189C468.307 40.189 467.299 39.944 466.403 39.454C465.521 38.95 464.828 38.243 464.324 37.333C463.834 36.423 463.589 35.373 463.589 34.183C463.589 32.979 463.834 31.922 464.324 31.012C464.814 30.102 465.5 29.402 466.382 28.912C467.264 28.422 468.279 28.177 469.427 28.177C470.533 28.177 471.52 28.415 472.388 28.891C473.27 29.367 473.949 30.046 474.425 30.928C474.915 31.796 475.16 32.797 475.16 33.931ZM472.115 33.091C472.101 32.335 471.828 31.733 471.296 31.285C470.764 30.823 470.113 30.592 469.343 30.592C468.615 30.592 467.999 30.816 467.495 31.264C467.005 31.698 466.704 32.307 466.592 33.091H472.115ZM491.754 28.198C493.182 28.198 494.33 28.639 495.198 29.521C496.08 30.389 496.521 31.607 496.521 33.175V40H493.581V33.574C493.581 32.664 493.35 31.971 492.888 31.495C492.426 31.005 491.796 30.76 490.998 30.76C490.2 30.76 489.563 31.005 489.087 31.495C488.625 31.971 488.394 32.664 488.394 33.574V40H485.454V33.574C485.454 32.664 485.223 31.971 484.761 31.495C484.299 31.005 483.669 30.76 482.871 30.76C482.059 30.76 481.415 31.005 480.939 31.495C480.477 31.971 480.246 32.664 480.246 33.574V40H477.306V28.366H480.246V29.773C480.624 29.283 481.107 28.898 481.695 28.618C482.297 28.338 482.955 28.198 483.669 28.198C484.579 28.198 485.391 28.394 486.105 28.786C486.819 29.164 487.372 29.71 487.764 30.424C488.142 29.752 488.688 29.213 489.402 28.807C490.13 28.401 490.914 28.198 491.754 28.198ZM502.251 30.067C502.629 29.507 503.147 29.052 503.805 28.702C504.477 28.352 505.24 28.177 506.094 28.177C507.088 28.177 507.984 28.422 508.782 28.912C509.594 29.402 510.231 30.102 510.693 31.012C511.169 31.908 511.407 32.951 511.407 34.141C511.407 35.331 511.169 36.388 510.693 37.312C510.231 38.222 509.594 38.929 508.782 39.433C507.984 39.937 507.088 40.189 506.094 40.189C505.226 40.189 504.463 40.021 503.805 39.685C503.161 39.335 502.643 38.887 502.251 38.341V40H499.311V24.46H502.251V30.067ZM508.404 34.141C508.404 33.441 508.257 32.839 507.963 32.335C507.683 31.817 507.305 31.425 506.829 31.159C506.367 30.893 505.863 30.76 505.317 30.76C504.785 30.76 504.281 30.9 503.805 31.18C503.343 31.446 502.965 31.838 502.671 32.356C502.391 32.874 502.251 33.483 502.251 34.183C502.251 34.883 502.391 35.492 502.671 36.01C502.965 36.528 503.343 36.927 503.805 37.207C504.281 37.473 504.785 37.606 505.317 37.606C505.863 37.606 506.367 37.466 506.829 37.186C507.305 36.906 507.683 36.507 507.963 35.989C508.257 35.471 508.404 34.855 508.404 34.141ZM512.787 34.141C512.787 32.965 513.018 31.922 513.48 31.012C513.956 30.102 514.593 29.402 515.391 28.912C516.203 28.422 517.106 28.177 518.1 28.177C518.968 28.177 519.724 28.352 520.368 28.702C521.026 29.052 521.551 29.493 521.943 30.025V28.366H524.904V40H521.943V38.299C521.565 38.845 521.04 39.3 520.368 39.664C519.71 40.014 518.947 40.189 518.079 40.189C517.099 40.189 516.203 39.937 515.391 39.433C514.593 38.929 513.956 38.222 513.48 37.312C513.018 36.388 512.787 35.331 512.787 34.141ZM521.943 34.183C521.943 33.469 521.803 32.86 521.523 32.356C521.243 31.838 520.865 31.446 520.389 31.18C519.913 30.9 519.402 30.76 518.856 30.76C518.31 30.76 517.806 30.893 517.344 31.159C516.882 31.425 516.504 31.817 516.21 32.335C515.93 32.839 515.79 33.441 515.79 34.141C515.79 34.841 515.93 35.457 516.21 35.989C516.504 36.507 516.882 36.906 517.344 37.186C517.82 37.466 518.324 37.606 518.856 37.606C519.402 37.606 519.913 37.473 520.389 37.207C520.865 36.927 521.243 36.535 521.523 36.031C521.803 35.513 521.943 34.897 521.943 34.183ZM527.02 34.183C527.02 32.979 527.265 31.929 527.755 31.033C528.245 30.123 528.924 29.423 529.792 28.933C530.66 28.429 531.654 28.177 532.774 28.177C534.216 28.177 535.406 28.541 536.344 29.269C537.296 29.983 537.933 30.991 538.255 32.293H535.084C534.916 31.789 534.629 31.397 534.223 31.117C533.831 30.823 533.341 30.676 532.753 30.676C531.913 30.676 531.248 30.984 530.758 31.6C530.268 32.202 530.023 33.063 530.023 34.183C530.023 35.289 530.268 36.15 530.758 36.766C531.248 37.368 531.913 37.669 532.753 37.669C533.943 37.669 534.72 37.137 535.084 36.073H538.255C537.933 37.333 537.296 38.334 536.344 39.076C535.392 39.818 534.202 40.189 532.774 40.189C531.654 40.189 530.66 39.944 529.792 39.454C528.924 38.95 528.245 38.25 527.755 37.354C527.265 36.444 527.02 35.387 527.02 34.183ZM539.652 34.141C539.652 32.965 539.883 31.922 540.345 31.012C540.821 30.102 541.458 29.402 542.256 28.912C543.068 28.422 543.971 28.177 544.965 28.177C545.833 28.177 546.589 28.352 547.233 28.702C547.891 29.052 548.416 29.493 548.808 30.025V28.366H551.769V40H548.808V38.299C548.43 38.845 547.905 39.3 547.233 39.664C546.575 40.014 545.812 40.189 544.944 40.189C543.964 40.189 543.068 39.937 542.256 39.433C541.458 38.929 540.821 38.222 540.345 37.312C539.883 36.388 539.652 35.331 539.652 34.141ZM548.808 34.183C548.808 33.469 548.668 32.86 548.388 32.356C548.108 31.838 547.73 31.446 547.254 31.18C546.778 30.9 546.267 30.76 545.721 30.76C545.175 30.76 544.671 30.893 544.209 31.159C543.747 31.425 543.369 31.817 543.075 32.335C542.795 32.839 542.655 33.441 542.655 34.141C542.655 34.841 542.795 35.457 543.075 35.989C543.369 36.507 543.747 36.906 544.209 37.186C544.685 37.466 545.189 37.606 545.721 37.606C546.267 37.606 546.778 37.473 547.254 37.207C547.73 36.927 548.108 36.535 548.388 36.031C548.668 35.513 548.808 34.897 548.808 34.183ZM557.854 36.913L555.397 42.814H553.507L554.872 36.913H557.854ZM571.865 40L567.917 35.044V40H564.977V24.46H567.917V33.301L571.823 28.366H575.645L570.521 34.204L575.687 40H571.865ZM576.485 34.141C576.485 32.965 576.716 31.922 577.178 31.012C577.654 30.102 578.291 29.402 579.089 28.912C579.901 28.422 580.804 28.177 581.798 28.177C582.666 28.177 583.422 28.352 584.066 28.702C584.724 29.052 585.249 29.493 585.641 30.025V28.366H588.602V40H585.641V38.299C585.263 38.845 584.738 39.3 584.066 39.664C583.408 40.014 582.645 40.189 581.777 40.189C580.797 40.189 579.901 39.937 579.089 39.433C578.291 38.929 577.654 38.222 577.178 37.312C576.716 36.388 576.485 35.331 576.485 34.141ZM585.641 34.183C585.641 33.469 585.501 32.86 585.221 32.356C584.941 31.838 584.563 31.446 584.087 31.18C583.611 30.9 583.1 30.76 582.554 30.76C582.008 30.76 581.504 30.893 581.042 31.159C580.58 31.425 580.202 31.817 579.908 32.335C579.628 32.839 579.488 33.441 579.488 34.141C579.488 34.841 579.628 35.457 579.908 35.989C580.202 36.507 580.58 36.906 581.042 37.186C581.518 37.466 582.022 37.606 582.554 37.606C583.1 37.606 583.611 37.473 584.087 37.207C584.563 36.927 584.941 36.535 585.221 36.031C585.501 35.513 585.641 34.897 585.641 34.183ZM605.921 28.198C607.349 28.198 608.497 28.639 609.365 29.521C610.247 30.389 610.688 31.607 610.688 33.175V40H607.748V33.574C607.748 32.664 607.517 31.971 607.055 31.495C606.593 31.005 605.963 30.76 605.165 30.76C604.367 30.76 603.73 31.005 603.254 31.495C602.792 31.971 602.561 32.664 602.561 33.574V40H599.621V33.574C599.621 32.664 599.39 31.971 598.928 31.495C598.466 31.005 597.836 30.76 597.038 30.76C596.226 30.76 595.582 31.005 595.106 31.495C594.644 31.971 594.413 32.664 594.413 33.574V40H591.473V28.366H594.413V29.773C594.791 29.283 595.274 28.898 595.862 28.618C596.464 28.338 597.122 28.198 597.836 28.198C598.746 28.198 599.558 28.394 600.272 28.786C600.986 29.164 601.539 29.71 601.931 30.424C602.309 29.752 602.855 29.213 603.569 28.807C604.297 28.401 605.081 28.198 605.921 28.198ZM624.461 28.366V40H621.5V38.53C621.122 39.034 620.625 39.433 620.009 39.727C619.407 40.007 618.749 40.147 618.035 40.147C617.125 40.147 616.32 39.958 615.62 39.58C614.92 39.188 614.367 38.621 613.961 37.879C613.569 37.123 613.373 36.227 613.373 35.191V28.366H616.313V34.771C616.313 35.695 616.544 36.409 617.006 36.913C617.468 37.403 618.098 37.648 618.896 37.648C619.708 37.648 620.345 37.403 620.807 36.913C621.269 36.409 621.5 35.695 621.5 34.771V28.366H624.461ZM631.61 34.141C631.61 32.965 631.841 31.922 632.303 31.012C632.779 30.102 633.423 29.402 634.235 28.912C635.047 28.422 635.95 28.177 636.944 28.177C637.7 28.177 638.421 28.345 639.107 28.681C639.793 29.003 640.339 29.437 640.745 29.983V24.46H643.727V40H640.745V38.278C640.381 38.852 639.87 39.314 639.212 39.664C638.554 40.014 637.791 40.189 636.923 40.189C635.943 40.189 635.047 39.937 634.235 39.433C633.423 38.929 632.779 38.222 632.303 37.312C631.841 36.388 631.61 35.331 631.61 34.141ZM640.766 34.183C640.766 33.469 640.626 32.86 640.346 32.356C640.066 31.838 639.688 31.446 639.212 31.18C638.736 30.9 638.225 30.76 637.679 30.76C637.133 30.76 636.629 30.893 636.167 31.159C635.705 31.425 635.327 31.817 635.033 32.335C634.753 32.839 634.613 33.441 634.613 34.141C634.613 34.841 634.753 35.457 635.033 35.989C635.327 36.507 635.705 36.906 636.167 37.186C636.643 37.466 637.147 37.606 637.679 37.606C638.225 37.606 638.736 37.473 639.212 37.207C639.688 36.927 640.066 36.535 640.346 36.031C640.626 35.513 640.766 34.897 640.766 34.183ZM648.089 26.98C647.571 26.98 647.137 26.819 646.787 26.497C646.451 26.161 646.283 25.748 646.283 25.258C646.283 24.768 646.451 24.362 646.787 24.04C647.137 23.704 647.571 23.536 648.089 23.536C648.607 23.536 649.034 23.704 649.37 24.04C649.72 24.362 649.895 24.768 649.895 25.258C649.895 25.748 649.72 26.161 649.37 26.497C649.034 26.819 648.607 26.98 648.089 26.98ZM649.538 28.366V40H646.598V28.366H649.538ZM659.331 40L655.383 35.044V40H652.443V24.46H655.383V33.301L659.289 28.366H663.111L657.987 34.204L663.153 40H659.331ZM675.521 33.931C675.521 34.351 675.493 34.729 675.437 35.065H666.932C667.002 35.905 667.296 36.563 667.814 37.039C668.332 37.515 668.969 37.753 669.725 37.753C670.817 37.753 671.594 37.284 672.056 36.346H675.227C674.891 37.466 674.247 38.39 673.295 39.118C672.343 39.832 671.174 40.189 669.788 40.189C668.668 40.189 667.66 39.944 666.764 39.454C665.882 38.95 665.189 38.243 664.685 37.333C664.195 36.423 663.95 35.373 663.95 34.183C663.95 32.979 664.195 31.922 664.685 31.012C665.175 30.102 665.861 29.402 666.743 28.912C667.625 28.422 668.64 28.177 669.788 28.177C670.894 28.177 671.881 28.415 672.749 28.891C673.631 29.367 674.31 30.046 674.786 30.928C675.276 31.796 675.521 32.797 675.521 33.931ZM672.476 33.091C672.462 32.335 672.189 31.733 671.657 31.285C671.125 30.823 670.474 30.592 669.704 30.592C668.976 30.592 668.36 30.816 667.856 31.264C667.366 31.698 667.065 32.307 666.953 33.091H672.476ZM684.114 28.198C685.5 28.198 686.62 28.639 687.474 29.521C688.328 30.389 688.755 31.607 688.755 33.175V40H685.815V33.574C685.815 32.65 685.584 31.943 685.122 31.453C684.66 30.949 684.03 30.697 683.232 30.697C682.42 30.697 681.776 30.949 681.3 31.453C680.838 31.943 680.607 32.65 680.607 33.574V40H677.667V28.366H680.607V29.815C680.999 29.311 681.496 28.919 682.098 28.639C682.714 28.345 683.386 28.198 684.114 28.198ZM690.795 34.141C690.795 32.965 691.026 31.922 691.488 31.012C691.964 30.102 692.601 29.402 693.399 28.912C694.211 28.422 695.114 28.177 696.108 28.177C696.976 28.177 697.732 28.352 698.376 28.702C699.034 29.052 699.559 29.493 699.951 30.025V28.366H702.912V40H699.951V38.299C699.573 38.845 699.048 39.3 698.376 39.664C697.718 40.014 696.955 40.189 696.087 40.189C695.107 40.189 694.211 39.937 693.399 39.433C692.601 38.929 691.964 38.222 691.488 37.312C691.026 36.388 690.795 35.331 690.795 34.141ZM699.951 34.183C699.951 33.469 699.811 32.86 699.531 32.356C699.251 31.838 698.873 31.446 698.397 31.18C697.921 30.9 697.41 30.76 696.864 30.76C696.318 30.76 695.814 30.893 695.352 31.159C694.89 31.425 694.512 31.817 694.218 32.335C693.938 32.839 693.798 33.441 693.798 34.141C693.798 34.841 693.938 35.457 694.218 35.989C694.512 36.507 694.89 36.906 695.352 37.186C695.828 37.466 696.332 37.606 696.864 37.606C697.41 37.606 697.921 37.473 698.397 37.207C698.873 36.927 699.251 36.535 699.531 36.031C699.811 35.513 699.951 34.897 699.951 34.183ZM708.723 24.46V40H705.783V24.46H708.723ZM715.876 34.141C715.876 32.965 716.107 31.922 716.569 31.012C717.045 30.102 717.689 29.402 718.501 28.912C719.313 28.422 720.216 28.177 721.21 28.177C721.966 28.177 722.687 28.345 723.373 28.681C724.059 29.003 724.605 29.437 725.011 29.983V24.46H727.993V40H725.011V38.278C724.647 38.852 724.136 39.314 723.478 39.664C722.82 40.014 722.057 40.189 721.189 40.189C720.209 40.189 719.313 39.937 718.501 39.433C717.689 38.929 717.045 38.222 716.569 37.312C716.107 36.388 715.876 35.331 715.876 34.141ZM725.032 34.183C725.032 33.469 724.892 32.86 724.612 32.356C724.332 31.838 723.954 31.446 723.478 31.18C723.002 30.9 722.491 30.76 721.945 30.76C721.399 30.76 720.895 30.893 720.433 31.159C719.971 31.425 719.593 31.817 719.299 32.335C719.019 32.839 718.879 33.441 718.879 34.141C718.879 34.841 719.019 35.457 719.299 35.989C719.593 36.507 719.971 36.906 720.433 37.186C720.909 37.466 721.413 37.606 721.945 37.606C722.491 37.606 723.002 37.473 723.478 37.207C723.954 36.927 724.332 36.535 724.612 36.031C724.892 35.513 725.032 34.897 725.032 34.183ZM741.848 28.366V40H738.887V38.53C738.509 39.034 738.012 39.433 737.396 39.727C736.794 40.007 736.136 40.147 735.422 40.147C734.512 40.147 733.707 39.958 733.007 39.58C732.307 39.188 731.754 38.621 731.348 37.879C730.956 37.123 730.76 36.227 730.76 35.191V28.366H733.7V34.771C733.7 35.695 733.931 36.409 734.393 36.913C734.855 37.403 735.485 37.648 736.283 37.648C737.095 37.648 737.732 37.403 738.194 36.913C738.656 36.409 738.887 35.695 738.887 34.771V28.366H741.848ZM751.195 28.198C752.581 28.198 753.701 28.639 754.555 29.521C755.409 30.389 755.836 31.607 755.836 33.175V40H752.896V33.574C752.896 32.65 752.665 31.943 752.203 31.453C751.741 30.949 751.111 30.697 750.313 30.697C749.501 30.697 748.857 30.949 748.381 31.453C747.919 31.943 747.688 32.65 747.688 33.574V40H744.748V28.366H747.688V29.815C748.08 29.311 748.577 28.919 749.179 28.639C749.795 28.345 750.467 28.198 751.195 28.198ZM760.123 26.98C759.605 26.98 759.171 26.819 758.821 26.497C758.485 26.161 758.317 25.748 758.317 25.258C758.317 24.768 758.485 24.362 758.821 24.04C759.171 23.704 759.605 23.536 760.123 23.536C760.641 23.536 761.068 23.704 761.404 24.04C761.754 24.362 761.929 24.768 761.929 25.258C761.929 25.748 761.754 26.161 761.404 26.497C761.068 26.819 760.641 26.98 760.123 26.98ZM761.572 28.366V40H758.632V28.366H761.572ZM763.721 34.141C763.721 32.965 763.952 31.922 764.414 31.012C764.89 30.102 765.527 29.402 766.325 28.912C767.137 28.422 768.04 28.177 769.034 28.177C769.902 28.177 770.658 28.352 771.302 28.702C771.96 29.052 772.485 29.493 772.877 30.025V28.366H775.838V40H772.877V38.299C772.499 38.845 771.974 39.3 771.302 39.664C770.644 40.014 769.881 40.189 769.013 40.189C768.033 40.189 767.137 39.937 766.325 39.433C765.527 38.929 764.89 38.222 764.414 37.312C763.952 36.388 763.721 35.331 763.721 34.141ZM772.877 34.183C772.877 33.469 772.737 32.86 772.457 32.356C772.177 31.838 771.799 31.446 771.323 31.18C770.847 30.9 770.336 30.76 769.79 30.76C769.244 30.76 768.74 30.893 768.278 31.159C767.816 31.425 767.438 31.817 767.144 32.335C766.864 32.839 766.724 33.441 766.724 34.141C766.724 34.841 766.864 35.457 767.144 35.989C767.438 36.507 767.816 36.906 768.278 37.186C768.754 37.466 769.258 37.606 769.79 37.606C770.336 37.606 770.847 37.473 771.323 37.207C771.799 36.927 772.177 36.535 772.457 36.031C772.737 35.513 772.877 34.897 772.877 34.183ZM780.011 40.147C779.479 40.147 779.038 39.986 778.688 39.664C778.352 39.328 778.184 38.915 778.184 38.425C778.184 37.935 778.352 37.529 778.688 37.207C779.038 36.871 779.479 36.703 780.011 36.703C780.529 36.703 780.956 36.871 781.292 37.207C781.628 37.529 781.796 37.935 781.796 38.425C781.796 38.915 781.628 39.328 781.292 39.664C780.956 39.986 780.529 40.147 780.011 40.147ZM794.292 25.342C795.832 25.342 797.183 25.643 798.345 26.245C799.521 26.847 800.424 27.708 801.054 28.828C801.698 29.934 802.02 31.222 802.02 32.692C802.02 34.162 801.698 35.45 801.054 36.556C800.424 37.648 799.521 38.495 798.345 39.097C797.183 39.699 795.832 40 794.292 40H789.168V25.342H794.292ZM794.187 37.501C795.727 37.501 796.917 37.081 797.757 36.241C798.597 35.401 799.017 34.218 799.017 32.692C799.017 31.166 798.597 29.976 797.757 29.122C796.917 28.254 795.727 27.82 794.187 27.82H792.108V37.501H794.187ZM815.036 33.931C815.036 34.351 815.008 34.729 814.952 35.065H806.447C806.517 35.905 806.811 36.563 807.329 37.039C807.847 37.515 808.484 37.753 809.24 37.753C810.332 37.753 811.109 37.284 811.571 36.346H814.742C814.406 37.466 813.762 38.39 812.81 39.118C811.858 39.832 810.689 40.189 809.303 40.189C808.183 40.189 807.175 39.944 806.279 39.454C805.397 38.95 804.704 38.243 804.2 37.333C803.71 36.423 803.465 35.373 803.465 34.183C803.465 32.979 803.71 31.922 804.2 31.012C804.69 30.102 805.376 29.402 806.258 28.912C807.14 28.422 808.155 28.177 809.303 28.177C810.409 28.177 811.396 28.415 812.264 28.891C813.146 29.367 813.825 30.046 814.301 30.928C814.791 31.796 815.036 32.797 815.036 33.931ZM811.991 33.091C811.977 32.335 811.704 31.733 811.172 31.285C810.64 30.823 809.989 30.592 809.219 30.592C808.491 30.592 807.875 30.816 807.371 31.264C806.881 31.698 806.58 32.307 806.468 33.091H811.991ZM823.629 28.198C825.015 28.198 826.135 28.639 826.989 29.521C827.843 30.389 828.27 31.607 828.27 33.175V40H825.33V33.574C825.33 32.65 825.099 31.943 824.637 31.453C824.175 30.949 823.545 30.697 822.747 30.697C821.935 30.697 821.291 30.949 820.815 31.453C820.353 31.943 820.122 32.65 820.122 33.574V40H817.182V28.366H820.122V29.815C820.514 29.311 821.011 28.919 821.613 28.639C822.229 28.345 822.901 28.198 823.629 28.198ZM835.623 28.177C836.491 28.177 837.254 28.352 837.912 28.702C838.57 29.038 839.088 29.479 839.466 30.025V28.366H842.427V40.084C842.427 41.162 842.21 42.121 841.776 42.961C841.342 43.815 840.691 44.487 839.823 44.977C838.955 45.481 837.905 45.733 836.673 45.733C835.021 45.733 833.663 45.348 832.599 44.578C831.549 43.808 830.954 42.758 830.814 41.428H833.733C833.887 41.96 834.216 42.38 834.72 42.688C835.238 43.01 835.861 43.171 836.589 43.171C837.443 43.171 838.136 42.912 838.668 42.394C839.2 41.89 839.466 41.12 839.466 40.084V38.278C839.088 38.824 838.563 39.279 837.891 39.643C837.233 40.007 836.477 40.189 835.623 40.189C834.643 40.189 833.747 39.937 832.935 39.433C832.123 38.929 831.479 38.222 831.003 37.312C830.541 36.388 830.31 35.331 830.31 34.141C830.31 32.965 830.541 31.922 831.003 31.012C831.479 30.102 832.116 29.402 832.914 28.912C833.726 28.422 834.629 28.177 835.623 28.177ZM839.466 34.183C839.466 33.469 839.326 32.86 839.046 32.356C838.766 31.838 838.388 31.446 837.912 31.18C837.436 30.9 836.925 30.76 836.379 30.76C835.833 30.76 835.329 30.893 834.867 31.159C834.405 31.425 834.027 31.817 833.733 32.335C833.453 32.839 833.313 33.441 833.313 34.141C833.313 34.841 833.453 35.457 833.733 35.989C834.027 36.507 834.405 36.906 834.867 37.186C835.343 37.466 835.847 37.606 836.379 37.606C836.925 37.606 837.436 37.473 837.912 37.207C838.388 36.927 838.766 36.535 839.046 36.031C839.326 35.513 839.466 34.897 839.466 34.183ZM844.542 34.141C844.542 32.965 844.773 31.922 845.235 31.012C845.711 30.102 846.348 29.402 847.146 28.912C847.958 28.422 848.861 28.177 849.855 28.177C850.723 28.177 851.479 28.352 852.123 28.702C852.781 29.052 853.306 29.493 853.698 30.025V28.366H856.659V40H853.698V38.299C853.32 38.845 852.795 39.3 852.123 39.664C851.465 40.014 850.702 40.189 849.834 40.189C848.854 40.189 847.958 39.937 847.146 39.433C846.348 38.929 845.711 38.222 845.235 37.312C844.773 36.388 844.542 35.331 844.542 34.141ZM853.698 34.183C853.698 33.469 853.558 32.86 853.278 32.356C852.998 31.838 852.62 31.446 852.144 31.18C851.668 30.9 851.157 30.76 850.611 30.76C850.065 30.76 849.561 30.893 849.099 31.159C848.637 31.425 848.259 31.817 847.965 32.335C847.685 32.839 847.545 33.441 847.545 34.141C847.545 34.841 847.685 35.457 847.965 35.989C848.259 36.507 848.637 36.906 849.099 37.186C849.575 37.466 850.079 37.606 850.611 37.606C851.157 37.606 851.668 37.473 852.144 37.207C852.62 36.927 852.998 36.535 853.278 36.031C853.558 35.513 853.698 34.897 853.698 34.183ZM865.978 28.198C867.364 28.198 868.484 28.639 869.338 29.521C870.192 30.389 870.619 31.607 870.619 33.175V40H867.679V33.574C867.679 32.65 867.448 31.943 866.986 31.453C866.524 30.949 865.894 30.697 865.096 30.697C864.284 30.697 863.64 30.949 863.164 31.453C862.702 31.943 862.471 32.65 862.471 33.574V40H859.531V28.366H862.471V29.815C862.863 29.311 863.36 28.919 863.962 28.639C864.578 28.345 865.25 28.198 865.978 28.198ZM892.866 28.198C894.294 28.198 895.442 28.639 896.31 29.521C897.192 30.389 897.633 31.607 897.633 33.175V40H894.693V33.574C894.693 32.664 894.462 31.971 894 31.495C893.538 31.005 892.908 30.76 892.11 30.76C891.312 30.76 890.675 31.005 890.199 31.495C889.737 31.971 889.506 32.664 889.506 33.574V40H886.566V33.574C886.566 32.664 886.335 31.971 885.873 31.495C885.411 31.005 884.781 30.76 883.983 30.76C883.171 30.76 882.527 31.005 882.051 31.495C881.589 31.971 881.358 32.664 881.358 33.574V40H878.418V28.366H881.358V29.773C881.736 29.283 882.219 28.898 882.807 28.618C883.409 28.338 884.067 28.198 884.781 28.198C885.691 28.198 886.503 28.394 887.217 28.786C887.931 29.164 888.484 29.71 888.876 30.424C889.254 29.752 889.8 29.213 890.514 28.807C891.242 28.401 892.026 28.198 892.866 28.198ZM911.238 33.931C911.238 34.351 911.21 34.729 911.154 35.065H902.649C902.719 35.905 903.013 36.563 903.531 37.039C904.049 37.515 904.686 37.753 905.442 37.753C906.534 37.753 907.311 37.284 907.773 36.346H910.944C910.608 37.466 909.964 38.39 909.012 39.118C908.06 39.832 906.891 40.189 905.505 40.189C904.385 40.189 903.377 39.944 902.481 39.454C901.599 38.95 900.906 38.243 900.402 37.333C899.912 36.423 899.667 35.373 899.667 34.183C899.667 32.979 899.912 31.922 900.402 31.012C900.892 30.102 901.578 29.402 902.46 28.912C903.342 28.422 904.357 28.177 905.505 28.177C906.611 28.177 907.598 28.415 908.466 28.891C909.348 29.367 910.027 30.046 910.503 30.928C910.993 31.796 911.238 32.797 911.238 33.931ZM908.193 33.091C908.179 32.335 907.906 31.733 907.374 31.285C906.842 30.823 906.191 30.592 905.421 30.592C904.693 30.592 904.077 30.816 903.573 31.264C903.083 31.698 902.782 32.307 902.67 33.091H908.193ZM919.831 28.198C921.217 28.198 922.337 28.639 923.191 29.521C924.045 30.389 924.472 31.607 924.472 33.175V40H921.532V33.574C921.532 32.65 921.301 31.943 920.839 31.453C920.377 30.949 919.747 30.697 918.949 30.697C918.137 30.697 917.493 30.949 917.017 31.453C916.555 31.943 916.324 32.65 916.324 33.574V40H913.384V28.366H916.324V29.815C916.716 29.311 917.213 28.919 917.815 28.639C918.431 28.345 919.103 28.198 919.831 28.198ZM938.251 28.366V40H935.29V38.53C934.912 39.034 934.415 39.433 933.799 39.727C933.197 40.007 932.539 40.147 931.825 40.147C930.915 40.147 930.11 39.958 929.41 39.58C928.71 39.188 928.157 38.621 927.751 37.879C927.359 37.123 927.163 36.227 927.163 35.191V28.366H930.103V34.771C930.103 35.695 930.334 36.409 930.796 36.913C931.258 37.403 931.888 37.648 932.686 37.648C933.498 37.648 934.135 37.403 934.597 36.913C935.059 36.409 935.29 35.695 935.29 34.771V28.366H938.251ZM944.092 24.46V40H941.152V24.46H944.092ZM948.487 26.98C947.969 26.98 947.535 26.819 947.185 26.497C946.849 26.161 946.681 25.748 946.681 25.258C946.681 24.768 946.849 24.362 947.185 24.04C947.535 23.704 947.969 23.536 948.487 23.536C949.005 23.536 949.432 23.704 949.768 24.04C950.118 24.362 950.293 24.768 950.293 25.258C950.293 25.748 950.118 26.161 949.768 26.497C949.432 26.819 949.005 26.98 948.487 26.98ZM949.936 28.366V40H946.996V28.366H949.936ZM957.293 40.189C956.341 40.189 955.487 40.021 954.731 39.685C953.975 39.335 953.373 38.866 952.925 38.278C952.491 37.69 952.253 37.039 952.211 36.325H955.172C955.228 36.773 955.445 37.144 955.823 37.438C956.215 37.732 956.698 37.879 957.272 37.879C957.832 37.879 958.266 37.767 958.574 37.543C958.896 37.319 959.057 37.032 959.057 36.682C959.057 36.304 958.861 36.024 958.469 35.842C958.091 35.646 957.482 35.436 956.642 35.212C955.774 35.002 955.06 34.785 954.5 34.561C953.954 34.337 953.478 33.994 953.072 33.532C952.68 33.07 952.484 32.447 952.484 31.663C952.484 31.019 952.666 30.431 953.03 29.899C953.408 29.367 953.94 28.947 954.626 28.639C955.326 28.331 956.145 28.177 957.083 28.177C958.469 28.177 959.575 28.527 960.401 29.227C961.227 29.913 961.682 30.844 961.766 32.02H958.952C958.91 31.558 958.714 31.194 958.364 30.928C958.028 30.648 957.573 30.508 956.999 30.508C956.467 30.508 956.054 30.606 955.76 30.802C955.48 30.998 955.34 31.271 955.34 31.621C955.34 32.013 955.536 32.314 955.928 32.524C956.32 32.72 956.929 32.923 957.755 33.133C958.595 33.343 959.288 33.56 959.834 33.784C960.38 34.008 960.849 34.358 961.241 34.834C961.647 35.296 961.857 35.912 961.871 36.682C961.871 37.354 961.682 37.956 961.304 38.488C960.94 39.02 960.408 39.44 959.708 39.748C959.022 40.042 958.217 40.189 957.293 40.189ZM967.497 36.913L965.04 42.814H963.15L964.515 36.913H967.497ZM981.508 40L977.56 35.044V40H974.62V24.46H977.56V33.301L981.466 28.366H985.288L980.164 34.204L985.33 40H981.508ZM986.128 34.141C986.128 32.965 986.359 31.922 986.821 31.012C987.297 30.102 987.934 29.402 988.732 28.912C989.544 28.422 990.447 28.177 991.441 28.177C992.309 28.177 993.065 28.352 993.709 28.702C994.367 29.052 994.892 29.493 995.284 30.025V28.366H998.245V40H995.284V38.299C994.906 38.845 994.381 39.3 993.709 39.664C993.051 40.014 992.288 40.189 991.42 40.189C990.44 40.189 989.544 39.937 988.732 39.433C987.934 38.929 987.297 38.222 986.821 37.312C986.359 36.388 986.128 35.331 986.128 34.141ZM995.284 34.183C995.284 33.469 995.144 32.86 994.864 32.356C994.584 31.838 994.206 31.446 993.73 31.18C993.254 30.9 992.743 30.76 992.197 30.76C991.651 30.76 991.147 30.893 990.685 31.159C990.223 31.425 989.845 31.817 989.551 32.335C989.271 32.839 989.131 33.441 989.131 34.141C989.131 34.841 989.271 35.457 989.551 35.989C989.845 36.507 990.223 36.906 990.685 37.186C991.161 37.466 991.665 37.606 992.197 37.606C992.743 37.606 993.254 37.473 993.73 37.207C994.206 36.927 994.584 36.535 994.864 36.031C995.144 35.513 995.284 34.897 995.284 34.183ZM1015.56 28.198C1016.99 28.198 1018.14 28.639 1019.01 29.521C1019.89 30.389 1020.33 31.607 1020.33 33.175V40H1017.39V33.574C1017.39 32.664 1017.16 31.971 1016.7 31.495C1016.24 31.005 1015.61 30.76 1014.81 30.76C1014.01 30.76 1013.37 31.005 1012.9 31.495C1012.44 31.971 1012.2 32.664 1012.2 33.574V40H1009.26V33.574C1009.26 32.664 1009.03 31.971 1008.57 31.495C1008.11 31.005 1007.48 30.76 1006.68 30.76C1005.87 30.76 1005.23 31.005 1004.75 31.495C1004.29 31.971 1004.06 32.664 1004.06 33.574V40H1001.12V28.366H1004.06V29.773C1004.43 29.283 1004.92 28.898 1005.51 28.618C1006.11 28.338 1006.77 28.198 1007.48 28.198C1008.39 28.198 1009.2 28.394 1009.92 28.786C1010.63 29.164 1011.18 29.71 1011.57 30.424C1011.95 29.752 1012.5 29.213 1013.21 28.807C1013.94 28.401 1014.72 28.198 1015.56 28.198ZM1034.1 28.366V40H1031.14V38.53C1030.77 39.034 1030.27 39.433 1029.65 39.727C1029.05 40.007 1028.39 40.147 1027.68 40.147C1026.77 40.147 1025.96 39.958 1025.26 39.58C1024.56 39.188 1024.01 38.621 1023.6 37.879C1023.21 37.123 1023.02 36.227 1023.02 35.191V28.366H1025.96V34.771C1025.96 35.695 1026.19 36.409 1026.65 36.913C1027.11 37.403 1027.74 37.648 1028.54 37.648C1029.35 37.648 1029.99 37.403 1030.45 36.913C1030.91 36.409 1031.14 35.695 1031.14 34.771V28.366H1034.1ZM1041.25 34.141C1041.25 32.965 1041.48 31.922 1041.95 31.012C1042.42 30.102 1043.07 29.402 1043.88 28.912C1044.69 28.422 1045.59 28.177 1046.59 28.177C1047.34 28.177 1048.06 28.345 1048.75 28.681C1049.44 29.003 1049.98 29.437 1050.39 29.983V24.46H1053.37V40H1050.39V38.278C1050.02 38.852 1049.51 39.314 1048.86 39.664C1048.2 40.014 1047.43 40.189 1046.57 40.189C1045.59 40.189 1044.69 39.937 1043.88 39.433C1043.07 38.929 1042.42 38.222 1041.95 37.312C1041.48 36.388 1041.25 35.331 1041.25 34.141ZM1050.41 34.183C1050.41 33.469 1050.27 32.86 1049.99 32.356C1049.71 31.838 1049.33 31.446 1048.86 31.18C1048.38 30.9 1047.87 30.76 1047.32 30.76C1046.78 30.76 1046.27 30.893 1045.81 31.159C1045.35 31.425 1044.97 31.817 1044.68 32.335C1044.4 32.839 1044.26 33.441 1044.26 34.141C1044.26 34.841 1044.4 35.457 1044.68 35.989C1044.97 36.507 1045.35 36.906 1045.81 37.186C1046.29 37.466 1046.79 37.606 1047.32 37.606C1047.87 37.606 1048.38 37.473 1048.86 37.207C1049.33 36.927 1049.71 36.535 1049.99 36.031C1050.27 35.513 1050.41 34.897 1050.41 34.183ZM1057.73 26.98C1057.21 26.98 1056.78 26.819 1056.43 26.497C1056.09 26.161 1055.93 25.748 1055.93 25.258C1055.93 24.768 1056.09 24.362 1056.43 24.04C1056.78 23.704 1057.21 23.536 1057.73 23.536C1058.25 23.536 1058.68 23.704 1059.01 24.04C1059.36 24.362 1059.54 24.768 1059.54 25.258C1059.54 25.748 1059.36 26.161 1059.01 26.497C1058.68 26.819 1058.25 26.98 1057.73 26.98ZM1059.18 28.366V40H1056.24V28.366H1059.18ZM1068.97 40L1065.03 35.044V40H1062.09V24.46H1065.03V33.301L1068.93 28.366H1072.75L1067.63 34.204L1072.8 40H1068.97ZM1085.16 33.931C1085.16 34.351 1085.14 34.729 1085.08 35.065H1076.58C1076.65 35.905 1076.94 36.563 1077.46 37.039C1077.98 37.515 1078.61 37.753 1079.37 37.753C1080.46 37.753 1081.24 37.284 1081.7 36.346H1084.87C1084.53 37.466 1083.89 38.39 1082.94 39.118C1081.99 39.832 1080.82 40.189 1079.43 40.189C1078.31 40.189 1077.3 39.944 1076.41 39.454C1075.53 38.95 1074.83 38.243 1074.33 37.333C1073.84 36.423 1073.59 35.373 1073.59 34.183C1073.59 32.979 1073.84 31.922 1074.33 31.012C1074.82 30.102 1075.5 29.402 1076.39 28.912C1077.27 28.422 1078.28 28.177 1079.43 28.177C1080.54 28.177 1081.52 28.415 1082.39 28.891C1083.27 29.367 1083.95 30.046 1084.43 30.928C1084.92 31.796 1085.16 32.797 1085.16 33.931ZM1082.12 33.091C1082.11 32.335 1081.83 31.733 1081.3 31.285C1080.77 30.823 1080.12 30.592 1079.35 30.592C1078.62 30.592 1078 30.816 1077.5 31.264C1077.01 31.698 1076.71 32.307 1076.6 33.091H1082.12ZM1093.76 28.198C1095.14 28.198 1096.26 28.639 1097.12 29.521C1097.97 30.389 1098.4 31.607 1098.4 33.175V40H1095.46V33.574C1095.46 32.65 1095.23 31.943 1094.77 31.453C1094.3 30.949 1093.67 30.697 1092.88 30.697C1092.06 30.697 1091.42 30.949 1090.94 31.453C1090.48 31.943 1090.25 32.65 1090.25 33.574V40H1087.31V28.366H1090.25V29.815C1090.64 29.311 1091.14 28.919 1091.74 28.639C1092.36 28.345 1093.03 28.198 1093.76 28.198ZM1100.44 34.141C1100.44 32.965 1100.67 31.922 1101.13 31.012C1101.61 30.102 1102.24 29.402 1103.04 28.912C1103.85 28.422 1104.76 28.177 1105.75 28.177C1106.62 28.177 1107.38 28.352 1108.02 28.702C1108.68 29.052 1109.2 29.493 1109.59 30.025V28.366H1112.56V40H1109.59V38.299C1109.22 38.845 1108.69 39.3 1108.02 39.664C1107.36 40.014 1106.6 40.189 1105.73 40.189C1104.75 40.189 1103.85 39.937 1103.04 39.433C1102.24 38.929 1101.61 38.222 1101.13 37.312C1100.67 36.388 1100.44 35.331 1100.44 34.141ZM1109.59 34.183C1109.59 33.469 1109.45 32.86 1109.17 32.356C1108.89 31.838 1108.52 31.446 1108.04 31.18C1107.56 30.9 1107.05 30.76 1106.51 30.76C1105.96 30.76 1105.46 30.893 1105 31.159C1104.53 31.425 1104.16 31.817 1103.86 32.335C1103.58 32.839 1103.44 33.441 1103.44 34.141C1103.44 34.841 1103.58 35.457 1103.86 35.989C1104.16 36.507 1104.53 36.906 1105 37.186C1105.47 37.466 1105.98 37.606 1106.51 37.606C1107.05 37.606 1107.56 37.473 1108.04 37.207C1108.52 36.927 1108.89 36.535 1109.17 36.031C1109.45 35.513 1109.59 34.897 1109.59 34.183ZM1118.37 24.46V40H1115.43V24.46H1118.37ZM1125.52 34.141C1125.52 32.965 1125.75 31.922 1126.21 31.012C1126.69 30.102 1127.33 29.402 1128.14 28.912C1128.96 28.422 1129.86 28.177 1130.85 28.177C1131.61 28.177 1132.33 28.345 1133.02 28.681C1133.7 29.003 1134.25 29.437 1134.65 29.983V24.46H1137.64V40H1134.65V38.278C1134.29 38.852 1133.78 39.314 1133.12 39.664C1132.46 40.014 1131.7 40.189 1130.83 40.189C1129.85 40.189 1128.96 39.937 1128.14 39.433C1127.33 38.929 1126.69 38.222 1126.21 37.312C1125.75 36.388 1125.52 35.331 1125.52 34.141ZM1134.68 34.183C1134.68 33.469 1134.54 32.86 1134.26 32.356C1133.98 31.838 1133.6 31.446 1133.12 31.18C1132.65 30.9 1132.13 30.76 1131.59 30.76C1131.04 30.76 1130.54 30.893 1130.08 31.159C1129.61 31.425 1129.24 31.817 1128.94 32.335C1128.66 32.839 1128.52 33.441 1128.52 34.141C1128.52 34.841 1128.66 35.457 1128.94 35.989C1129.24 36.507 1129.61 36.906 1130.08 37.186C1130.55 37.466 1131.06 37.606 1131.59 37.606C1132.13 37.606 1132.65 37.473 1133.12 37.207C1133.6 36.927 1133.98 36.535 1134.26 36.031C1134.54 35.513 1134.68 34.897 1134.68 34.183ZM1151.49 28.366V40H1148.53V38.53C1148.15 39.034 1147.66 39.433 1147.04 39.727C1146.44 40.007 1145.78 40.147 1145.07 40.147C1144.16 40.147 1143.35 39.958 1142.65 39.58C1141.95 39.188 1141.4 38.621 1140.99 37.879C1140.6 37.123 1140.4 36.227 1140.4 35.191V28.366H1143.34V34.771C1143.34 35.695 1143.57 36.409 1144.04 36.913C1144.5 37.403 1145.13 37.648 1145.93 37.648C1146.74 37.648 1147.38 37.403 1147.84 36.913C1148.3 36.409 1148.53 35.695 1148.53 34.771V28.366H1151.49ZM1160.84 28.198C1162.22 28.198 1163.34 28.639 1164.2 29.521C1165.05 30.389 1165.48 31.607 1165.48 33.175V40H1162.54V33.574C1162.54 32.65 1162.31 31.943 1161.85 31.453C1161.38 30.949 1160.75 30.697 1159.96 30.697C1159.14 30.697 1158.5 30.949 1158.02 31.453C1157.56 31.943 1157.33 32.65 1157.33 33.574V40H1154.39V28.366H1157.33V29.815C1157.72 29.311 1158.22 28.919 1158.82 28.639C1159.44 28.345 1160.11 28.198 1160.84 28.198ZM1169.77 26.98C1169.25 26.98 1168.81 26.819 1168.46 26.497C1168.13 26.161 1167.96 25.748 1167.96 25.258C1167.96 24.768 1168.13 24.362 1168.46 24.04C1168.81 23.704 1169.25 23.536 1169.77 23.536C1170.28 23.536 1170.71 23.704 1171.05 24.04C1171.4 24.362 1171.57 24.768 1171.57 25.258C1171.57 25.748 1171.4 26.161 1171.05 26.497C1170.71 26.819 1170.28 26.98 1169.77 26.98ZM1171.22 28.366V40H1168.28V28.366H1171.22ZM1173.36 34.141C1173.36 32.965 1173.6 31.922 1174.06 31.012C1174.53 30.102 1175.17 29.402 1175.97 28.912C1176.78 28.422 1177.68 28.177 1178.68 28.177C1179.55 28.177 1180.3 28.352 1180.95 28.702C1181.6 29.052 1182.13 29.493 1182.52 30.025V28.366H1185.48V40H1182.52V38.299C1182.14 38.845 1181.62 39.3 1180.95 39.664C1180.29 40.014 1179.52 40.189 1178.66 40.189C1177.68 40.189 1176.78 39.937 1175.97 39.433C1175.17 38.929 1174.53 38.222 1174.06 37.312C1173.6 36.388 1173.36 35.331 1173.36 34.141ZM1182.52 34.183C1182.52 33.469 1182.38 32.86 1182.1 32.356C1181.82 31.838 1181.44 31.446 1180.97 31.18C1180.49 30.9 1179.98 30.76 1179.43 30.76C1178.89 30.76 1178.38 30.893 1177.92 31.159C1177.46 31.425 1177.08 31.817 1176.79 32.335C1176.51 32.839 1176.37 33.441 1176.37 34.141C1176.37 34.841 1176.51 35.457 1176.79 35.989C1177.08 36.507 1177.46 36.906 1177.92 37.186C1178.4 37.466 1178.9 37.606 1179.43 37.606C1179.98 37.606 1180.49 37.473 1180.97 37.207C1181.44 36.927 1181.82 36.535 1182.1 36.031C1182.38 35.513 1182.52 34.897 1182.52 34.183ZM1189.65 40.147C1189.12 40.147 1188.68 39.986 1188.33 39.664C1188 39.328 1187.83 38.915 1187.83 38.425C1187.83 37.935 1188 37.529 1188.33 37.207C1188.68 36.871 1189.12 36.703 1189.65 36.703C1190.17 36.703 1190.6 36.871 1190.94 37.207C1191.27 37.529 1191.44 37.935 1191.44 38.425C1191.44 38.915 1191.27 39.328 1190.94 39.664C1190.6 39.986 1190.17 40.147 1189.65 40.147ZM1194.4 25.342H1197.48L1195.21 30.634H1193.2L1194.4 25.342ZM1198.64 25.342H1201.72L1199.46 30.634H1197.44L1198.64 25.342Z" fill="white"/>
</g>
</g>
<defs>
<filter id="filter0_d_1205_22" x="0" y="0" width="1543" height="73" filterUnits="userSpaceOnUse" color-interpolation-filters="sRGB">
<feFlood flood-opacity="0" result="BackgroundImageFix"/>
<feColorMatrix in="SourceAlpha" type="matrix" values="0 0 0 0 0 0 0 0 0 0 0 0 0 0 0 0 0 0 127 0" result="hardAlpha"/>
<feOffset dy="4"/>
<feGaussianBlur stdDeviation="2"/>
<feComposite in2="hardAlpha" operator="out"/>
<feColorMatrix type="matrix" values="0 0 0 0 0 0 0 0 0 0 0 0 0 0 0 0 0 0 0.25 0"/>
<feBlend mode="normal" in2="BackgroundImageFix" result="effect1_dropShadow_1205_22"/>
<feBlend mode="normal" in="SourceGraphic" in2="effect1_dropShadow_1205_22" result="shape"/>
</filter>
<clipPath id="clip0_1205_22">
<rect x="4" width="1535" height="65" rx="10" fill="white"/>
</clipPath>
<clipPath id="clip1_1205_22">
<rect width="1920" height="1080" fill="white" transform="translate(-143 -428)"/>
</clipPath>
</defs>
</svg>
